<svg width="59" height="64" viewBox="0 0 59 64" fill="none" xmlns="http://www.w3.org/2000/svg">
<path d="M45.4097 59.5599C43.6408 59.5599 41.8827 59.6146 40.1138 59.5599C36.4448 59.4178 33.1253 60.3687 30.188 62.5656C29.3799 63.1668 28.7247 63.1668 27.9276 62.5656C24.9575 60.336 21.5943 59.4506 17.8817 59.549C14.0381 59.6474 10.1835 59.5709 6.33982 59.5709C4.77834 59.5709 4.61455 59.396 4.60363 57.8439C4.60363 56.4777 4.58179 55.1115 4.60363 53.7562C4.61455 53.1222 4.47261 52.7725 3.7956 52.5211C1.87377 51.8107 0.792717 50.3351 0.869154 48.5426C0.956509 46.5862 1.92836 45.1872 3.81743 44.5751C4.52719 44.3456 4.60363 43.9193 4.60363 43.3072C4.59271 40.695 4.60363 38.0937 4.60363 35.4815C4.60363 33.9513 4.77835 33.7764 6.35075 33.7545C7.79213 33.7327 9.23349 33.7327 10.6749 33.7545C11.3628 33.7545 11.6795 33.5797 11.7013 32.8146C11.8978 27.2404 15.9599 21.4257 24.8047 21.6771C25.2196 21.688 25.8966 22.1689 25.9731 22.5296C26.1369 23.2837 25.4708 23.4914 24.8047 23.5351C23.7236 23.6116 22.6426 23.6444 21.5725 23.8193C17.3685 24.497 14.1254 27.9071 13.6668 32.0714C13.4921 33.6452 13.5685 33.7218 15.1082 33.7218C16.2656 33.7218 17.434 33.7436 18.5915 33.7218C22.1076 33.6562 25.3288 34.5852 28.2443 36.5417C28.7575 36.8914 29.1615 37.0335 29.7403 36.6291C32.8414 34.4431 36.3247 33.6125 40.081 33.7108C41.7189 33.7545 43.3678 33.6562 45.0057 33.7436C46.1413 33.7983 46.3379 33.3392 46.2505 32.3337C45.8793 28.1147 42.6034 24.5516 38.3121 23.8302C37.3293 23.6663 36.3029 23.7319 35.331 23.5133C34.9161 23.4149 34.5994 22.8793 34.2391 22.5296C34.6103 22.2454 34.9816 21.7208 35.3529 21.7099C43.1712 21.4913 47.7028 26.5518 48.1068 32.5304C48.1724 33.5797 48.5764 33.8201 49.5045 33.7655C50.5856 33.6999 51.6666 33.7436 52.7476 33.7655C54.2108 33.7873 54.3746 33.9622 54.3855 35.4705C54.3965 38.0391 54.4183 40.6076 54.3855 43.1761C54.3746 43.963 54.5821 44.3893 55.3792 44.6735C57.1045 45.2855 58.0654 46.772 58.0763 48.5536C58.0763 50.3133 57.1045 51.8216 55.3792 52.4337C54.5821 52.7178 54.3419 53.1222 54.3855 53.9201C54.4511 55.2864 54.3855 56.6526 54.4074 58.0079C54.4292 59.1009 54.0034 59.6146 52.835 59.5927C50.3454 59.5381 47.8666 59.5927 45.377 59.5927L45.4097 59.5709V59.5599ZM30.1225 60.1829C30.4719 60.0299 30.6903 59.9534 30.8868 59.8441C33.6385 58.2702 36.5977 57.6253 39.7644 57.6691C43.608 57.7237 47.4517 57.6691 51.3062 57.7019C52.2344 57.7019 52.562 57.4395 52.5511 56.4777C52.5183 49.9417 52.5183 43.4056 52.5511 36.8696C52.5511 35.9624 52.3327 35.6017 51.3499 35.6126C47.1022 35.6673 42.8546 35.6345 38.6069 35.6782C35.8442 35.7001 33.3546 36.6072 31.0288 38.0718C30.2972 38.5309 30.0351 39.0665 30.0351 39.9299C30.0679 46.2692 30.0351 52.5976 30.0351 58.9369C30.0351 59.3195 30.0897 59.702 30.1225 60.2048V60.1829ZM27.9495 60.3032C28.0259 59.7895 28.0914 59.5927 28.0914 59.396C28.0914 52.7834 28.1242 46.1709 28.0696 39.5583C28.0696 39.1102 27.6765 38.52 27.2834 38.2358C25.296 36.804 23.0685 35.8422 20.6116 35.7656C16.211 35.6345 11.8105 35.6673 7.39902 35.6236C6.72201 35.6236 6.45996 35.8968 6.45996 36.5526V56.751C6.45996 57.3958 6.70018 57.7346 7.37719 57.6909C7.61742 57.6691 7.85765 57.6909 8.09788 57.6909H13.2628C18.2421 57.7237 23.3305 57.1007 27.9386 60.3141L27.9495 60.3032ZM4.49443 50.6302V46.3676C3.31513 46.7501 2.791 47.5043 2.80192 48.5208C2.80192 49.5154 3.23869 50.3461 4.49443 50.6302ZM54.5821 46.4004V50.6302C55.7723 50.2914 56.22 49.5154 56.22 48.5208C56.22 47.5262 55.7723 46.7611 54.5821 46.3895V46.4004Z" fill="#333333"/>
<path d="M38.4213 9.39187C38.3994 14.0917 34.5885 17.8734 29.915 17.8516C25.1978 17.8297 21.3978 13.9496 21.4524 9.20606C21.507 4.52808 25.3616 0.757285 30.046 0.822864C34.7523 0.877513 38.454 4.67017 38.4322 9.4028L38.4213 9.39187ZM23.3305 9.39187C23.3524 12.9987 26.3443 15.9607 29.9477 15.9498C33.6058 15.9389 36.6196 12.8894 36.5759 9.26071C36.5322 5.66479 33.5293 2.71373 29.9259 2.7028C26.257 2.7028 23.2978 5.69758 23.3196 9.4028L23.3305 9.39187Z" fill="#333333"/>
<path d="M16.0909 42.072H11.4065C10.7404 42.072 10.0197 42.0502 9.98692 41.1648C9.95416 40.2905 10.6421 40.1812 11.33 40.1812H21.0702C21.7363 40.1812 22.3478 40.3232 22.3696 41.0993C22.4024 41.9736 21.7254 42.0829 21.0265 42.0829H16.0909V42.072Z" fill="#333333"/>
<path d="M16.08 47.7118H11.2754C10.6203 47.7118 9.99787 47.5807 9.97603 46.8047C9.95419 45.9193 10.6421 45.8538 11.33 45.8538H20.9501C21.6271 45.8538 22.3587 45.8865 22.3696 46.75C22.3805 47.69 21.6053 47.7228 20.8955 47.7228H16.08V47.7118Z" fill="#333333"/>
</svg>
