<svg width="12" height="6" viewBox="0 0 12 6" fill="none" xmlns="http://www.w3.org/2000/svg">
<path d="M11.2811 1.0972L7.06038 5.3179C6.77884 5.59865 6.39747 5.7563 5.99988 5.7563C5.60229 5.7563 5.22092 5.59865 4.93938 5.3179L0.71868 1.0972C0.626867 1.00305 0.575846 0.87651 0.57667 0.745002C0.577494 0.613493 0.630096 0.487605 0.723082 0.394606C0.816067 0.301608 0.941949 0.248988 1.07346 0.248145C1.20497 0.247302 1.33151 0.298305 1.42568 0.390105L5.64638 4.6108C5.74014 4.70454 5.8673 4.7572 5.99988 4.7572C6.13246 4.7572 6.25962 4.70454 6.35338 4.6108L10.5741 0.390004C10.6203 0.342612 10.6755 0.304868 10.7364 0.278961C10.7973 0.253053 10.8627 0.239499 10.9289 0.239085C10.9951 0.23867 11.0607 0.251403 11.122 0.276544C11.1832 0.301686 11.2388 0.338736 11.2856 0.385546C11.3324 0.432356 11.3695 0.487993 11.3946 0.54923C11.4198 0.610467 11.4325 0.676085 11.4321 0.742278C11.4316 0.808471 11.4181 0.87392 11.3921 0.93483C11.3662 0.995741 11.3285 1.051 11.2811 1.0972Z" fill="#333333"/>
</svg>
