<svg width="104" height="104" viewBox="0 0 104 104" fill="none" xmlns="http://www.w3.org/2000/svg">
<g clip-path="url(#clip0_287_2219)">
<path d="M77.1724 48.9952C76.9811 49.6459 77.115 50.3923 77.115 51.1005H77.1724C77.1724 51.866 77.0002 52.689 77.2298 53.378C77.402 53.9139 78.0335 54.5263 78.5693 54.6411C78.8946 54.7177 79.7557 53.9522 79.7748 53.4928C79.9279 51.9043 79.9279 50.3158 79.7174 48.7464C79.66 48.3254 78.7606 47.7703 78.2248 47.7321C77.8613 47.7321 77.2872 48.4785 77.1341 48.9952H77.1724Z" fill="#74C7D3"/>
<path d="M78.1866 56.6316C77.6508 56.5933 76.7897 57.0143 76.5601 57.4928C75.9477 58.756 75.4694 60.134 75.1823 61.4928C75.0675 62.0096 75.4502 62.9856 75.8521 63.1962C76.2539 63.3876 77.3446 63.0048 77.5551 62.5837C78.2631 61.1675 78.7224 59.6364 79.3538 57.8947C78.9903 57.4545 78.6267 56.6699 78.2057 56.6316H78.1866Z" fill="#74C7D3"/>
<path d="M74.7805 64.8613C74.3787 64.7081 73.6324 64.8038 73.3645 65.0909C72.6374 65.8373 72.0059 66.7177 71.5084 67.6364C71.3362 68 71.451 68.7464 71.7571 69.0526C72.025 69.3397 72.9435 69.5694 73.1349 69.378C74.1108 68.4211 74.9719 67.3302 75.9669 66.1818C75.4694 65.5694 75.2206 64.9952 74.8188 64.8613H74.7805Z" fill="#74C7D3"/>
<path d="M103.943 46.0287C103.943 45.7799 103.943 45.512 103.943 45.2632C103.943 45.0909 103.923 44.9378 103.904 44.7847C103.904 44.6316 103.904 44.4785 103.866 44.3445C103.847 44.1914 103.79 44.0383 103.751 43.8852C103.713 43.7704 103.694 43.6364 103.656 43.5407C103.598 43.3684 103.502 43.2345 103.426 43.0814C103.388 43.0048 103.349 42.9282 103.311 42.8517C103.235 42.7177 103.12 42.622 103.024 42.5072C102.948 42.4306 102.89 42.3349 102.814 42.2584C102.737 42.1818 102.661 42.1244 102.584 42.067C102.45 41.9713 102.335 41.8565 102.182 41.7799C102.163 41.7799 102.125 41.7608 102.106 41.7416C101.493 41.378 100.747 41.1675 99.8477 41.1292C97.8959 41.0335 95.9058 41.0526 93.954 41.1101C92.8059 41.1483 92.2127 40.7656 91.7917 39.6172C91.1985 37.933 90.5097 36.2871 89.7825 34.6412C89.5146 34.0287 89.2467 33.4163 88.9597 32.823C88.3474 31.579 88.5387 30.7943 89.5338 29.9139C89.8399 29.6268 90.1461 29.3397 90.4331 29.0527C91.5047 28.0383 92.538 26.9665 93.5522 25.8756C94.4132 24.9378 94.8534 23.9617 94.8342 23.0048C94.8342 22.3158 94.6237 21.6268 94.1836 20.957C94.1836 20.957 94.1836 20.9378 94.1645 20.9187C94.1071 20.823 94.0114 20.7273 93.954 20.6316C93.8583 20.4976 93.7626 20.3637 93.6478 20.2297C92.9398 19.4067 92.2127 18.5837 91.3707 17.933C88.9597 15.4641 86.5104 13.0144 84.0228 10.622C82.0519 8.70815 79.9279 8.76557 77.8804 10.6794C76.5983 11.8852 75.3354 13.1101 74.1682 14.4115C73.2305 15.445 72.4269 15.6747 71.0874 14.9857C68.9634 13.8948 66.7437 13.0144 64.4857 12.2488C63.242 11.8278 62.821 11.2153 62.8592 9.97131C62.9358 8.01916 62.9358 6.04786 62.8592 4.07657C62.7444 1.60767 61.3476 0.153128 58.86 0.11485C54.3632 0.0382953 49.8664 0.0382953 45.3696 0.11485C42.6142 0.153128 41.2173 1.55026 41.0833 4.26796C41.0068 6.08614 40.9685 7.92346 41.0833 9.74164C41.179 11.2919 40.5284 12 39.0933 12.4402C37.2946 13.0144 35.4576 13.6268 33.8502 14.5837C31.841 15.7704 30.4442 15.5598 29.0856 13.6842C28.3393 12.6699 27.306 11.8852 26.4066 11.0048C24.0147 8.65073 22.0055 8.61246 19.6519 10.9091C16.8964 13.5885 14.1792 16.3062 11.4811 19.0431C11.4811 19.0431 11.462 19.0622 11.4429 19.0814C10.8497 19.6747 10.3139 20.3062 9.83551 20.9952C9.70156 21.1866 9.58675 21.378 9.49107 21.5694C8.76393 23.0239 9.10837 24.5359 10.3139 25.8182C11.3281 26.9091 12.3614 27.9617 13.4329 28.9952C13.8348 29.378 14.2175 29.7608 14.6193 30.1436C15.4804 30.9474 15.5952 31.6172 15.0786 32.689C14.7915 33.3015 14.5236 33.9139 14.2366 34.5455C13.5095 36.1723 12.8015 37.8182 12.2274 39.4833C11.7682 40.8038 11.0793 41.2058 9.7781 41.1483C8.01766 41.0526 6.27635 41.0909 4.51591 41.1483C3.78877 41.1483 3.13818 41.2632 2.58325 41.4546C0.937624 42.0287 0.076538 43.4067 0.0382675 45.5694C-2.94088e-06 49.8565 -0.0191382 54.201 0.0382675 58.5646C0.0382675 58.9665 0.076538 59.3302 0.153079 59.6938C0.420972 61.2058 1.20552 62.1627 2.52585 62.6029C3.0425 62.7751 3.63569 62.8708 4.32456 62.89C6.21895 62.9474 8.11334 62.9665 10.0077 62.89C11.175 62.8326 11.749 63.2727 12.17 64.3828C12.8971 66.3349 13.7391 68.2488 14.5045 70.1818C14.6959 70.6603 14.9063 71.1196 15.0786 71.5981C15.289 72.2105 15.1551 73.2249 14.7533 73.7034C14.4471 74.0479 14.1218 74.3732 13.7965 74.6986C12.7632 75.7895 11.6725 76.823 10.6583 77.933C9.18491 79.5024 8.82134 81.0909 9.56761 82.6603C9.81637 83.1962 10.1991 83.7129 10.7157 84.2488C10.8879 84.4211 11.0793 84.5933 11.2515 84.7847C11.4237 84.9761 11.6151 85.1483 11.7873 85.3206C14.3897 87.9617 17.0112 90.5838 19.671 93.1675C22.0247 95.4641 24.0339 95.4259 26.4258 93.0718C27.3251 92.1914 28.3584 91.4067 29.1047 90.3924C30.4633 88.5168 31.8602 88.3062 33.8694 89.4928C35.4767 90.4498 37.3137 91.0622 39.1124 91.6364C40.5476 92.0766 41.1982 92.7847 41.1025 94.3349C40.9877 96.1531 41.0259 97.9905 41.1025 99.8086C41.2364 102.526 42.6333 103.923 45.3888 103.962C49.8856 104.019 54.3823 104.019 58.8791 103.943C61.3667 103.904 62.7636 102.45 62.8784 99.9809C62.9549 98.0096 62.9549 96.0383 62.8784 94.0861C62.8401 92.8421 63.2611 92.2297 64.5049 91.8086C66.7628 91.0431 68.9825 90.1627 71.1065 89.0718C72.446 88.3828 73.2497 88.6125 74.1873 89.646C75.3546 90.9474 76.6175 92.1723 77.8995 93.378C79.947 95.2919 82.071 95.3493 84.0419 93.4354C86.5678 91.0048 89.0362 88.5168 91.4856 86.0287C92.1744 85.3397 92.8633 84.6316 93.533 83.9426C93.533 83.9426 93.5522 83.9235 93.5713 83.9043C94.8916 82.5455 95.1978 81.0527 94.5089 79.5981C94.4515 79.5024 94.3941 79.3876 94.3367 79.2919C94.2793 79.1771 94.2219 79.0622 94.1454 78.9474C93.9923 78.7369 93.8392 78.5072 93.6478 78.2967C93.6478 78.2967 93.6478 78.2775 93.6287 78.2584C92.7485 77.2632 91.7726 76.3254 90.835 75.3684C90.2992 74.8326 89.7442 74.2967 89.2467 73.7034C88.8449 73.2249 88.7109 72.1914 88.9406 71.579C89.285 70.6029 89.706 69.646 90.1078 68.689C90.4905 67.7512 90.8541 66.8134 91.2368 65.8948C91.4473 65.378 91.6769 64.8804 91.8491 64.3637C91.9448 64.0957 92.0596 63.8661 92.1744 63.6747C92.5571 63.0814 93.112 62.8708 93.9923 62.89C95.8867 62.9474 97.7811 62.9282 99.6754 62.89C100.326 62.89 100.9 62.7751 101.398 62.622C101.436 62.622 101.455 62.622 101.493 62.6029C101.608 62.5646 101.704 62.5072 101.819 62.4498C103.177 61.8373 103.943 60.6125 103.981 58.756C104.057 54.5072 104.038 50.2775 103.981 46.0287H103.943ZM100.632 57.7416C100.632 57.9522 100.594 58.1053 100.575 58.2775C100.441 59.3302 99.8285 59.6747 98.623 59.6364C96.5181 59.5598 94.4133 59.6364 92.3084 59.6364C90.9689 59.6364 90.1078 60.1531 89.5146 61.1101C89.4764 61.1675 89.4572 61.244 89.419 61.3206C89.285 61.5503 89.1511 61.7799 89.0554 62.0479C87.9073 65.0527 86.74 68.0574 85.3814 70.9857C85.3431 71.0622 85.3431 71.1196 85.3049 71.1962C84.8074 72.3828 84.7691 73.378 85.3049 74.2967C85.3623 74.3924 85.4388 74.4881 85.5154 74.5838C85.611 74.7369 85.745 74.8708 85.8598 75.0239C85.9555 75.1388 86.0129 75.2536 86.1277 75.3493C86.2234 75.445 86.319 75.5407 86.4147 75.6364C86.9122 76.134 87.4098 76.6316 87.9073 77.1292C88.7492 77.9904 89.5912 78.8326 90.4714 79.6555C90.5862 79.7512 90.6819 79.866 90.7775 79.9617C91.5621 80.823 91.3899 81.512 90.4523 82.4115C89.8973 82.9474 89.3807 83.5024 88.8258 84.0383C86.6252 86.201 84.4247 88.3828 82.2624 90.6029C81.4013 91.4833 80.7507 91.5981 79.8513 90.6412C78.3205 88.9952 76.6558 87.4833 75.0867 85.8756C73.9386 84.689 72.7139 84.6316 71.2596 85.2632C68.1788 86.6029 65.0598 87.8852 61.9408 89.1101C60.5439 89.6651 59.7593 90.5837 59.7402 92.0957C59.7402 94.2775 59.6828 96.4594 59.7402 98.622C59.7402 100 59.3001 100.708 57.8075 100.689C53.9422 100.632 50.0769 100.651 46.2116 100.689C44.853 100.689 44.3363 100.153 44.3937 98.7943C44.4703 96.689 44.3937 94.5837 44.432 92.4785C44.4703 90.6794 43.6666 89.6651 41.9636 89.0335C39.0167 87.9426 36.0699 86.7943 33.2188 85.4163C31.4009 84.5359 30.0232 84.7082 28.7028 86.1627C27.0189 88.0383 25.2968 89.8756 23.1345 92.2488L23.0962 92.2871C20.2259 89.3015 17.6235 86.6412 15.1551 83.9809C14.9063 83.7129 14.6576 83.445 14.4088 83.177C14.007 82.7369 13.6051 82.3158 13.2033 81.8756C12.8971 81.5503 13.1268 80.2871 13.5286 79.8278C14.1218 79.1579 14.7341 78.5072 15.3656 77.8756C15.7292 77.512 16.0927 77.1483 16.4563 76.7847C16.9538 76.3062 17.4513 75.8086 17.9488 75.3302C19.3074 74.0287 19.4223 72.6699 18.6186 70.9665C18.3316 70.3541 18.0637 69.7034 17.7958 69.0718C17.0112 67.2728 16.2649 65.4546 15.5761 63.6364C15.4039 63.1579 15.1934 62.6986 15.0403 62.2201C14.7533 61.4354 14.3706 60.8804 13.9113 60.4593C13.8539 60.4019 13.8156 60.3445 13.7582 60.3062C13.5477 60.134 13.2798 60.0383 13.0311 59.9235C12.9546 59.8852 12.8971 59.8469 12.8206 59.8278C12.4188 59.7129 11.9787 59.6364 11.462 59.6364C9.35713 59.6747 7.25225 59.5981 5.14738 59.6364C3.88445 59.6747 3.3678 59.1196 3.38693 57.8948C3.4252 53.9522 3.44434 50.0287 3.38693 46.0861C3.38693 45.7416 3.4252 45.4737 3.50174 45.244C3.52088 45.1483 3.57829 45.1101 3.61656 45.0335C3.67396 44.9378 3.73137 44.823 3.78877 44.7464C4.11407 44.4211 4.59245 44.2871 5.30046 44.3062C7.40533 44.3637 9.51021 44.268 11.6151 44.3254C12.0552 44.3254 12.4188 44.2871 12.7632 44.1914C12.9928 44.134 13.165 44.0192 13.3564 43.9043C13.4712 43.8469 13.586 43.8086 13.6817 43.7321C14.2749 43.311 14.6959 42.6603 15.002 41.7991C16.131 38.7943 17.3557 35.7895 18.676 32.8613C18.7143 32.7847 18.7143 32.7081 18.7525 32.6316C18.8291 32.4211 18.9056 32.2105 18.963 32.0192C19.0013 31.8469 19.0396 31.6747 19.0587 31.5215C19.0778 31.311 19.097 31.1005 19.0587 30.9091C19.0587 30.8134 19.0587 30.7177 19.0204 30.622C18.963 30.3349 18.8865 30.067 18.7334 29.7991C18.7334 29.7991 18.7334 29.7991 18.7334 29.7799C18.5612 29.4737 18.3316 29.1675 18.0445 28.8804C17.7575 28.5933 17.4705 28.2871 17.1834 28C16.4563 27.2536 15.71 26.5263 14.9638 25.7799C14.5045 25.3206 14.0453 24.8613 13.5669 24.4211C12.5144 23.445 12.3996 22.6412 13.5286 21.6651C13.72 21.4928 13.9304 21.3015 14.1218 21.1292C14.5428 20.7464 14.9255 20.3445 15.2508 19.9235C17.681 17.3206 20.2451 14.6986 23.058 11.7704L23.0962 11.8086C25.2585 14.1818 26.9807 16.0192 28.6646 17.8948C29.9849 19.3493 31.3626 19.5215 33.1805 18.6412C36.0316 17.2632 38.9785 16.1148 41.9253 15.0239C43.6283 14.3924 44.432 13.378 44.3937 11.579C44.3555 9.4737 44.432 7.36844 44.3555 5.26318C44.2981 3.90432 44.8147 3.36844 46.1733 3.36844C50.0386 3.40672 53.904 3.42586 57.7693 3.36844C59.2618 3.3493 59.7211 4.05743 59.7019 5.43542C59.6445 7.5981 59.7019 9.77992 59.7019 11.9617C59.7211 13.4737 60.5056 14.3924 61.9025 14.9474C65.0215 16.1723 68.1406 17.4546 71.2213 18.7943C72.6756 19.4259 73.9003 19.3684 75.0484 18.1818C76.6175 16.5742 78.2822 15.0622 79.8131 13.4163C80.7124 12.4593 81.363 12.5742 82.2241 13.4546C84.4247 15.7129 86.6443 17.9139 88.8832 20.1149C89.6868 21.2823 91.1603 22.3541 91.0646 23.3302C91.0454 23.5598 90.9498 23.7895 90.8158 24C90.2992 24.957 89.0171 25.8373 88.1178 26.7177C86.6252 28.1531 85.7258 29.0909 85.2475 29.8565C84.616 30.8517 84.7308 31.5598 85.2092 32.5933C85.5345 33.3015 86.0511 34.1818 86.6252 35.4259C87.5628 37.4546 88.3282 39.579 88.998 41.7225C89.572 43.5024 90.5862 44.4211 92.4997 44.3637C94.6046 44.3062 96.7095 44.4211 98.8143 44.3254C100.211 44.268 100.67 44.8613 100.651 46.1818C100.613 50.0479 100.575 53.9139 100.651 57.7799L100.632 57.7416Z" fill="#74C7D3"/>
<path d="M78.7606 43.2345C78.1483 41.6268 77.5551 40 76.7706 38.4881C70.9917 27.1005 57.5205 21.1101 45.0061 24.3254C32.549 27.5216 23.6129 39.2154 23.9573 52.689C24.0721 57.5694 25.6986 62.6795 28.8751 67.2919C28.8751 67.2919 28.9707 67.4067 29.009 67.4833C29.2004 67.7704 29.3917 68.0575 29.6022 68.3445C29.8127 68.6125 30.0423 68.8996 30.2719 69.1101C33.2188 72.6125 37.065 75.4833 41.6 77.3015C46.4604 79.2728 52.2583 79.7512 58.2094 78.3158C59.1853 78.067 60.1803 77.7799 59.9316 76.5168C59.6828 75.2536 58.6686 75.3302 57.6736 75.5981C57.444 75.6555 57.2144 75.713 56.9847 75.7512C47.5319 77.7225 38.1748 74.3732 32.2429 67.2919C32.1281 67.1197 32.0133 66.9474 31.8793 66.7752C31.7262 66.6029 31.5923 66.4115 31.4583 66.201C24.8758 56.8421 25.182 44.6125 32.2237 35.7321C39.1316 27.0048 50.9954 23.8278 61.405 28.134C68.7146 31.1579 73.6515 36.4977 76.0626 44.0957C76.3496 45.0144 76.694 46.0862 77.957 45.7225C79.2964 45.3589 79.1051 44.2297 78.7415 43.2345H78.7606Z" fill="#74C7D3"/>
</g>
<defs>
<clipPath id="clip0_287_2219">
<rect width="104" height="104" fill="white"/>
</clipPath>
</defs>
</svg>
