<svg width="117" height="18" viewBox="0 0 117 18" fill="none" xmlns="http://www.w3.org/2000/svg">
<path d="M28.6216 11.8584C28.8657 11.8584 29.1025 11.834 29.332 11.7852C29.5664 11.7363 29.7983 11.6753 30.0278 11.6021V13.2646C29.7886 13.3721 29.4907 13.46 29.1343 13.5283C28.7827 13.6016 28.397 13.6382 27.9771 13.6382C27.4888 13.6382 27.0493 13.5601 26.6587 13.4038C26.2729 13.2427 25.9678 12.9668 25.7432 12.5762C25.5234 12.1807 25.4136 11.6313 25.4136 10.9282V6.98047H24.3442V6.03564L25.5747 5.28857L26.2192 3.56006H27.6475V5.30322H29.9399V6.98047H27.6475V10.9282C27.6475 11.2407 27.7354 11.4751 27.9111 11.6313C28.0918 11.7827 28.3286 11.8584 28.6216 11.8584Z" fill="#999999"/>
<path d="M41.3071 5.14941C42.2349 5.14941 42.9355 5.38867 43.4092 5.86719C43.8877 6.34082 44.127 7.10254 44.127 8.15234V13.4917H41.8857V8.70898C41.8857 8.12305 41.7856 7.68115 41.5854 7.3833C41.3853 7.08545 41.0752 6.93652 40.6553 6.93652C40.0645 6.93652 39.6445 7.14893 39.3955 7.57373C39.1465 7.99365 39.022 8.59668 39.022 9.38281V13.4917H36.7881V8.70898C36.7881 8.31836 36.7441 7.99121 36.6562 7.72754C36.5684 7.46387 36.4341 7.26611 36.2534 7.13428C36.0728 7.00244 35.8408 6.93652 35.5576 6.93652C35.1426 6.93652 34.8154 7.0415 34.5762 7.25146C34.3418 7.45654 34.1733 7.76172 34.0708 8.16699C33.9731 8.56738 33.9243 9.05811 33.9243 9.63916V13.4917H31.6904V5.30322H33.397L33.6973 6.35059H33.8218C33.9878 6.06738 34.1953 5.83789 34.4443 5.66211C34.6982 5.48633 34.9766 5.35693 35.2793 5.27393C35.582 5.19092 35.8896 5.14941 36.2021 5.14941C36.8027 5.14941 37.3105 5.24707 37.7256 5.44238C38.1455 5.6377 38.4678 5.94043 38.6924 6.35059H38.8901C39.1343 5.93066 39.4785 5.62549 39.9229 5.43506C40.3721 5.24463 40.8335 5.14941 41.3071 5.14941Z" fill="#999999"/>
<path d="M49.7812 5.13477C50.8799 5.13477 51.7222 5.37402 52.3081 5.85254C52.894 6.33105 53.187 7.05859 53.187 8.03516V13.4917H51.627L51.1948 12.3784H51.1362C50.9019 12.6714 50.6626 12.9106 50.4185 13.0962C50.1743 13.2817 49.8936 13.4185 49.5762 13.5063C49.2588 13.5942 48.873 13.6382 48.4189 13.6382C47.9355 13.6382 47.501 13.5454 47.1152 13.3599C46.7344 13.1743 46.4341 12.8911 46.2144 12.5103C45.9946 12.1245 45.8848 11.6362 45.8848 11.0454C45.8848 10.1763 46.1899 9.53662 46.8003 9.12646C47.4106 8.71143 48.3262 8.48193 49.5469 8.43799L50.9678 8.39404V8.03516C50.9678 7.60547 50.8555 7.29053 50.6309 7.09033C50.4062 6.89014 50.0938 6.79004 49.6934 6.79004C49.2979 6.79004 48.9097 6.84619 48.5288 6.9585C48.1479 7.0708 47.7671 7.2124 47.3862 7.3833L46.6465 5.87451C47.0811 5.64502 47.5669 5.46436 48.104 5.33252C48.646 5.20068 49.2051 5.13477 49.7812 5.13477ZM50.9678 9.69775L50.1035 9.72705C49.3809 9.74658 48.8779 9.87598 48.5947 10.1152C48.3164 10.3545 48.1772 10.6694 48.1772 11.0601C48.1772 11.4019 48.2773 11.646 48.4775 11.7925C48.6777 11.9341 48.939 12.0049 49.2612 12.0049C49.7397 12.0049 50.1426 11.8633 50.4697 11.5801C50.8018 11.2969 50.9678 10.894 50.9678 10.3716V9.69775Z" fill="#999999"/>
<path d="M57.4424 13.4917L54.3223 5.30322H56.6587L58.2407 9.96875C58.3286 10.2422 58.397 10.5303 58.4458 10.833C58.4995 11.1357 58.5361 11.4067 58.5557 11.646H58.6143C58.6289 11.3872 58.6631 11.1113 58.7168 10.8184C58.7754 10.5254 58.8511 10.2422 58.9438 9.96875L60.5186 5.30322H62.855L59.7349 13.4917H57.4424Z" fill="#999999"/>
<path d="M62.8623 5.30322H65.3086L66.854 9.91016C66.9028 10.0566 66.9443 10.2056 66.9785 10.3569C67.0127 10.5083 67.042 10.6646 67.0664 10.8257C67.0908 10.9868 67.1104 11.1553 67.125 11.3311H67.1689C67.1982 11.0674 67.2373 10.8208 67.2861 10.5913C67.3398 10.3618 67.4058 10.1348 67.4839 9.91016L69 5.30322H71.395L67.9307 14.5391C67.7207 15.1055 67.4473 15.5767 67.1104 15.9526C66.7734 16.3335 66.3853 16.6191 65.9458 16.8096C65.5112 17 65.0327 17.0952 64.5103 17.0952C64.2563 17.0952 64.0366 17.0806 63.8511 17.0513C63.6655 17.0269 63.5068 17 63.375 16.9707V15.1982C63.4775 15.2227 63.6069 15.2446 63.7632 15.2642C63.9194 15.2837 64.083 15.2935 64.2539 15.2935C64.5664 15.2935 64.835 15.2275 65.0596 15.0957C65.2842 14.9639 65.4722 14.7856 65.6235 14.561C65.7749 14.3413 65.8945 14.0996 65.9824 13.8359L66.1143 13.4331L62.8623 5.30322ZM70.0107 2V2.15381C69.8691 2.29053 69.6836 2.45898 69.4541 2.65918C69.2246 2.85938 68.978 3.06934 68.7144 3.28906C68.4507 3.50391 68.1919 3.71143 67.938 3.91162C67.6841 4.10693 67.4619 4.27051 67.2715 4.40234H65.7847V4.20459C65.9458 4.01904 66.1313 3.79932 66.3413 3.54541C66.5562 3.28662 66.7686 3.02051 66.9785 2.74707C67.1885 2.47363 67.3643 2.22461 67.5059 2H70.0107Z" fill="#999999"/>
<path d="M81.041 5.14941C81.1533 5.14941 81.2827 5.15674 81.4292 5.17139C81.5806 5.18115 81.7026 5.1958 81.7954 5.21533L81.627 7.31006C81.5537 7.28564 81.4487 7.26855 81.312 7.25879C81.1802 7.24414 81.0654 7.23682 80.9678 7.23682C80.6797 7.23682 80.3989 7.27344 80.1255 7.34668C79.8569 7.41992 79.6152 7.53955 79.4004 7.70557C79.1855 7.8667 79.0146 8.08154 78.8877 8.3501C78.7656 8.61377 78.7046 8.93848 78.7046 9.32422V13.4917H76.4707V5.30322H78.1626L78.4922 6.68018H78.6021C78.7632 6.40186 78.9634 6.14795 79.2026 5.91846C79.4468 5.68408 79.7227 5.49854 80.0303 5.36182C80.3428 5.22021 80.6797 5.14941 81.041 5.14941Z" fill="#999999"/>
<path d="M86.6587 5.14941C87.4155 5.14941 88.0674 5.2959 88.6143 5.58887C89.1611 5.87695 89.5835 6.29688 89.8813 6.84863C90.1792 7.40039 90.3281 8.07422 90.3281 8.87012V9.9541H85.0474C85.0718 10.584 85.2598 11.0796 85.6113 11.4409C85.9678 11.7974 86.4609 11.9756 87.0908 11.9756C87.6133 11.9756 88.0918 11.9219 88.5264 11.8145C88.9609 11.707 89.4077 11.5459 89.8667 11.3311V13.0596C89.4614 13.2598 89.0366 13.4062 88.5923 13.499C88.1528 13.5918 87.6182 13.6382 86.9883 13.6382C86.168 13.6382 85.4404 13.4868 84.8057 13.1841C84.1758 12.8813 83.6802 12.4199 83.3188 11.7998C82.9624 11.1797 82.7842 10.3984 82.7842 9.45605C82.7842 8.49902 82.9453 7.70312 83.2676 7.06836C83.5947 6.42871 84.0488 5.9502 84.6299 5.63281C85.2109 5.31055 85.8872 5.14941 86.6587 5.14941ZM86.6733 6.73877C86.2388 6.73877 85.8774 6.87793 85.5894 7.15625C85.3062 7.43457 85.1426 7.87158 85.0986 8.46729H88.2334C88.2285 8.13525 88.1675 7.83984 88.0503 7.58105C87.938 7.32227 87.7671 7.11719 87.5376 6.96582C87.313 6.81445 87.0249 6.73877 86.6733 6.73877Z" fill="#999999"/>
<path d="M97.8428 13.4917H91.3755V12.1733L95.1694 7.00977H91.6025V5.30322H97.7109V6.75342L94.0195 11.7852H97.8428V13.4917ZM93.3604 4.40234C93.2236 4.17773 93.043 3.93115 92.8184 3.6626C92.5938 3.38916 92.3618 3.12305 92.1226 2.86426C91.8833 2.60547 91.6709 2.3833 91.4854 2.19775V2H92.9722C93.231 2.16602 93.5093 2.35645 93.8071 2.57129C94.105 2.78125 94.3857 3.02051 94.6494 3.28906C94.9082 3.02051 95.1914 2.77881 95.499 2.56396C95.8115 2.34424 96.0996 2.15625 96.3633 2H97.8428V2.19775C97.667 2.37842 97.4595 2.59814 97.2202 2.85693C96.981 3.11572 96.7466 3.38184 96.5171 3.65527C96.2925 3.92871 96.1094 4.17773 95.9678 4.40234H93.3604Z" fill="#999999"/>
<path d="M101.703 5.30322V13.4917H99.4688V5.30322H101.703ZM100.589 2.09521C100.921 2.09521 101.207 2.17334 101.446 2.32959C101.686 2.48096 101.805 2.7666 101.805 3.18652C101.805 3.60156 101.686 3.88965 101.446 4.05078C101.207 4.20703 100.921 4.28516 100.589 4.28516C100.252 4.28516 99.9644 4.20703 99.7251 4.05078C99.4907 3.88965 99.3735 3.60156 99.3735 3.18652C99.3735 2.7666 99.4907 2.48096 99.7251 2.32959C99.9644 2.17334 100.252 2.09521 100.589 2.09521Z" fill="#999999"/>
<path d="M113.67 5.14941C114.598 5.14941 115.299 5.38867 115.772 5.86719C116.251 6.34082 116.49 7.10254 116.49 8.15234V13.4917H114.249V8.70898C114.249 8.12305 114.149 7.68115 113.949 7.3833C113.749 7.08545 113.438 6.93652 113.019 6.93652C112.428 6.93652 112.008 7.14893 111.759 7.57373C111.51 7.99365 111.385 8.59668 111.385 9.38281V13.4917H109.151V8.70898C109.151 8.31836 109.107 7.99121 109.02 7.72754C108.932 7.46387 108.797 7.26611 108.617 7.13428C108.436 7.00244 108.204 6.93652 107.921 6.93652C107.506 6.93652 107.179 7.0415 106.939 7.25146C106.705 7.45654 106.537 7.76172 106.434 8.16699C106.336 8.56738 106.288 9.05811 106.288 9.63916V13.4917H104.054V5.30322H105.76L106.061 6.35059H106.185C106.351 6.06738 106.559 5.83789 106.808 5.66211C107.062 5.48633 107.34 5.35693 107.643 5.27393C107.945 5.19092 108.253 5.14941 108.565 5.14941C109.166 5.14941 109.674 5.24707 110.089 5.44238C110.509 5.6377 110.831 5.94043 111.056 6.35059H111.253C111.498 5.93066 111.842 5.62549 112.286 5.43506C112.735 5.24463 113.197 5.14941 113.67 5.14941Z" fill="#999999"/>
<g clip-path="url(#clip0_207_1052)">
<path d="M0 8.39824C0 13.0875 3.81498 16.9025 8.50422 16.9025C12.7961 16.9025 16.3196 13.7233 16.9025 9.59042C15.6573 10.9681 13.8823 11.8423 11.8688 11.8423C8.10682 11.8423 5.06014 8.79564 5.06014 5.03365C5.06014 3.04668 5.93441 1.24517 7.31204 0C3.17915 0.582843 0 4.1064 0 8.39824Z" fill="#999999"/>
</g>
<defs>
<clipPath id="clip0_207_1052">
<rect width="16.9025" height="16.9025" fill="white"/>
</clipPath>
</defs>
</svg>
