<svg width="17" height="17" viewBox="0 0 17 17" fill="none" xmlns="http://www.w3.org/2000/svg">
<path d="M8.325 0.461548C9.89167 0.461548 11.3 0.811548 12.55 1.51155C13.8 2.21155 14.775 3.18655 15.475 4.43655C16.1917 5.68655 16.55 7.10322 16.55 8.68655C16.55 9.80322 16.3667 10.7949 16 11.6615C15.6333 12.5282 15.1167 13.2032 14.45 13.6865C13.8 14.1699 13.0667 14.4115 12.25 14.4115C11.3167 14.4115 10.6 14.1032 10.1 13.4865C9.61667 12.8699 9.33333 12.0532 9.25 11.0365C9 11.4865 8.7 11.8199 8.35 12.0365C8.01667 12.2532 7.59167 12.3615 7.075 12.3615C6.34167 12.3615 5.74167 12.1532 5.275 11.7365C4.80833 11.3199 4.575 10.7365 4.575 9.98655C4.575 9.33655 4.75 8.85321 5.1 8.53655C5.46667 8.21988 5.98333 8.00321 6.65 7.88655C7.33333 7.78655 8.09167 7.73655 8.925 7.73655C8.925 7.00321 8.89167 6.61988 8.825 6.58655C8.74167 6.53655 8.54167 6.51155 8.225 6.51155C7.675 6.51155 7.09167 6.54488 6.475 6.61155C5.875 6.67821 5.51667 6.71988 5.4 6.73655C5.26667 6.13655 5.2 5.49488 5.2 4.81155C6.55 4.52821 7.71667 4.38655 8.7 4.38655C9.58333 4.38655 10.2417 4.52821 10.675 4.81155C11.125 5.09488 11.4167 5.46155 11.55 5.91155C11.6833 6.36155 11.75 6.91988 11.75 7.58655C11.75 7.91988 11.7333 8.28655 11.7 8.68655C11.6833 9.06988 11.675 9.35321 11.675 9.53655C11.625 10.0365 11.6 10.5032 11.6 10.9365C11.6 12.0032 11.925 12.5365 12.575 12.5365C13.175 12.5365 13.6333 12.1615 13.95 11.4115C14.2833 10.6449 14.45 9.73655 14.45 8.68655C14.45 7.43655 14.1833 6.31988 13.65 5.33655C13.1167 4.35321 12.3833 3.58655 11.45 3.03655C10.5167 2.48655 9.475 2.21155 8.325 2.21155C7.175 2.21155 6.125 2.48655 5.175 3.03655C4.225 3.58655 3.475 4.33655 2.925 5.28655C2.375 6.21988 2.1 7.26155 2.1 8.41155C2.1 10.3115 2.63333 11.8282 3.7 12.9615C4.78333 14.0949 6.29167 14.6615 8.225 14.6615C8.84167 14.6615 9.5 14.5949 10.2 14.4615L10.575 16.0615C9.70833 16.2949 8.925 16.4115 8.225 16.4115C6.525 16.4115 5.05833 16.0782 3.825 15.4115C2.59167 14.7615 1.64167 13.8365 0.975 12.6365C0.325 11.4199 0 10.0115 0 8.41155C0 6.91155 0.358333 5.56155 1.075 4.36155C1.80833 3.14488 2.80833 2.19488 4.075 1.51155C5.34167 0.811548 6.75833 0.461548 8.325 0.461548ZM8.025 10.4865C8.325 10.4865 8.625 10.4282 8.925 10.3115V9.11155H8.8C7.98333 9.11155 7.53333 9.15321 7.45 9.23655C7.33333 9.33655 7.275 9.51988 7.275 9.78655C7.275 10.0532 7.33333 10.2365 7.45 10.3365C7.58333 10.4365 7.775 10.4865 8.025 10.4865Z" fill="#333333"/>
</svg>
