<svg width="61" height="61" viewBox="0 0 61 61" fill="none" xmlns="http://www.w3.org/2000/svg">
<path d="M14.045 6.6918C11.9703 8.85591 10.1468 10.714 8.39964 12.6376C8.22493 12.8235 8.35594 13.5448 8.58525 13.8071C9.37145 14.7143 10.245 15.545 11.1076 16.3757C11.8829 17.1189 11.9485 17.8949 11.4898 18.8677C10.7364 20.4962 10.0375 22.1685 9.43697 23.8626C9.06571 24.9009 8.45422 25.3491 7.39503 25.3381C6.19389 25.3163 4.99276 25.36 3.79162 25.3381C3.07093 25.3163 2.77609 25.6332 2.78701 26.3328C2.80885 28.5843 2.81977 30.8249 2.78701 33.0765C2.78701 33.8853 3.14736 34.1148 3.88989 34.0929C5.09103 34.0602 6.29216 34.1148 7.4933 34.082C8.54157 34.0602 9.08755 34.5848 9.43697 35.5248C10.0812 37.2407 10.7801 38.9567 11.5335 40.629C11.9375 41.5252 11.8502 42.2466 11.1732 42.9243C10.3215 43.7768 9.50249 44.6621 8.61801 45.4709C8.01744 46.0283 7.95193 46.4874 8.59618 47.0448C9.01112 47.4164 9.46975 47.799 9.73182 48.269C9.90653 48.575 9.91745 49.2745 9.73182 49.4057C9.43699 49.6243 8.74906 49.7008 8.49791 49.504C7.75539 48.9138 7.0456 48.2252 6.49963 47.4492C5.84446 46.5311 5.99733 45.5256 6.77261 44.6949C7.55882 43.8424 8.37778 43.0117 9.2295 42.2248C9.72087 41.7657 9.78641 41.3832 9.49159 40.7711C8.8801 39.5142 8.32318 38.2135 7.86456 36.891C7.60249 36.1368 7.20939 35.9073 6.46687 35.9401C5.46228 35.9947 4.46861 35.9729 3.46401 35.9401C1.79333 35.9073 0.930697 35.0657 0.908858 33.4153C0.887019 30.9233 0.8761 28.4422 0.908858 25.9502C0.930697 24.3107 1.72784 23.5238 3.35484 23.4801C4.43587 23.4473 5.5169 23.4363 6.59793 23.4801C7.26402 23.5128 7.59158 23.2615 7.8318 22.6275C8.34502 21.2394 8.98929 19.8951 9.49159 18.507C9.6117 18.1572 9.53525 17.5779 9.30594 17.3047C8.58526 16.4522 7.73355 15.7089 6.96919 14.8892C5.84448 13.6869 5.84448 12.4628 7.00195 11.2823C8.68355 9.56635 10.387 7.8613 12.1123 6.18903C13.4554 4.87745 14.6019 4.89931 15.9668 6.24368C16.48 6.74645 17.0697 7.19458 17.4956 7.77386C18.2708 8.84498 19.068 8.96521 20.2145 8.28756C21.1318 7.74107 22.18 7.39131 23.2065 7.06342C24.0254 6.81203 24.3967 6.40763 24.3421 5.52231C24.2766 4.48397 24.2984 3.43471 24.3421 2.39637C24.4185 0.844331 25.2156 0.0464519 26.788 0.0245922C29.3541 -0.00819739 31.9202 -0.00819739 34.4863 0.0245922C35.9058 0.0464519 36.7029 0.877121 36.7684 2.28707C36.8121 3.41285 36.8121 4.53862 36.7684 5.65347C36.7466 6.36391 36.9868 6.71366 37.6966 6.95412C38.9851 7.39131 40.2518 7.89409 41.4638 8.51709C42.2282 8.91056 42.6868 8.7794 43.2218 8.18919C43.8879 7.44596 44.6086 6.74645 45.3402 6.05787C46.5086 4.96489 47.7207 4.9321 48.8454 6.02508C50.6908 7.80665 52.5034 9.63193 54.2833 11.4681C55.266 12.4846 55.2661 13.6213 54.3051 14.6925C53.508 15.5887 52.5799 16.3757 51.8046 17.2938C51.5753 17.567 51.4988 18.1572 51.6299 18.507C52.1322 19.8951 52.7873 21.2394 53.2896 22.6275C53.5189 23.2833 53.8574 23.491 54.5126 23.4691C55.5936 23.4363 56.6746 23.4473 57.7557 23.4691C59.2953 23.5019 60.1798 24.2998 60.2126 25.83C60.2562 28.3985 60.2453 30.967 60.2017 33.5355C60.1798 35.0001 59.339 35.8417 57.8649 35.9182C56.7511 35.9729 55.6155 35.962 54.5017 35.9182C53.8465 35.8964 53.508 36.115 53.2678 36.7708C52.7982 38.0933 52.2741 39.3939 51.6517 40.6509C51.3023 41.3613 51.4115 41.8094 51.9793 42.3122C52.7764 43.0336 53.5407 43.8205 54.2724 44.6184C55.2442 45.6677 55.2551 46.7825 54.327 47.8536C53.8574 48.4001 53.366 48.9685 52.7764 49.351C52.4379 49.5805 51.8701 49.4712 51.4006 49.515C51.4006 49.045 51.2695 48.4876 51.4661 48.1269C51.8592 47.3836 52.9074 46.6951 52.8419 46.083C52.7655 45.3835 51.7937 44.7605 51.1603 44.1484C48.4414 41.5362 49.1184 41.7329 50.3086 39.1644C50.8437 38.0058 51.2804 36.7926 51.6626 35.5685C51.9902 34.552 52.5689 34.0274 53.6609 34.0602C54.862 34.0929 56.0632 34.0274 57.2643 34.082C58.0614 34.1148 58.3235 33.776 58.3126 33.0218C58.2907 30.814 58.2689 28.6062 58.3126 26.3983C58.3344 25.5239 57.9632 25.2835 57.166 25.3163C55.9649 25.36 54.7637 25.3163 53.5626 25.3163C52.5798 25.3163 52.0448 24.8354 51.6954 23.9391C51.0402 22.2231 50.3741 20.5071 49.5988 18.8349C49.1402 17.8403 49.2494 17.0861 50.0138 16.3429C50.8546 15.5341 51.6299 14.6706 52.4925 13.8836C53.1368 13.3044 53.0712 12.8781 52.4816 12.3097C50.8982 10.7796 49.3477 9.2166 47.808 7.63177C47.3167 7.129 46.9454 7.06342 46.4322 7.60991C45.5586 8.54988 44.6086 9.41334 43.7132 10.3314C43.0581 11.0091 42.3592 11.0419 41.5293 10.6812C39.7713 9.91611 37.9914 9.18381 36.2116 8.4843C35.4144 8.16733 34.9667 7.6427 34.9558 6.77924C34.9558 5.53324 34.9231 4.28724 34.9558 3.05216C34.9667 2.26521 34.7047 1.86081 33.8529 1.87174C31.6472 1.90453 29.4415 1.8936 27.2357 1.87174C26.4605 1.87174 26.1656 2.17777 26.1984 2.95379C26.2421 4.15608 26.1984 5.35836 26.2202 6.56064C26.2421 7.58805 25.7835 8.16733 24.8116 8.52802C23.13 9.15102 21.4484 9.80681 19.8214 10.5938C18.7841 11.0965 17.9979 10.9982 17.2444 10.1675C16.2835 9.09637 15.3008 8.0471 14.0669 6.6918L14.045 6.66994V6.6918Z" fill="#333333"/>
<path d="M30.4788 60.3028H13.7611C12.4289 60.3028 12.1996 60.0405 12.2433 58.7617C12.4944 51.1655 17.4628 44.4545 24.6151 42.0281C24.8771 41.9407 25.1719 41.7549 25.4122 41.8095C25.8926 41.9188 26.3403 42.1593 26.799 42.3451C26.515 42.7495 26.3185 43.3288 25.9254 43.5364C24.9099 44.0829 23.7524 44.3671 22.7369 44.9245C17.8887 47.6023 15.126 51.7666 14.2088 57.2097C14.0341 58.2152 14.4053 58.4557 15.3444 58.4448C22.2783 58.412 29.2122 58.4448 36.146 58.4448H45.2856C47.0218 58.4448 47.0873 58.412 46.7488 56.6741C45.504 50.3785 41.8678 46.094 35.8621 43.8206C35.1305 43.5474 33.8966 43.4927 34.3771 42.2904C34.8139 41.1865 35.8293 41.8095 36.5719 42.0828C43.8115 44.7824 48.6051 51.2529 48.8126 58.5322C48.8563 60.1717 48.7034 60.3356 47.0655 60.3356H30.4679V60.3138L30.4788 60.3028Z" fill="#333333"/>
<path d="M11.6099 30.5189C11.3588 21.3925 17.4082 13.4684 25.838 11.3043C34.3006 9.12921 43.4074 13.1842 47.3166 20.8897C47.8408 21.9171 48.2448 23.0211 48.6597 24.1031C48.9109 24.7698 49.0419 25.5349 48.1356 25.7863C47.2839 26.0268 47.0546 25.3054 46.858 24.6824C45.2201 19.5454 41.8896 15.9276 36.9431 13.8837C29.9001 10.9764 21.8852 13.1295 17.2116 19.0317C12.4508 25.0431 12.2433 33.317 16.6984 39.6563C16.7858 39.7874 16.884 39.9186 16.9823 40.0388C17.4082 40.5853 17.7358 41.1974 17.0151 41.6892C16.2944 42.1811 15.8467 41.6346 15.4318 41.099C12.9421 37.7873 11.6864 34.0493 11.6099 30.4971V30.5189Z" fill="#333333"/>
<path d="M38.4937 31.7211C38.4828 36.104 34.923 39.6562 30.5224 39.6671C26.1874 39.689 22.5731 36.0712 22.5622 31.6883C22.5512 27.3164 26.1219 23.6986 30.4897 23.6767C34.9121 23.6439 38.5046 27.2508 38.4937 31.7211ZM30.4897 37.7653C33.831 37.7872 36.6374 35.0329 36.6592 31.7102C36.6811 28.3766 33.9075 25.6113 30.5334 25.6004C27.2248 25.6004 24.4622 28.311 24.4403 31.5899C24.4185 34.9782 27.1047 37.7325 30.4788 37.7653H30.4897Z" fill="#333333"/>
<path d="M47.5678 29.4259C47.5678 28.945 47.4695 28.4422 47.6005 28.005C47.6988 27.6553 48.0919 27.1416 48.3321 27.1525C48.6925 27.1744 49.304 27.5569 49.3367 27.8411C49.4678 28.9013 49.4678 29.9833 49.3695 31.0545C49.3476 31.3605 48.7689 31.8851 48.5505 31.8305C48.1902 31.754 47.7643 31.3386 47.6442 30.978C47.4913 30.508 47.6115 29.9506 47.6115 29.4369H47.5678V29.4259Z" fill="#333333"/>
<path d="M49.0747 34.0166C48.6488 35.186 48.343 36.2244 47.8626 37.1862C47.7206 37.4704 46.989 37.7327 46.716 37.6015C46.4321 37.4704 46.181 36.8037 46.2574 36.4539C46.454 35.5249 46.7706 34.5958 47.1856 33.7433C47.3385 33.4263 47.9281 33.1422 48.2885 33.164C48.5724 33.1859 48.8126 33.7214 49.0637 34.0166H49.0747Z" fill="#333333"/>
<path d="M46.7706 39.6345C46.1046 40.4105 45.5258 41.1537 44.8597 41.7986C44.7287 41.9297 44.1172 41.7767 43.9316 41.58C43.7351 41.3723 43.6477 40.8586 43.7678 40.6182C44.1063 39.9952 44.5322 39.394 45.0236 38.8912C45.2092 38.6945 45.7115 38.6399 45.9844 38.7382C46.2574 38.8366 46.4212 39.2191 46.7597 39.6345H46.7706Z" fill="#333333"/>
</svg>
