<svg width="100" height="1024" viewBox="0 0 100 1024" fill="none" xmlns="http://www.w3.org/2000/svg">
<rect width="100" height="924" transform="matrix(1 0 0 -1 0 924)" fill="white"/>
<rect y="924" width="100" height="100" fill="#FECB2E"/>
<g clip-path="url(#clip0_236_7)">
<path d="M17 18V31.3702H30.2005V18H17ZM27.3565 22.441H24.9483V29.1832H22.2561V22.441H19.8478V20.5456H27.3565V22.441Z" fill="#333333"/>
<path d="M38.4561 27.5243C38.5456 27.5243 38.709 27.5125 38.9502 27.4927L39.1759 29.0532C38.4094 29.4157 37.4096 29.597 36.1841 29.597C35.0364 29.597 34.1571 29.3054 33.5424 28.7183C32.9277 28.1311 32.6204 27.2484 32.6204 26.0663C32.6204 25.4594 32.6982 24.8762 32.8538 24.3088C33.0094 23.7414 33.1845 23.3473 33.3868 23.1266C33.5969 22.906 33.9859 22.7129 34.5539 22.5513C35.122 22.3898 35.6861 22.307 36.2463 22.307C37.145 22.307 37.8181 22.4686 38.2655 22.7917C38.7129 23.1148 39.0086 23.5601 39.1486 24.1315C39.2887 24.7029 39.3587 25.4673 39.3587 26.4288C38.6818 26.4682 38.0165 26.4879 37.3707 26.4879H35.2464C35.2464 26.811 35.3126 27.0554 35.4488 27.2169C35.5849 27.3785 35.7756 27.4809 36.0245 27.5282C36.2735 27.5755 36.6237 27.5952 37.0711 27.5952C37.3201 27.5952 37.7831 27.5716 38.4639 27.5203L38.4561 27.5243ZM35.2542 24.5098C35.2231 24.7423 35.2037 25.0063 35.1959 25.2979H35.974C36.4408 25.2979 36.7832 25.2939 36.9933 25.2821C36.9933 24.7974 36.9271 24.4546 36.791 24.2536C36.6548 24.0527 36.4253 23.9502 36.0946 23.9502C35.8261 23.9502 35.5888 24.0054 35.3904 24.1157C35.332 24.1472 35.2854 24.2773 35.2542 24.5098Z" fill="#333333"/>
<path d="M44.3541 29.4196L44.1129 28.466C43.6538 29.2226 43.0158 29.6009 42.1987 29.6009C41.5296 29.6009 40.9849 29.4117 40.5608 29.0334C40.1368 28.6552 39.9267 28.1232 39.9267 27.4336C39.9267 27.008 40.0473 26.6376 40.2924 26.3184C40.5375 25.9992 40.8721 25.7746 41.3039 25.6446C41.8642 25.483 42.724 25.3924 43.8911 25.3727C43.8911 24.7067 43.86 24.3521 43.8016 24.3127C43.7511 24.2733 43.5915 24.2536 43.3231 24.2536C43.1519 24.2536 42.9185 24.2654 42.6189 24.2851C42.1404 24.3048 41.4907 24.36 40.6737 24.4506C40.592 23.9068 40.5336 23.3197 40.4947 22.6931C41.0238 22.5828 41.5763 22.4882 42.156 22.4133C42.7356 22.3385 43.2531 22.2991 43.7122 22.2991C44.5097 22.2991 45.1088 22.4331 45.5057 22.701C45.9025 22.969 46.1632 23.3197 46.2838 23.7531C46.4044 24.1866 46.4588 24.7383 46.4472 25.4042L46.4316 27.6306L46.4744 29.4196H44.3502H44.3541ZM43.8911 27.7528V26.6297H43.7705C43.0313 26.6297 42.6228 26.6691 42.545 26.7519C42.4944 26.8031 42.4594 26.878 42.4322 26.9804C42.4088 27.0829 42.3933 27.1775 42.3933 27.2681C42.3933 27.5124 42.4477 27.6779 42.5567 27.7685C42.6656 27.8592 42.8368 27.9064 43.0663 27.9064C43.327 27.9064 43.5993 27.8552 43.8872 27.7567L43.8911 27.7528Z" fill="#333333"/>
<path d="M53.3878 29.2068C52.5786 29.4787 51.676 29.6167 50.68 29.6167C49.5635 29.6167 48.727 29.3329 48.1746 28.7616C47.6221 28.1902 47.3459 27.2996 47.3459 26.0859C47.3459 25.4909 47.4237 24.8998 47.5832 24.3206C47.7427 23.7413 47.9139 23.3473 48.0929 23.1463C48.3029 22.9138 48.7153 22.7168 49.3261 22.5552C49.9408 22.3937 50.575 22.3109 51.2325 22.3109C51.89 22.3109 52.6136 22.37 53.3139 22.4922C53.2945 22.7444 53.2594 23.0399 53.2166 23.3788C53.17 23.7177 53.1233 24.0172 53.0727 24.2812C52.4541 24.2418 51.8705 24.2221 51.322 24.2221C50.7734 24.2221 50.4388 24.2536 50.291 24.3127C50.2093 24.3442 50.1393 24.5491 50.0731 24.9353C50.007 25.3215 49.9759 25.6761 49.9759 26.0111C49.9759 26.4564 50.0381 26.7952 50.1626 27.0356C50.2871 27.272 50.4855 27.4375 50.754 27.5282C51.0224 27.6188 51.3881 27.6661 51.8472 27.6661C52.0456 27.6661 52.4852 27.6464 53.1622 27.607L53.3878 29.2147V29.2068Z" fill="#333333"/>
<path d="M61.0988 23.7216C61.1416 24.1669 61.1649 24.8447 61.1649 25.751V29.4197H58.605V25.1836C58.605 24.825 58.5816 24.6043 58.5311 24.5255C58.4999 24.4861 58.4299 24.4546 58.3132 24.4349C58.1965 24.4152 58.0642 24.4034 57.9164 24.4034L57.6635 24.4191C57.3834 24.4309 57.0955 24.494 56.7959 24.6161V29.4197H54.236V20.3249L56.7959 20.2185V21.9917C56.7959 22.7207 56.7726 23.2054 56.722 23.4458L56.7376 23.4616C57.4145 22.6853 58.2276 22.2952 59.1769 22.2952C59.5348 22.2952 59.8733 22.3464 60.1884 22.4449C60.5036 22.5474 60.7409 22.6932 60.9004 22.8823C60.9899 22.9926 61.056 23.2724 61.1027 23.7177L61.0988 23.7216Z" fill="#333333"/>
<path d="M67.915 27.5243C68.0045 27.5243 68.1679 27.5125 68.4091 27.4927L68.6347 29.0532C67.8683 29.4157 66.8684 29.597 65.6429 29.597C64.4952 29.597 63.616 29.3054 63.0013 28.7183C62.3866 28.1311 62.0792 27.2484 62.0792 26.0663C62.0792 25.4594 62.157 24.8762 62.3127 24.3088C62.4683 23.7414 62.6433 23.3473 62.8456 23.1266C63.0557 22.906 63.4448 22.7129 64.0128 22.5513C64.5808 22.3898 65.1449 22.307 65.7052 22.307C66.6039 22.307 67.2769 22.4686 67.7243 22.7917C68.1717 23.1148 68.4674 23.5601 68.6075 24.1315C68.7475 24.7029 68.8176 25.4673 68.8176 26.4288C68.1406 26.4682 67.4753 26.4879 66.8295 26.4879H64.7053C64.7053 26.811 64.7714 27.0554 64.9076 27.2169C65.0438 27.3785 65.2344 27.4809 65.4834 27.5282C65.7324 27.5755 66.0825 27.5952 66.53 27.5952C66.7789 27.5952 67.2419 27.5716 67.9228 27.5203L67.915 27.5243ZM64.7131 24.5098C64.682 24.7423 64.6625 25.0063 64.6547 25.2979H65.4328C65.8997 25.2979 66.2421 25.2939 66.4521 25.2821C66.4521 24.7974 66.386 24.4546 66.2498 24.2536C66.1137 24.0527 65.8841 23.9502 65.5534 23.9502C65.285 23.9502 65.0477 24.0054 64.8493 24.1157C64.7909 24.1472 64.7442 24.2773 64.7131 24.5098Z" fill="#333333"/>
<path d="M74.3849 22.3424C74.5288 22.3739 74.6378 22.4094 74.7078 22.4488C74.7078 22.6695 74.6844 23.036 74.6339 23.5482C74.5833 24.0566 74.5405 24.4191 74.4977 24.6319C74.3965 24.62 74.2137 24.6161 73.9452 24.6161C73.315 24.6161 72.7586 24.6516 72.2684 24.7225V29.4196H69.7085V22.4488H71.8483L72.1478 23.5719H72.1634C72.4513 23.1896 72.7625 22.8783 73.0893 22.6458C73.42 22.4133 73.7118 22.2991 73.9725 22.2991C74.1009 22.2991 74.2409 22.3148 74.3849 22.3464V22.3424Z" fill="#333333"/>
<path d="M23.0536 38.8611C22.9447 38.9439 22.8552 39.1724 22.7929 39.5507C22.7268 39.929 22.6957 40.327 22.6957 40.7408C22.6957 41.3555 22.7891 41.7653 22.9719 41.9663C23.1548 42.1672 23.4154 42.2697 23.7422 42.2697C24.0107 42.2697 24.2908 42.2224 24.5787 42.1318V38.8454C24.2908 38.806 23.9718 38.7863 23.6216 38.7863C23.322 38.7863 23.1314 38.8099 23.0536 38.8611Z" fill="#333333"/>
<path d="M17 33.1592V46.5294H30.2005V33.1592H17ZM27.1386 44.1809H25.03L24.8199 43.0145C24.6215 43.4085 24.3258 43.7198 23.9368 43.9523C23.5477 44.1848 23.1081 44.2991 22.6218 44.2991C21.8437 44.2991 21.2212 44.0153 20.7582 43.4519C20.2953 42.8844 20.0618 42.0372 20.0618 40.9063C20.0618 40.0472 20.163 39.3419 20.3614 38.7863C20.5598 38.2306 20.7932 37.8327 21.0656 37.5883C21.2368 37.4386 21.583 37.3125 22.1043 37.21C22.6296 37.1076 23.0925 37.0603 23.5049 37.0603C23.8628 37.0603 24.2324 37.0958 24.6137 37.1667C24.5826 36.682 24.567 36.4141 24.567 36.3628V35.09L27.1386 34.9836V44.1809Z" fill="#333333"/>
<path d="M32.6243 37.2101H35.1842V44.1809H32.6243V37.2101ZM33.0367 35.9964C32.7916 35.7639 32.671 35.4881 32.671 35.1649C32.671 34.8418 32.7916 34.566 33.0367 34.3296C33.2818 34.0971 33.5735 33.9828 33.912 33.9828C34.2505 33.9828 34.5423 34.0971 34.7796 34.3296C35.0208 34.562 35.1375 34.8379 35.1375 35.1649C35.1375 35.492 35.0169 35.7678 34.7796 35.9964C34.5423 36.2289 34.2505 36.3432 33.912 36.3432C33.5735 36.3432 33.2818 36.2289 33.0367 35.9964Z" fill="#333333"/>
<path d="M41.5102 37.1864C42.0198 37.2534 42.6112 37.3401 43.292 37.4505V43.4795C43.292 44.9256 42.8174 46.0448 41.872 46.8447C41.7514 46.9471 41.483 47.0299 41.0628 47.1008C40.6426 47.1718 40.1719 47.2072 39.6428 47.2072C38.4951 47.2072 37.5886 47.0575 36.9194 46.7541C36.9077 46.5334 36.9272 46.2378 36.97 45.8753C37.0128 45.5128 37.0634 45.2251 37.1139 45.0123C37.8337 45.1227 38.534 45.1778 39.2226 45.1778C39.5727 45.1778 39.8684 45.1621 40.1135 45.1266C40.3586 45.0911 40.5103 45.0399 40.5687 44.969C40.6504 44.8862 40.7088 44.5868 40.7477 44.0587C40.7593 43.9169 40.7632 43.712 40.7632 43.4361V43.0578C40.5142 43.4322 40.1952 43.7001 39.8062 43.8617C39.4171 44.0233 39.067 44.106 38.7596 44.106C37.9232 44.106 37.289 43.8262 36.861 43.2706C36.4331 42.715 36.2191 41.9033 36.2191 40.8314C36.2191 40.1261 36.3164 39.4601 36.5109 38.8375C36.7054 38.2149 36.9739 37.7854 37.3123 37.5411C37.5302 37.3913 37.8881 37.2771 38.3822 37.1983C38.8763 37.1234 39.4327 37.084 40.0513 37.084C40.5181 37.084 41.0083 37.1155 41.518 37.1825L41.5102 37.1864ZM40.7321 42.0294V38.8612C40.6232 38.8415 40.4559 38.8218 40.238 38.8021C40.1368 38.7902 39.989 38.7863 39.7906 38.7863C39.4832 38.7863 39.2887 38.8178 39.207 38.8769C39.0981 38.9597 39.0086 39.1843 38.9464 39.5508C38.8802 39.9212 38.8491 40.3073 38.8491 40.7093C38.8491 41.2649 38.9113 41.655 39.0358 41.8757C39.1603 42.0963 39.3938 42.2106 39.7322 42.2106C40.1018 42.2106 40.4364 42.1515 40.736 42.0294H40.7321Z" fill="#333333"/>
<path d="M44.5447 37.2101H47.1047V44.1809H44.5447V37.2101ZM44.9571 35.9964C44.712 35.7639 44.5914 35.4881 44.5914 35.1649C44.5914 34.8418 44.712 34.566 44.9571 34.3296C45.2022 34.0971 45.494 33.9828 45.8325 33.9828C46.171 33.9828 46.4628 34.0971 46.7001 34.3296C46.9413 34.562 47.058 34.8379 47.058 35.1649C47.058 35.492 46.9374 35.7678 46.7001 35.9964C46.4628 36.2289 46.171 36.3432 45.8325 36.3432C45.494 36.3432 45.2022 36.2289 44.9571 35.9964Z" fill="#333333"/>
<path d="M51.5477 41.3162C51.5477 41.4974 51.5516 41.6866 51.5632 41.8836C51.5749 42.0806 51.6021 42.2028 51.6527 42.254C51.7228 42.3249 51.9679 42.3604 52.3841 42.3604L52.8938 42.3446C52.9833 42.8293 53.03 43.3889 53.03 44.0273C52.8393 44.0982 52.5631 44.1652 52.2013 44.2243C51.8356 44.2834 51.4893 44.3149 51.1625 44.3149C50.4739 44.3149 49.9448 44.1612 49.5674 43.8539C49.1939 43.5465 49.0072 43.0697 49.0072 42.4235V38.6957H47.8867V37.3165L49.0072 37.2101L49.6802 35.5433L51.5516 35.4369V37.2101H53.1389V38.6957H51.5516V41.3162H51.5477Z" fill="#333333"/>
<path d="M57.9942 44.1808L57.753 43.2272C57.2939 43.9838 56.6559 44.3621 55.8389 44.3621C55.1697 44.3621 54.6251 44.173 54.201 43.7947C53.7769 43.4164 53.5668 42.8844 53.5668 42.1948C53.5668 41.7692 53.6874 41.3988 53.9325 41.0796C54.1776 40.7605 54.5122 40.5359 54.9441 40.4058C55.5043 40.2443 56.3641 40.1536 57.5313 40.1339C57.5313 39.468 57.5001 39.1133 57.4418 39.0739C57.3912 39.0345 57.2317 39.0148 56.9632 39.0148C56.7921 39.0148 56.5586 39.0266 56.2591 39.0463C55.7805 39.066 55.1308 39.1212 54.3138 39.2118C54.2321 38.668 54.1738 38.0809 54.1348 37.4544C54.664 37.344 55.2164 37.2494 55.7961 37.1746C56.3758 37.0997 56.8932 37.0603 57.3523 37.0603C58.1498 37.0603 58.749 37.1943 59.1458 37.4622C59.5426 37.7302 59.8033 38.0809 59.9239 38.5144C60.0445 38.9478 60.099 39.4995 60.0873 40.1654L60.0717 42.3918L60.1145 44.1808H57.9903H57.9942ZM57.5313 42.514V41.3909H57.4106C56.6715 41.3909 56.263 41.4304 56.1851 41.5131C56.1346 41.5643 56.0995 41.6392 56.0723 41.7417C56.049 41.8441 56.0334 41.9387 56.0334 42.0293C56.0334 42.2736 56.0879 42.4391 56.1968 42.5298C56.3057 42.6204 56.4769 42.6677 56.7065 42.6677C56.9671 42.6677 57.2395 42.6165 57.5274 42.5179L57.5313 42.514Z" fill="#333333"/>
<path d="M61.2856 35.09L63.8455 34.9836V44.1808H61.2856V35.09Z" fill="#333333"/>
<path d="M17 48.3185V61.6887H30.2005V48.3185H17ZM24.8705 57.3147H22.3883L21.9409 59.2101H19.1865L21.9409 50.5725H25.4579L28.0918 59.2101H25.3257L24.8783 57.3147H24.8705ZM23.6138 52.4363L22.7307 55.6321H24.5126L23.6761 52.4363H23.6177H23.6138Z" fill="#333333"/>
<path d="M37.9192 51.9792C38.4288 52.0462 39.0202 52.1328 39.701 52.2432V58.2722C39.701 59.7184 39.2264 60.8375 38.281 61.6374C38.1604 61.7399 37.892 61.8226 37.4718 61.8935C37.0516 61.9645 36.5809 61.9999 36.0518 61.9999C34.9041 61.9999 33.9976 61.8502 33.3284 61.5468C33.3167 61.3261 33.3362 61.0306 33.379 60.668C33.4218 60.3055 33.4724 60.0178 33.5229 59.8051C34.2427 59.9154 34.943 59.9706 35.6316 59.9706C35.9817 59.9706 36.2774 59.9548 36.5225 59.9193C36.7676 59.8839 36.9193 59.8326 36.9777 59.7617C37.0594 59.679 37.1178 59.3795 37.1567 58.8515C37.1683 58.7096 37.1722 58.5047 37.1722 58.2288V57.8506C36.9232 58.2249 36.6042 58.4929 36.2152 58.6544C35.8261 58.816 35.476 58.8987 35.1686 58.8987C34.3322 58.8987 33.698 58.619 33.27 58.0633C32.8421 57.5077 32.6281 56.696 32.6281 55.6242C32.6281 54.9188 32.7254 54.2528 32.9199 53.6302C33.1144 53.0076 33.3829 52.5781 33.7213 52.3338C33.9392 52.1841 34.2971 52.0698 34.7912 51.991C35.2853 51.9161 35.8417 51.8767 36.4603 51.8767C36.9271 51.8767 37.4173 51.9082 37.927 51.9752L37.9192 51.9792ZM37.1411 56.8221V53.6539C37.0322 53.6342 36.8649 53.6145 36.647 53.5948C36.5458 53.583 36.398 53.579 36.1996 53.579C35.8922 53.579 35.6977 53.6105 35.616 53.6696C35.5071 53.7524 35.4176 53.977 35.3554 54.3435C35.2892 54.7139 35.2581 55.1001 35.2581 55.502C35.2581 56.0576 35.3203 56.4477 35.4448 56.6684C35.5693 56.8891 35.8028 57.0033 36.1412 57.0033C36.5108 57.0033 36.8454 56.9442 37.145 56.8221H37.1411Z" fill="#333333"/>
<path d="M46.4744 57.0782C46.5639 57.0782 46.7273 57.0664 46.9685 57.0467L47.1942 58.6072C46.4277 58.9697 45.4279 59.151 44.2024 59.151C43.0547 59.151 42.1754 58.8593 41.5607 58.2722C40.946 57.6851 40.6387 56.8024 40.6387 55.6202C40.6387 55.0134 40.7165 54.4302 40.8721 53.8628C41.0277 53.2953 41.2028 52.9013 41.4051 52.6806C41.6152 52.4599 42.0042 52.2668 42.5723 52.1053C43.1403 51.9437 43.7044 51.861 44.2646 51.861C45.1633 51.861 45.8364 52.0225 46.2838 52.3456C46.7312 52.6688 47.0269 53.1141 47.1669 53.6854C47.307 54.2568 47.377 55.0213 47.377 55.9828C46.7001 56.0222 46.0348 56.0419 45.389 56.0419H43.2648C43.2648 56.365 43.3309 56.6093 43.4671 56.7709C43.6032 56.9324 43.7939 57.0349 44.0429 57.0822C44.2919 57.1295 44.642 57.1492 45.0894 57.1492C45.3384 57.1492 45.8014 57.1255 46.4822 57.0743L46.4744 57.0782ZM43.2725 54.0637C43.2414 54.2962 43.222 54.5602 43.2142 54.8518H43.9923C44.4591 54.8518 44.8015 54.8479 45.0116 54.8361C45.0116 54.3514 44.9455 54.0086 44.8093 53.8076C44.6731 53.6066 44.4436 53.5042 44.1129 53.5042C43.8444 53.5042 43.6071 53.5593 43.4087 53.6697C43.3503 53.7012 43.3037 53.8312 43.2725 54.0637Z" fill="#333333"/>
<path d="M55.1308 53.2717C55.1736 53.717 55.1969 54.3947 55.1969 55.3011V58.9697H52.637V54.71C52.637 54.3869 52.6136 54.1859 52.5631 54.1031C52.4814 54.0007 52.2985 53.9534 52.0106 53.9534C51.8705 53.9534 51.7655 53.9573 51.6955 53.9692C51.4154 53.981 51.1275 54.044 50.8279 54.1662V58.9697H48.2679V51.9989H50.3455L50.6295 53.1653C51.3492 52.2866 52.2051 51.8452 53.2011 51.8452C53.559 51.8452 53.8975 51.8964 54.2126 51.995C54.5278 52.0974 54.7651 52.2432 54.9246 52.4324C55.0141 52.5427 55.0802 52.8225 55.1269 53.2677L55.1308 53.2717Z" fill="#333333"/>
<path d="M62.1687 58.7569C61.3594 59.0288 60.4568 59.1667 59.4609 59.1667C58.3443 59.1667 57.5078 58.883 56.9554 58.3116C56.4029 57.7402 56.1267 56.8497 56.1267 55.636C56.1267 55.041 56.2045 54.4499 56.364 53.8706C56.5235 53.2914 56.6947 52.8973 56.8737 52.6964C57.0838 52.4639 57.4962 52.2668 58.107 52.1053C58.7217 51.9437 59.3558 51.861 60.0133 51.861C60.6708 51.861 61.3944 51.9201 62.0947 52.0422C62.0753 52.2944 62.0403 52.59 61.9975 52.9288C61.9508 53.2677 61.9041 53.5672 61.8535 53.8312C61.2349 53.7918 60.6514 53.7721 60.1028 53.7721C59.5542 53.7721 59.2197 53.8036 59.0718 53.8628C58.9901 53.8943 58.9201 54.0992 58.8539 54.4854C58.7878 54.8715 58.7567 55.2262 58.7567 55.5611C58.7567 56.0064 58.8189 56.3453 58.9434 56.5857C59.0679 56.8221 59.2663 56.9876 59.5348 57.0782C59.8032 57.1689 60.1689 57.2161 60.628 57.2161C60.8264 57.2161 61.2661 57.1964 61.943 57.157L62.1687 58.7648V58.7569Z" fill="#333333"/>
<path d="M70.1442 51.9989L68.3507 57.8309C68.0005 58.954 67.6854 59.7697 67.4092 60.278C67.1291 60.7863 66.8489 61.1449 66.5727 61.3459C66.4132 61.4562 66.1603 61.5429 65.818 61.602C65.4756 61.6611 65.1021 61.6926 64.7014 61.6926C64.1022 61.6926 63.6237 61.6375 63.2658 61.5271C63.2541 61.2828 63.2658 60.9912 63.2969 60.6405C63.328 60.2938 63.3669 59.9982 63.4175 59.7539C63.8377 59.7736 64.2462 59.7854 64.643 59.7854C64.9426 59.7854 65.1682 59.7815 65.3161 59.7697C65.4639 59.4781 65.604 59.1668 65.7363 58.8436L64.7053 58.7845L62.4021 51.995H65.1099L66.3082 56.8734L66.3237 57.161H66.3704L67.4481 51.995H70.1559L70.1442 51.9989Z" fill="#333333"/>
<path d="M79.0223 48.3499L74.9996 44.2754L72.5602 46.7501L68.8137 34.4359L80.9715 38.2306L78.5321 40.7053L82.5549 44.7798L79.0262 48.3578L79.0223 48.3499Z" fill="#333333"/>
</g>
<path d="M66.78 879.32C66.78 885.28 65.38 889.76 62.58 892.76C59.74 895.72 55.2 897.2 48.96 897.2C42.84 897.2 38.38 895.56 35.58 892.28C32.78 889 31.38 884.66 31.38 879.26C31.38 867.9 37.04 862.22 48.36 862.22C54.08 862.22 58.58 863.62 61.86 866.42C65.14 869.18 66.78 873.48 66.78 879.32ZM59.7 879.56C59.7 878.44 59.52 877.5 59.16 876.74C58.76 875.98 58.08 875.38 57.12 874.94C55.48 874.1 52.8 873.68 49.08 873.68C45.44 873.68 42.8 874.1 41.16 874.94C39.48 875.78 38.6 877.32 38.52 879.56C38.52 880.4 38.62 881.28 38.82 882.2C38.98 883.08 39.22 883.64 39.54 883.88C40.1 884.36 41.3 884.74 43.14 885.02C44.94 885.26 46.92 885.38 49.08 885.38C52.44 885.38 54.9 885.06 56.46 884.42C57.62 883.98 58.46 883.36 58.98 882.56C59.46 881.76 59.7 880.76 59.7 879.56ZM40.14 822.262C40.58 821.902 41.68 821.642 43.44 821.482C45.2 821.282 47.88 821.182 51.48 821.182L66 821.182L66 831.442L51.6 831.442L49.14 831.442C47.86 831.442 47.06 831.542 46.74 831.742C46.34 832.062 46.14 832.802 46.14 833.962C46.14 834.522 46.16 834.942 46.2 835.222C46.24 836.342 46.5 837.502 46.98 838.702L66 838.702L66 848.962L38.4 848.962L38.4 840.622L43.02 839.482C39.54 836.602 37.8 833.162 37.8 829.162C37.8 827.722 38 826.382 38.4 825.142C38.8 823.862 39.38 822.902 40.14 822.262ZM66 800.002L62.22 800.962C65.22 802.802 66.72 805.362 66.72 808.642C66.72 811.322 65.98 813.522 64.5 815.242C62.98 816.922 60.86 817.762 58.14 817.762C56.46 817.762 55 817.282 53.76 816.322C52.48 815.322 51.58 813.962 51.06 812.242C50.42 810.002 50.06 806.542 49.98 801.862C47.34 801.862 45.94 801.982 45.78 802.222C45.62 802.422 45.54 803.062 45.54 804.142C45.54 804.822 45.58 805.762 45.66 806.962C45.74 808.882 45.96 811.482 46.32 814.762C44.16 815.082 41.84 815.322 39.36 815.482C38.92 813.362 38.56 811.142 38.28 808.822C37.96 806.502 37.8 804.422 37.8 802.582C37.8 799.382 38.34 796.982 39.42 795.382C40.46 793.782 41.84 792.742 43.56 792.262C45.28 791.782 47.46 791.562 50.1 791.602L58.92 791.662L66 791.482L66 800.002ZM60 805.162C60 804.122 59.8 803.022 59.4 801.862L54.96 801.862L54.96 802.342C54.96 805.302 55.12 806.942 55.44 807.262C55.64 807.462 55.94 807.622 56.34 807.742C56.74 807.822 57.12 807.862 57.48 807.862C58.44 807.862 59.1 807.642 59.46 807.202C59.82 806.762 60 806.082 60 805.162ZM32.94 808.402C31.94 807.482 30.7 806.082 29.22 804.202C27.74 802.322 26.36 800.442 25.08 798.562L29.76 795.382C30.64 796.662 31.74 798.362 33.06 800.482C34.38 802.602 35.5 804.442 36.42 806.002L32.94 808.402ZM56.64 764.65C60.2 764.65 62.76 765.79 64.32 768.07C65.88 770.31 66.66 773.51 66.66 777.67C66.66 780.59 66.24 783.95 65.4 787.75C64.6 787.67 63.46 787.49 61.98 787.21C60.46 786.89 59.3 786.63 58.5 786.43C58.74 784.99 58.94 783.39 59.1 781.63C59.22 779.87 59.28 778.37 59.28 777.13C59.28 776.05 59.22 775.39 59.1 775.15C59.06 775.11 58.96 775.07 58.8 775.03C58.6 774.95 58.4 774.91 58.2 774.91C57.4 774.91 56.86 775.41 56.58 776.41C56.5 776.73 56.16 777.95 55.56 780.07C54.96 782.19 53.88 783.93 52.32 785.29C50.72 786.61 48.74 787.27 46.38 787.27C45.14 787.27 43.76 786.99 42.24 786.43C40.72 785.87 39.76 785.27 39.36 784.63C39.04 784.15 38.72 782.99 38.4 781.15C38.04 779.31 37.86 777.61 37.86 776.05C37.86 772.73 38.1 769.39 38.58 766.03C39.3 766.03 40.52 766.13 42.24 766.33C43.92 766.53 44.98 766.71 45.42 766.87C44.98 770.27 44.76 773.01 44.76 775.09C44.76 776.17 44.82 776.87 44.94 777.19C44.98 777.27 45.1 777.35 45.3 777.43C45.46 777.51 45.68 777.55 45.96 777.55C46.52 777.55 46.92 777.37 47.16 777.01C47.44 776.65 47.78 775.71 48.18 774.19C48.7 772.39 49.24 770.85 49.8 769.57C50.36 768.25 51.2 767.11 52.32 766.15C53.44 765.15 54.88 764.65 56.64 764.65Z" fill="#333333"/>
<path d="M29.8648 945.483C32.8814 945.545 35.8358 946.19 38.5296 947.767C39.1876 948.152 39.6096 948.065 40.2303 947.68C45.8786 944.179 51.7876 943.882 57.8579 946.476C58.7889 946.873 59.3724 946.799 60.1669 946.203C66.5103 941.498 76.3793 942.044 82.1765 947.37C86.1241 950.995 86.7696 956.233 83.8896 960.752C83.5793 961.236 83.4924 962.043 83.6538 962.589C84.3489 964.898 85.2179 967.157 85.9255 969.466C86.0993 970.037 85.9007 970.72 85.8634 971.353C85.2055 971.229 84.4358 971.291 83.8896 970.968C81.6676 969.628 79.5324 968.15 77.3103 966.797C76.7889 966.487 76.0193 966.288 75.4482 966.425C70.942 967.443 66.5972 967.195 62.3641 965.246C61.9545 965.059 61.1972 965.146 60.8 965.407C54.5062 969.653 48.0138 969.876 41.2607 966.586C40.8014 966.363 39.9945 966.4 39.5724 966.673C35.1283 969.504 30.3365 970.149 25.2841 968.982C24.1545 968.722 23.3103 968.883 22.3793 969.528C20.3186 970.944 18.2082 972.297 16.0607 973.6C15.5889 973.886 14.9186 973.824 14.3351 973.91C14.2731 973.29 14.0248 972.607 14.1986 972.048C14.9186 969.702 15.8 967.393 16.5324 965.047C16.6813 964.563 16.6317 963.855 16.3834 963.433C13.0441 957.872 14.2234 952.286 19.5862 948.537C22.64 946.402 26.0786 945.52 29.8524 945.495L29.8648 945.483ZM17.1655 969.926C17.2648 970 17.3641 970.075 17.4758 970.149C19.0027 969.168 20.5669 968.25 22.0317 967.195C23.0124 966.487 23.931 966.4 25.0855 966.723C29.542 967.952 33.8496 967.567 37.8841 965.208C43.9917 961.646 44.4262 954.768 38.84 950.473C34.0731 946.799 25.8055 946.712 20.8151 950.262C16.6441 953.217 14.9434 958.244 18.5931 962.813C18.9531 963.272 19.0276 964.178 18.8662 964.786C18.4069 966.524 17.7489 968.213 17.1779 969.926H17.1655ZM82.6731 967.666C82.7724 967.592 82.8841 967.517 82.9834 967.43C82.4248 965.767 81.891 964.091 81.2703 962.44C80.9476 961.584 81.0096 960.938 81.5683 960.168C84.6717 955.96 84.0014 951.392 79.8924 948.189C74.6662 944.13 66.2248 944.117 61.011 948.164C56.1076 951.963 56.1945 958.306 61.2096 961.931C65.5545 965.084 70.3338 965.544 75.3738 964.128C76.3048 963.868 77.0124 963.955 77.7945 964.488C79.3958 965.581 81.0469 966.599 82.6855 967.654L82.6731 967.666ZM59.3972 963.619C58.4289 962.39 57.5351 961.261 56.6165 960.131C56.0579 959.448 55.3503 958.853 54.9531 958.095C54.5931 957.413 54.2331 956.444 54.4441 955.786C55.2138 953.366 56.2193 951.007 57.1503 948.611C53.302 945.979 44.5751 946.513 41.4469 949.666C42.142 950.61 42.8496 951.541 43.5324 952.497C44.2027 953.44 44.96 954.359 45.4565 955.389C45.7545 956.01 45.891 956.928 45.6427 957.537C44.6745 959.945 43.5448 962.279 42.4524 964.65C46.6234 967.716 55.5614 967.207 59.3848 963.632L59.3972 963.619Z" fill="#333333"/>
<path d="M38.1696 998.03C40.7269 993.412 44.4634 990.768 49.6524 990.743C54.8662 990.719 58.6027 993.338 61.2096 997.993C61.6069 997.397 61.9296 996.926 62.2276 996.454C65.1572 991.985 70.5696 989.8 75.6717 991.054C80.9724 992.357 84.8331 996.789 85.3296 1002.16C85.3545 1002.47 85.4786 1002.86 85.3421 1003.11C85.0938 1003.57 84.6965 1003.93 84.3614 1004.34C84.0014 1003.95 83.4552 1003.63 83.3186 1003.18C82.9462 1001.98 82.9214 1000.65 82.4621 999.483C80.7241 994.964 75.9572 992.233 71.3145 992.966C66.3738 993.748 62.7117 997.67 62.3269 1002.57C62.2896 1003.02 62.3021 1003.54 62.0786 1003.88C61.9048 1004.14 61.2096 1004.4 61.0731 1004.29C60.6758 1003.95 60.2289 1003.43 60.1917 1002.96C60.0055 1000.56 59.211 998.452 57.6841 996.59C55.04 993.375 50.6579 992.072 46.5614 993.338C42.5889 994.555 39.5972 998.291 39.2869 1002.39C39.2496 1002.8 39.3365 1003.27 39.1503 1003.59C38.9517 1003.93 38.5048 1004.31 38.1572 1004.31C37.822 1004.31 37.3752 1003.91 37.1889 1003.57C37.0027 1003.24 37.0772 1002.77 37.04 1002.36C36.4938 996.975 32.0124 992.866 26.6496 992.841C21.2869 992.817 16.7931 996.913 16.2096 1002.3C16.1227 1003.13 16.371 1004.42 14.9807 1004.27C13.6648 1004.14 14.0124 1002.92 14.0993 1002.08C14.5958 996.715 18.5186 992.258 23.8069 991.029C29.0331 989.8 34.5696 992.146 37.3752 996.752C37.5986 997.124 37.8345 997.497 38.1696 998.03Z" fill="#333333"/>
<path d="M55.7476 983.717C55.7227 987.007 53.0165 989.713 49.7269 989.713C46.3751 989.713 43.6441 986.97 43.6689 983.618C43.6938 980.279 46.4744 977.573 49.8262 977.635C53.1034 977.684 55.76 980.415 55.7351 983.73L55.7476 983.717ZM49.7517 979.782C47.5793 979.77 45.8413 981.508 45.8413 983.668C45.8413 985.778 47.542 987.516 49.6151 987.553C51.7751 987.59 53.5751 985.865 53.5876 983.73C53.6 981.533 51.8993 979.795 49.7393 979.782H49.7517Z" fill="#333333"/>
<path d="M72.8041 977.635C76.1558 977.635 78.862 980.366 78.8372 983.742C78.8124 987.007 76.0937 989.676 72.7793 989.713C69.4772 989.738 66.7089 986.945 66.7337 983.593C66.7586 980.328 69.4896 977.647 72.7917 977.635H72.8041ZM72.8165 987.566C74.9641 987.528 76.7144 985.753 76.6896 983.606C76.6648 981.47 74.8648 979.745 72.6924 979.782C70.6069 979.819 68.8937 981.57 68.8937 983.668C68.8937 985.815 70.6813 987.59 72.8041 987.566H72.8165Z" fill="#333333"/>
<path d="M32.6703 983.643C32.7076 986.908 30.0262 989.651 26.7241 989.713C23.3848 989.775 20.629 987.069 20.5917 983.693C20.5669 980.403 23.2359 977.672 26.5255 977.622C29.8772 977.573 32.6207 980.266 32.6579 983.643H32.6703ZM30.5228 983.631C30.5103 981.483 28.7228 979.757 26.5503 979.782C24.4897 979.807 22.7517 981.557 22.7145 983.643C22.6897 985.753 24.5145 987.591 26.6248 987.566C28.7972 987.541 30.5352 985.791 30.5228 983.631Z" fill="#333333"/>
<path d="M23.72 959.275C22.6276 959.3 21.6965 958.381 21.7214 957.301C21.7338 956.258 22.6028 955.402 23.6455 955.377C24.6883 955.352 25.5821 956.196 25.6317 957.239C25.6814 958.368 24.8496 959.262 23.72 959.287V959.275Z" fill="#333333"/>
<path d="M35.7862 959.287C34.7186 959.287 33.8372 958.331 33.862 957.251C33.8869 956.233 34.7558 955.402 35.811 955.377C36.8786 955.352 37.8096 956.271 37.8096 957.351C37.8096 958.406 36.8786 959.312 35.7862 959.299V959.287Z" fill="#333333"/>
<path d="M29.6538 955.377C30.771 955.339 31.6897 956.208 31.6897 957.313C31.6897 958.43 30.9572 959.213 29.84 959.275C28.6979 959.324 27.8166 958.505 27.7917 957.363C27.7669 956.333 28.6234 955.414 29.6538 955.389V955.377Z" fill="#333333"/>
<path d="M66.2869 954.806C66.3117 955.886 65.4179 956.804 64.3131 956.804C63.2828 956.804 62.4014 955.972 62.3393 954.942C62.2897 953.875 63.1835 952.894 64.2386 952.857C65.3062 952.819 66.2497 953.726 66.2745 954.806H66.2869Z" fill="#333333"/>
<path d="M78.4152 954.818C78.4276 955.923 77.5462 956.829 76.4662 956.817C75.4483 956.817 74.5793 955.96 74.5421 954.93C74.5048 953.825 75.349 952.894 76.429 952.857C77.4966 952.819 78.4152 953.726 78.4276 954.818H78.4152Z" fill="#333333"/>
<path d="M70.3835 956.804C69.3531 956.817 68.4717 955.948 68.4469 954.892C68.4221 953.8 69.3283 952.844 70.4083 952.857C71.4262 952.857 72.32 953.75 72.3573 954.781C72.3945 955.873 71.5007 956.792 70.3959 956.804H70.3835Z" fill="#333333"/>
<path d="M50.149 954.632C51.1917 954.657 52.011 955.538 51.9986 956.606C51.9986 957.748 51.1172 958.604 50 958.555C48.92 958.517 48.1379 957.686 48.1379 956.593C48.1379 955.488 49.0566 954.595 50.149 954.619V954.632Z" fill="#333333"/>
<defs>
<clipPath id="clip0_236_7">
<rect width="65.551" height="44" fill="white" transform="translate(17 18)"/>
</clipPath>
</defs>
</svg>
