<svg width="908" height="770" viewBox="0 0 908 770" fill="none" xmlns="http://www.w3.org/2000/svg">
<g filter="url(#filter0_dd_207_926)">
<path d="M250 250V331.942H332.157V250H250ZM314.457 277.217H299.468V318.538H282.713V277.217H267.724V265.601H314.457V277.217Z" fill="#74C7D3"/>
<path d="M383.538 308.371C384.095 308.371 385.112 308.299 386.613 308.178L388.018 317.741C383.248 319.963 377.025 321.074 369.398 321.074C362.255 321.074 356.782 319.287 352.956 315.688C349.131 312.09 347.218 306.68 347.218 299.435C347.218 295.716 347.702 292.142 348.671 288.664C349.639 285.187 350.729 282.772 351.988 281.419C353.295 280.067 355.717 278.884 359.252 277.893C362.787 276.903 366.298 276.396 369.785 276.396C375.378 276.396 379.567 277.386 382.352 279.367C385.136 281.347 386.977 284.076 387.848 287.578C388.72 291.079 389.156 295.765 389.156 301.657C384.943 301.899 380.802 302.019 376.783 302.019H363.562C363.562 304 363.974 305.497 364.821 306.487C365.669 307.477 366.855 308.105 368.405 308.395C369.954 308.685 372.134 308.806 374.918 308.806C376.468 308.806 379.349 308.661 383.587 308.347H383.538V308.371ZM363.61 289.896C363.417 291.321 363.296 292.939 363.247 294.726H368.09C370.996 294.726 373.126 294.702 374.434 294.63C374.434 291.659 374.022 289.558 373.175 288.326C372.327 287.095 370.899 286.467 368.841 286.467C367.17 286.467 365.693 286.805 364.458 287.481C364.095 287.674 363.804 288.471 363.61 289.896Z" fill="#74C7D3"/>
<path d="M420.246 319.987L418.745 314.143C415.888 318.78 411.917 321.098 406.832 321.098C402.667 321.098 399.277 319.939 396.638 317.621C393.999 315.302 392.691 312.042 392.691 307.816C392.691 305.207 393.442 302.937 394.967 300.981C396.493 299.025 398.575 297.648 401.263 296.851C404.749 295.861 410.101 295.306 417.365 295.185C417.365 291.104 417.171 288.93 416.808 288.689C416.493 288.447 415.5 288.326 413.83 288.326C412.764 288.326 411.311 288.399 409.447 288.52C406.469 288.64 402.425 288.978 397.34 289.534C396.832 286.201 396.468 282.603 396.226 278.763C399.519 278.087 402.958 277.507 406.565 277.048C410.173 276.589 413.394 276.348 416.251 276.348C421.215 276.348 424.944 277.169 427.413 278.811C429.883 280.453 431.506 282.603 432.256 285.259C433.007 287.916 433.346 291.297 433.273 295.378L433.176 309.023L433.443 319.987H420.222H420.246ZM417.365 302.889H416.614C412.014 302.889 409.471 303.13 408.987 303.638C408.672 303.952 408.454 304.41 408.285 305.038C408.139 305.666 408.042 306.246 408.042 306.801C408.042 308.299 408.382 309.313 409.059 309.868C409.737 310.424 410.803 310.714 412.231 310.714C413.854 310.714 415.549 310.4 417.341 309.796H417.365V302.889Z" fill="#74C7D3"/>
<path d="M476.47 318.683C471.434 320.349 465.816 321.195 459.618 321.195C452.668 321.195 447.462 319.456 444.024 315.954C440.586 312.452 438.866 306.994 438.866 299.556C438.866 295.909 439.351 292.287 440.344 288.737C441.336 285.187 442.402 282.772 443.515 281.54C444.823 280.115 447.39 278.908 451.191 277.918C455.017 276.927 458.964 276.42 463.056 276.42C467.148 276.42 471.652 276.783 476.01 277.531C475.889 279.077 475.671 280.888 475.405 282.965C475.114 285.042 474.824 286.877 474.509 288.495C470.659 288.254 467.027 288.133 463.613 288.133C460.199 288.133 458.116 288.326 457.196 288.689C456.688 288.882 456.252 290.138 455.84 292.504C455.429 294.871 455.235 297.045 455.235 299.097C455.235 301.826 455.622 303.903 456.397 305.376C457.172 306.825 458.407 307.84 460.078 308.395C461.748 308.951 464.024 309.24 466.882 309.24C468.117 309.24 470.853 309.12 475.066 308.878L476.47 318.731V318.683Z" fill="#74C7D3"/>
<path d="M524.462 285.066C524.728 287.795 524.873 291.949 524.873 297.503V319.987H508.941V294.026C508.941 291.828 508.796 290.476 508.481 289.993C508.287 289.751 507.851 289.558 507.125 289.437C506.398 289.316 505.575 289.244 504.655 289.244L503.081 289.341C501.338 289.413 499.546 289.8 497.681 290.548V319.987H481.749V264.249L497.681 263.597V274.464C497.681 278.932 497.536 281.902 497.221 283.376L497.318 283.472C501.531 278.715 506.592 276.324 512.5 276.324C514.728 276.324 516.834 276.638 518.796 277.241C520.757 277.869 522.234 278.763 523.227 279.922C523.784 280.598 524.195 282.313 524.486 285.042L524.462 285.066Z" fill="#74C7D3"/>
<path d="M566.884 308.371C567.441 308.371 568.458 308.299 569.959 308.178L571.364 317.741C566.593 319.963 560.371 321.074 552.743 321.074C545.6 321.074 540.128 319.287 536.302 315.688C532.476 312.09 530.564 306.68 530.564 299.435C530.564 295.716 531.048 292.142 532.016 288.664C532.985 285.187 534.075 282.772 535.334 281.419C536.641 280.067 539.063 278.884 542.598 277.893C546.133 276.903 549.644 276.396 553.131 276.396C558.724 276.396 562.913 277.386 565.698 279.367C568.482 281.347 570.322 284.076 571.194 287.578C572.066 291.079 572.502 295.765 572.502 301.657C568.288 301.899 564.148 302.019 560.128 302.019H546.908C546.908 304 547.319 305.497 548.167 306.487C549.014 307.477 550.201 308.105 551.751 308.395C553.3 308.685 555.479 308.806 558.264 308.806C559.814 308.806 562.695 308.661 566.932 308.347H566.884V308.371ZM546.956 289.896C546.762 291.321 546.641 292.939 546.593 294.726H551.436C554.341 294.726 556.472 294.702 557.78 294.63C557.78 291.659 557.368 289.558 556.521 288.326C555.673 287.095 554.245 286.467 552.186 286.467C550.516 286.467 549.039 286.805 547.804 287.481C547.44 287.674 547.15 288.471 546.956 289.896Z" fill="#74C7D3"/>
<path d="M607.151 276.614C608.047 276.807 608.725 277.024 609.161 277.266C609.161 278.618 609.016 280.864 608.701 284.003C608.386 287.119 608.12 289.341 607.853 290.645C607.224 290.572 606.086 290.548 604.415 290.548C600.493 290.548 597.03 290.766 593.979 291.2V319.987H578.047V277.266H591.364L593.228 284.148H593.325C595.117 281.806 597.054 279.898 599.088 278.473C601.146 277.048 602.962 276.348 604.585 276.348C605.384 276.348 606.255 276.444 607.151 276.638V276.614Z" fill="#74C7D3"/>
<path d="M287.676 377.851C286.998 378.358 286.442 379.759 286.054 382.077C285.642 384.396 285.449 386.835 285.449 389.371C285.449 393.138 286.03 395.65 287.168 396.881C288.306 398.113 289.928 398.741 291.962 398.741C293.633 398.741 295.376 398.451 297.168 397.896V377.755C295.376 377.513 293.391 377.392 291.212 377.392C289.347 377.392 288.161 377.537 287.676 377.851Z" fill="#333333"/>
<path d="M250 342.906V424.847H332.157V342.906H250ZM313.101 410.454H299.977L298.669 403.305C297.435 405.72 295.594 407.628 293.173 409.053C290.752 410.478 288.015 411.178 284.989 411.178C280.146 411.178 276.272 409.44 273.39 405.986C270.509 402.508 269.056 397.316 269.056 390.385C269.056 385.12 269.686 380.797 270.921 377.392C272.155 373.987 273.608 371.548 275.303 370.051C276.369 369.133 278.524 368.36 281.768 367.732C285.037 367.104 287.919 366.814 290.485 366.814C292.713 366.814 295.013 367.032 297.386 367.467C297.192 364.496 297.096 362.854 297.096 362.54V354.739L313.101 354.087V410.454Z" fill="#333333"/>
<path d="M347.242 367.732H363.175V410.454H347.242V367.732ZM349.809 360.294C348.283 358.869 347.533 357.178 347.533 355.198C347.533 353.218 348.283 351.527 349.809 350.078C351.334 348.653 353.15 347.953 355.257 347.953C357.363 347.953 359.179 348.653 360.656 350.078C362.158 351.503 362.884 353.194 362.884 355.198C362.884 357.203 362.133 358.893 360.656 360.294C359.179 361.719 357.363 362.419 355.257 362.419C353.15 362.419 351.334 361.719 349.809 360.294Z" fill="#333333"/>
<path d="M402.546 367.587C405.718 367.998 409.398 368.529 413.636 369.205V406.155C413.636 415.018 410.682 421.877 404.798 426.779C404.047 427.407 402.376 427.914 399.761 428.349C397.146 428.784 394.216 429.001 390.923 429.001C383.78 429.001 378.139 428.083 373.974 426.224C373.901 424.871 374.022 423.06 374.289 420.838C374.555 418.617 374.87 416.854 375.185 415.549C379.664 416.226 384.023 416.564 388.308 416.564C390.488 416.564 392.328 416.467 393.853 416.25C395.379 416.032 396.323 415.718 396.686 415.284C397.195 414.777 397.558 412.941 397.8 409.705C397.873 408.836 397.897 407.58 397.897 405.889V403.571C396.347 405.865 394.362 407.507 391.94 408.498C389.519 409.488 387.34 409.995 385.427 409.995C380.221 409.995 376.274 408.28 373.611 404.875C370.947 401.47 369.615 396.495 369.615 389.926C369.615 385.603 370.221 381.522 371.431 377.706C372.642 373.89 374.313 371.258 376.419 369.761C377.775 368.843 380.003 368.143 383.078 367.66C386.153 367.201 389.616 366.959 393.466 366.959C396.371 366.959 399.422 367.152 402.594 367.563H402.546V367.587ZM397.703 397.268V377.851C397.025 377.73 395.984 377.61 394.628 377.489C393.999 377.416 393.078 377.392 391.844 377.392C389.931 377.392 388.72 377.585 388.212 377.948C387.534 378.455 386.977 379.831 386.589 382.077C386.178 384.347 385.984 386.714 385.984 389.177C385.984 392.583 386.371 394.973 387.146 396.326C387.921 397.678 389.374 398.379 391.48 398.379C393.781 398.379 395.863 398.016 397.727 397.268H397.703Z" fill="#333333"/>
<path d="M421.433 367.732H437.365V410.454H421.433V367.732ZM423.999 360.294C422.474 358.869 421.723 357.178 421.723 355.198C421.723 353.218 422.474 351.527 423.999 350.078C425.525 348.653 427.341 347.953 429.447 347.953C431.554 347.953 433.37 348.653 434.847 350.078C436.348 351.503 437.075 353.194 437.075 355.198C437.075 357.203 436.324 358.893 434.847 360.294C433.37 361.719 431.554 362.419 429.447 362.419C427.341 362.419 425.525 361.719 423.999 360.294Z" fill="#333333"/>
<path d="M465.017 392.897C465.017 394.007 465.041 395.167 465.114 396.374C465.187 397.582 465.356 398.33 465.671 398.644C466.107 399.079 467.632 399.296 470.223 399.296L473.395 399.2C473.952 402.17 474.243 405.6 474.243 409.512C473.056 409.947 471.337 410.357 469.085 410.719C466.809 411.082 464.654 411.275 462.62 411.275C458.334 411.275 455.041 410.333 452.692 408.449C450.368 406.566 449.206 403.643 449.206 399.683V376.837H442.232V368.384L449.206 367.732L453.395 357.517L465.041 356.864V367.732H474.921V376.837H465.041V392.897H465.017Z" fill="#333333"/>
<path d="M505.139 410.454L503.638 404.609C500.781 409.246 496.81 411.565 491.725 411.565C487.56 411.565 484.17 410.405 481.531 408.087C478.892 405.769 477.584 402.508 477.584 398.282C477.584 395.674 478.335 393.404 479.86 391.448C481.386 389.491 483.468 388.115 486.156 387.318C489.642 386.328 494.994 385.772 502.258 385.652C502.258 381.57 502.064 379.397 501.701 379.155C501.386 378.914 500.393 378.793 498.723 378.793C497.657 378.793 496.204 378.865 494.34 378.986C491.362 379.107 487.318 379.445 482.233 380C481.725 376.668 481.361 373.069 481.119 369.229C484.412 368.553 487.851 367.974 491.458 367.515C495.066 367.056 498.287 366.814 501.144 366.814C506.108 366.814 509.837 367.635 512.306 369.278C514.776 370.92 516.399 373.069 517.149 375.726C517.9 378.382 518.239 381.763 518.166 385.845L518.069 399.49L518.336 410.454H505.115H505.139ZM502.258 393.355H501.507C496.907 393.355 494.364 393.597 493.88 394.104C493.565 394.418 493.347 394.877 493.178 395.505C493.032 396.133 492.936 396.712 492.936 397.268C492.936 398.765 493.275 399.779 493.952 400.335C494.63 400.89 495.696 401.18 497.124 401.18C498.747 401.18 500.442 400.866 502.234 400.262H502.258V393.355Z" fill="#333333"/>
<path d="M525.624 354.739L541.557 354.087V410.454H525.624V354.739Z" fill="#333333"/>
<path d="M250 435.811V517.753H332.157V435.811H250ZM283.536 490.946L280.751 502.563H263.608L280.751 449.625H302.64L319.033 502.563H301.817L299.033 490.946H283.536ZM291.163 461.048L285.667 480.634H296.757L291.551 461.048H291.163Z" fill="#74C7D3"/>
<path d="M380.197 458.247C383.369 458.658 387.049 459.189 391.287 459.865V496.815C391.287 505.678 388.333 512.537 382.449 517.439C381.698 518.067 380.027 518.574 377.412 519.009C374.797 519.444 371.867 519.661 368.574 519.661C361.431 519.661 355.789 518.743 351.625 516.884C351.552 515.531 351.673 513.72 351.939 511.498C352.206 509.276 352.521 507.513 352.835 506.209C357.315 506.885 361.673 507.224 365.959 507.224C368.138 507.224 369.979 507.127 371.504 506.91C373.03 506.692 373.974 506.378 374.337 505.944C374.846 505.436 375.209 503.601 375.451 500.365C375.524 499.495 375.548 498.24 375.548 496.549V494.231C373.998 496.525 372.013 498.167 369.591 499.157C367.17 500.148 364.991 500.655 363.078 500.655C357.872 500.655 353.925 498.94 351.261 495.535C348.598 492.13 347.266 487.155 347.266 480.586C347.266 476.263 347.872 472.182 349.082 468.366C350.293 464.55 351.964 461.918 354.07 460.42C355.426 459.503 357.654 458.802 360.729 458.319C363.804 457.861 367.267 457.619 371.117 457.619C374.022 457.619 377.073 457.812 380.245 458.223H380.197V458.247ZM375.354 487.928V468.511C374.676 468.39 373.635 468.269 372.279 468.149C371.649 468.076 370.729 468.052 369.494 468.052C367.581 468.052 366.371 468.245 365.862 468.607C365.184 469.115 364.627 470.491 364.24 472.737C363.828 475.007 363.635 477.374 363.635 479.837C363.635 483.242 364.022 485.633 364.797 486.986C365.572 488.338 367.025 489.038 369.131 489.038C371.431 489.038 373.514 488.676 375.378 487.928H375.354Z" fill="#74C7D3"/>
<path d="M433.443 489.497C434 489.497 435.016 489.425 436.518 489.304L437.922 498.868C433.152 501.089 426.929 502.2 419.302 502.2C412.159 502.2 406.687 500.413 402.861 496.815C399.035 493.216 397.122 487.807 397.122 480.562C397.122 476.843 397.606 473.268 398.575 469.791C399.544 466.313 400.633 463.898 401.892 462.546C403.2 461.193 405.621 460.01 409.156 459.02C412.692 458.03 416.202 457.522 419.689 457.522C425.283 457.522 429.472 458.513 432.256 460.493C435.041 462.473 436.881 465.202 437.753 468.704C438.624 472.206 439.06 476.891 439.06 482.784C434.847 483.025 430.706 483.146 426.687 483.146H413.466C413.466 485.126 413.878 486.623 414.725 487.614C415.573 488.604 416.759 489.232 418.309 489.521C419.859 489.811 422.038 489.932 424.823 489.932C426.372 489.932 429.254 489.787 433.491 489.473H433.443V489.497ZM413.515 471.022C413.321 472.447 413.2 474.065 413.152 475.852H417.994C420.9 475.852 423.031 475.828 424.338 475.756C424.338 472.785 423.927 470.684 423.079 469.453C422.232 468.221 420.803 467.593 418.745 467.593C417.074 467.593 415.597 467.931 414.362 468.607C413.999 468.801 413.708 469.598 413.515 471.022Z" fill="#74C7D3"/>
<path d="M487.318 466.168C487.584 468.897 487.73 473.051 487.73 478.606V501.089H471.797V474.983C471.797 473.003 471.652 471.771 471.337 471.264C470.828 470.636 469.69 470.346 467.899 470.346C467.027 470.346 466.373 470.37 465.937 470.443C464.194 470.515 462.402 470.902 460.538 471.65V501.089H444.605V458.368H457.535L459.303 465.516C463.782 460.131 469.109 457.426 475.308 457.426C477.536 457.426 479.642 457.74 481.604 458.344C483.565 458.971 485.042 459.865 486.035 461.024C486.592 461.7 487.003 463.415 487.294 466.144H487.318V466.168Z" fill="#74C7D3"/>
<path d="M531.12 499.785C526.084 501.452 520.466 502.297 514.268 502.297C507.318 502.297 502.113 500.558 498.674 497.056C495.236 493.555 493.517 488.097 493.517 480.658C493.517 477.012 494.001 473.389 494.994 469.839C495.986 466.289 497.052 463.874 498.166 462.642C499.473 461.217 502.04 460.01 505.841 459.02C509.667 458.03 513.614 457.522 517.706 457.522C521.798 457.522 526.302 457.885 530.66 458.633C530.539 460.179 530.321 461.99 530.055 464.067C529.764 466.144 529.474 467.98 529.159 469.598C525.309 469.356 521.677 469.235 518.263 469.235C514.849 469.235 512.767 469.429 511.846 469.791C511.338 469.984 510.902 471.24 510.49 473.606C510.079 475.973 509.885 478.147 509.885 480.199C509.885 482.928 510.272 485.005 511.047 486.479C511.822 487.928 513.057 488.942 514.728 489.497C516.399 490.053 518.675 490.343 521.532 490.343C522.767 490.343 525.503 490.222 529.716 489.98L531.12 499.834V499.785Z" fill="#74C7D3"/>
<path d="M580.758 458.368L569.596 494.11C567.417 500.993 565.455 505.992 563.736 509.107C561.993 512.223 560.249 514.42 558.53 515.652C557.538 516.328 555.964 516.859 553.833 517.222C551.702 517.584 549.378 517.777 546.884 517.777C543.155 517.777 540.176 517.439 537.949 516.763C537.876 515.266 537.949 513.478 538.142 511.329C538.336 509.204 538.578 507.393 538.893 505.895C541.508 506.016 544.051 506.089 546.52 506.089C548.385 506.089 549.789 506.064 550.709 505.992C551.629 504.205 552.501 502.297 553.324 500.317L546.908 499.954L532.573 458.344H549.426L556.884 488.242L556.981 490.004H557.271L563.978 458.344H580.831H580.758V458.368Z" fill="#74C7D3"/>
<path d="M636.014 436.005L610.977 411.033L595.795 426.2L572.477 350.73L648.145 373.987L632.963 389.153L658 414.125L636.038 436.053V436.005H636.014Z" fill="#333333"/>
</g>
<defs>
<filter id="filter0_dd_207_926" x="0" y="0" width="908" height="769.661" filterUnits="userSpaceOnUse" color-interpolation-filters="sRGB">
<feFlood flood-opacity="0" result="BackgroundImageFix"/>
<feColorMatrix in="SourceAlpha" type="matrix" values="0 0 0 0 0 0 0 0 0 0 0 0 0 0 0 0 0 0 127 0" result="hardAlpha"/>
<feOffset/>
<feGaussianBlur stdDeviation="125"/>
<feComposite in2="hardAlpha" operator="out"/>
<feColorMatrix type="matrix" values="0 0 0 0 1 0 0 0 0 1 0 0 0 0 1 0 0 0 1 0"/>
<feBlend mode="normal" in2="BackgroundImageFix" result="effect1_dropShadow_207_926"/>
<feColorMatrix in="SourceAlpha" type="matrix" values="0 0 0 0 0 0 0 0 0 0 0 0 0 0 0 0 0 0 127 0" result="hardAlpha"/>
<feOffset/>
<feGaussianBlur stdDeviation="125"/>
<feComposite in2="hardAlpha" operator="out"/>
<feColorMatrix type="matrix" values="0 0 0 0 1 0 0 0 0 1 0 0 0 0 1 0 0 0 1 0"/>
<feBlend mode="normal" in2="effect1_dropShadow_207_926" result="effect2_dropShadow_207_926"/>
<feBlend mode="normal" in="SourceGraphic" in2="effect2_dropShadow_207_926" result="shape"/>
</filter>
</defs>
</svg>
