<svg width="350" height="232" viewBox="0 0 350 232" fill="none" xmlns="http://www.w3.org/2000/svg">
<path d="M0 0V70.293H70.4777V0H0ZM55.2938 23.3481H42.4362V58.795H28.0623V23.3481H15.2047V13.3832H55.2938V23.3481Z" fill="#333333"/>
<path d="M114.555 50.0732C115.033 50.0732 115.905 50.011 117.193 49.9074L118.398 58.1114C114.306 60.0173 108.967 60.9703 102.424 60.9703C96.2968 60.9703 91.6024 59.4373 88.3205 56.3504C85.0386 53.2636 83.3976 48.623 83.3976 42.4078C83.3976 39.2174 83.8131 36.1513 84.6439 33.168C85.4748 30.1848 86.4095 28.1131 87.4896 26.9529C88.6113 25.7928 90.6884 24.7776 93.7211 23.9282C96.7537 23.0788 99.7656 22.6438 102.757 22.6438C107.555 22.6438 111.148 23.4932 113.537 25.192C115.926 26.8908 117.504 29.2318 118.252 32.2358C119 35.2397 119.374 39.2588 119.374 44.3138C115.76 44.521 112.208 44.6246 108.76 44.6246H97.4184C97.4184 46.3234 97.7715 47.6078 98.4985 48.4572C99.2255 49.3066 100.243 49.8453 101.573 50.0939C102.902 50.3425 104.772 50.4461 107.16 50.4461C108.49 50.4461 110.961 50.3218 114.596 50.0524H114.555V50.0732ZM97.4599 34.2246C97.2938 35.4469 97.1899 36.8349 97.1484 38.368H101.303C103.795 38.368 105.623 38.3473 106.745 38.2851C106.745 35.7369 106.392 33.9346 105.665 32.878C104.938 31.8214 103.712 31.2828 101.947 31.2828C100.513 31.2828 99.2463 31.5728 98.187 32.1529C97.8754 32.3186 97.6261 33.0023 97.4599 34.2246Z" fill="#333333"/>
<path d="M146.045 60.0381L144.757 55.0245C142.306 59.0022 138.899 60.991 134.537 60.991C130.964 60.991 128.056 59.9966 125.792 58.0078C123.528 56.019 122.407 53.2221 122.407 49.5967C122.407 47.3592 123.05 45.4118 124.359 43.7337C125.668 42.0556 127.454 40.8748 129.76 40.1911C132.751 39.3417 137.341 38.8652 143.573 38.7616C143.573 35.2604 143.407 33.3959 143.095 33.1887C142.825 32.9816 141.973 32.878 140.54 32.878C139.626 32.878 138.38 32.9401 136.78 33.0437C134.226 33.1473 130.757 33.4374 126.395 33.9138C125.958 31.0549 125.647 27.968 125.439 24.674C128.264 24.094 131.214 23.5967 134.309 23.2031C137.404 22.8095 140.166 22.6023 142.617 22.6023C146.875 22.6023 150.074 23.3067 152.193 24.7155C154.312 26.1242 155.703 27.968 156.347 30.2469C156.991 32.5258 157.282 35.4262 157.22 38.9274L157.137 50.6325L157.365 60.0381H146.024H146.045ZM143.573 45.3704H142.929C138.982 45.3704 136.801 45.5775 136.386 46.0126C136.116 46.2819 135.929 46.6756 135.783 47.2142C135.659 47.7528 135.576 48.25 135.576 48.7265C135.576 50.011 135.866 50.8811 136.448 51.3576C137.03 51.8341 137.944 52.0827 139.169 52.0827C140.561 52.0827 142.015 51.8134 143.552 51.2955H143.573V45.3704Z" fill="#333333"/>
<path d="M194.276 58.9193C189.955 60.3488 185.137 61.0739 179.819 61.0739C173.858 61.0739 169.392 59.5823 166.442 56.5783C163.493 53.5743 162.018 48.8923 162.018 42.5114C162.018 39.3831 162.433 36.2756 163.285 33.2302C164.137 30.1848 165.05 28.1131 166.006 27.0565C167.128 25.8342 169.329 24.7983 172.59 23.9489C175.872 23.0995 179.258 22.6645 182.769 22.6645C186.279 22.6645 190.142 22.9752 193.881 23.6175C193.777 24.9433 193.59 26.4971 193.362 28.2788C193.113 30.0605 192.863 31.635 192.593 33.023C189.291 32.8158 186.175 32.7122 183.246 32.7122C180.318 32.7122 178.531 32.878 177.742 33.1887C177.306 33.3545 176.932 34.4318 176.579 36.462C176.226 38.4923 176.059 40.3568 176.059 42.1178C176.059 44.4588 176.392 46.2405 177.056 47.5042C177.721 48.7473 178.78 49.6174 180.214 50.0939C181.647 50.5704 183.599 50.819 186.05 50.819C187.11 50.819 189.457 50.7154 193.071 50.5082L194.276 58.9608V58.9193Z" fill="#333333"/>
<path d="M235.445 30.0812C235.674 32.4222 235.798 35.9855 235.798 40.7505V60.0381H222.131V37.7672C222.131 35.882 222.006 34.7218 221.736 34.3075C221.57 34.1003 221.196 33.9346 220.573 33.831C219.95 33.7274 219.243 33.6652 218.454 33.6652L217.104 33.7481C215.608 33.8103 214.071 34.1417 212.472 34.784V60.0381H198.804V12.2231L212.472 11.6637V20.9864C212.472 24.819 212.347 27.3672 212.077 28.631L212.16 28.7139C215.774 24.6326 220.116 22.5816 225.184 22.5816C227.095 22.5816 228.902 22.8509 230.585 23.3689C232.267 23.9075 233.534 24.674 234.386 25.6684C234.864 26.2485 235.217 27.7194 235.466 30.0605L235.445 30.0812Z" fill="#333333"/>
<path d="M271.837 50.0732C272.315 50.0732 273.187 50.011 274.475 49.9074L275.68 58.1114C271.588 60.0173 266.249 60.9703 259.706 60.9703C253.579 60.9703 248.884 59.4373 245.602 56.3504C242.32 53.2636 240.68 48.623 240.68 42.4078C240.68 39.2174 241.095 36.1513 241.926 33.168C242.757 30.1848 243.691 28.1131 244.771 26.9529C245.893 25.7928 247.97 24.7776 251.003 23.9282C254.036 23.0788 257.047 22.6438 260.039 22.6438C264.837 22.6438 268.43 23.4932 270.819 25.192C273.208 26.8908 274.786 29.2318 275.534 32.2358C276.282 35.2397 276.656 39.2588 276.656 44.3138C273.042 44.521 269.49 44.6246 266.042 44.6246H254.7C254.7 46.3234 255.053 47.6078 255.78 48.4572C256.507 49.3066 257.525 49.8453 258.855 50.0939C260.184 50.3425 262.053 50.4461 264.442 50.4461C265.772 50.4461 268.243 50.3218 271.878 50.0524H271.837V50.0732ZM254.742 34.2246C254.576 35.4469 254.472 36.8349 254.43 38.368H258.585C261.077 38.368 262.905 38.3473 264.027 38.2851C264.027 35.7369 263.674 33.9346 262.947 32.878C262.22 31.8214 260.994 31.2828 259.228 31.2828C257.795 31.2828 256.528 31.5728 255.469 32.1529C255.157 32.3186 254.908 33.0023 254.742 34.2246Z" fill="#333333"/>
<path d="M306.38 22.8302C307.148 22.9959 307.73 23.1824 308.104 23.3896C308.104 24.5497 307.979 26.4764 307.709 29.1696C307.439 31.8421 307.211 33.7481 306.982 34.8668C306.442 34.8047 305.466 34.784 304.033 34.784C300.668 34.784 297.697 34.9704 295.08 35.3433V60.0381H281.412V23.3896H292.837L294.436 29.2939H294.519C296.056 27.2844 297.718 25.6477 299.463 24.4254C301.228 23.2031 302.786 22.6023 304.178 22.6023C304.863 22.6023 305.611 22.6852 306.38 22.8509V22.8302Z" fill="#333333"/>
<path d="M32.3205 109.676C31.7389 110.111 31.2611 111.313 30.9288 113.302C30.5757 115.291 30.4095 117.383 30.4095 119.558C30.4095 122.79 30.908 124.945 31.8843 126.001C32.8605 127.058 34.2522 127.596 35.997 127.596C37.4303 127.596 38.9258 127.348 40.4629 126.871V109.593C38.9258 109.386 37.2225 109.283 35.3531 109.283C33.7537 109.283 32.7359 109.407 32.3205 109.676Z" fill="#333333"/>
<path d="M0 79.6986V149.992H70.4777V79.6986H0ZM54.1306 137.644H42.8724L41.7507 131.512C40.6914 133.584 39.1128 135.22 37.0356 136.443C34.9585 137.665 32.6113 138.266 30.0148 138.266C25.8605 138.266 22.5371 136.774 20.0653 133.812C17.5935 130.828 16.3472 126.374 16.3472 120.428C16.3472 115.912 16.8872 112.204 17.9466 109.283C19.0059 106.361 20.2522 104.269 21.7062 102.985C22.6202 102.197 24.4688 101.534 27.2522 100.996C30.0564 100.457 32.5282 100.208 34.73 100.208C36.6409 100.208 38.6142 100.395 40.6498 100.768C40.4837 98.2197 40.4006 96.8109 40.4006 96.5416V89.85L54.1306 89.2906V137.644Z" fill="#333333"/>
<path d="M83.4184 100.996H97.0861V137.644H83.4184V100.996ZM85.6202 94.6148C84.3116 93.3925 83.6677 91.9423 83.6677 90.2435C83.6677 88.5447 84.3116 87.0945 85.6202 85.8515C86.9288 84.6292 88.4867 84.0284 90.2938 84.0284C92.1009 84.0284 93.6588 84.6292 94.9258 85.8515C96.2137 87.0738 96.8368 88.524 96.8368 90.2435C96.8368 91.963 96.1929 93.4132 94.9258 94.6148C93.6588 95.8371 92.1009 96.4379 90.2938 96.4379C88.4867 96.4379 86.9288 95.8371 85.6202 94.6148Z" fill="#333333"/>
<path d="M130.861 100.871C133.582 101.224 136.739 101.679 140.374 102.259V133.957C140.374 141.56 137.84 147.443 132.792 151.649C132.148 152.188 130.715 152.623 128.472 152.995C126.228 153.368 123.715 153.555 120.89 153.555C114.763 153.555 109.923 152.768 106.35 151.172C106.288 150.012 106.392 148.458 106.62 146.552C106.849 144.647 107.119 143.134 107.389 142.015C111.231 142.596 114.97 142.886 118.647 142.886C120.516 142.886 122.095 142.803 123.404 142.616C124.712 142.43 125.522 142.16 125.834 141.788C126.27 141.353 126.582 139.778 126.789 137.002C126.852 136.256 126.872 135.179 126.872 133.729V131.74C125.543 133.708 123.84 135.117 121.763 135.966C119.685 136.815 117.816 137.251 116.175 137.251C111.709 137.251 108.323 135.78 106.039 132.859C103.754 129.937 102.611 125.67 102.611 120.035C102.611 116.326 103.131 112.825 104.169 109.552C105.208 106.279 106.641 104.02 108.448 102.736C109.611 101.949 111.522 101.348 114.16 100.934C116.798 100.54 119.769 100.333 123.071 100.333C125.564 100.333 128.181 100.498 130.902 100.851H130.861V100.871ZM126.706 126.333V109.676C126.125 109.573 125.231 109.469 124.068 109.365C123.528 109.303 122.739 109.282 121.68 109.282C120.039 109.282 119 109.448 118.564 109.759C117.982 110.194 117.504 111.375 117.172 113.302C116.819 115.249 116.653 117.279 116.653 119.392C116.653 122.314 116.985 124.365 117.65 125.525C118.315 126.685 119.561 127.286 121.368 127.286C123.341 127.286 125.128 126.975 126.727 126.333H126.706Z" fill="#333333"/>
<path d="M147.062 100.996H160.73V137.644H147.062V100.996ZM149.264 94.6148C147.955 93.3925 147.312 91.9423 147.312 90.2435C147.312 88.5447 147.955 87.0945 149.264 85.8515C150.573 84.6292 152.131 84.0284 153.938 84.0284C155.745 84.0284 157.303 84.6292 158.57 85.8515C159.858 87.0738 160.481 88.524 160.481 90.2435C160.481 91.963 159.837 93.4132 158.57 94.6148C157.303 95.8371 155.745 96.4379 153.938 96.4379C152.131 96.4379 150.573 95.8371 149.264 94.6148Z" fill="#333333"/>
<path d="M184.451 122.583C184.451 123.536 184.472 124.53 184.534 125.566C184.596 126.602 184.742 127.244 185.012 127.514C185.386 127.886 186.694 128.073 188.917 128.073L191.638 127.99C192.116 130.538 192.365 133.48 192.365 136.836C191.347 137.209 189.872 137.561 187.941 137.872C185.988 138.183 184.139 138.349 182.395 138.349C178.718 138.349 175.893 137.541 173.878 135.925C171.884 134.309 170.887 131.802 170.887 128.404V108.806H164.905V101.555L170.887 100.996L174.481 92.2323L184.472 91.673V100.996H192.947V108.806H184.472V122.583H184.451Z" fill="#333333"/>
<path d="M218.869 137.644L217.582 132.631C215.131 136.608 211.724 138.597 207.362 138.597C203.789 138.597 200.881 137.603 198.617 135.614C196.353 133.625 195.231 130.828 195.231 127.203C195.231 124.965 195.875 123.018 197.184 121.34C198.493 119.662 200.279 118.481 202.585 117.797C205.576 116.948 210.166 116.471 216.398 116.368C216.398 112.867 216.231 111.002 215.92 110.795C215.65 110.588 214.798 110.484 213.365 110.484C212.451 110.484 211.205 110.546 209.605 110.65C207.05 110.753 203.582 111.043 199.22 111.52C198.783 108.661 198.472 105.574 198.264 102.28C201.089 101.7 204.039 101.203 207.134 100.809C210.228 100.416 212.991 100.208 215.442 100.208C219.7 100.208 222.899 100.913 225.018 102.322C227.136 103.73 228.528 105.574 229.172 107.853C229.816 110.132 230.107 113.032 230.044 116.533L229.961 128.239L230.19 137.644H218.849H218.869ZM216.398 122.976H215.754C211.807 122.976 209.626 123.184 209.211 123.619C208.941 123.888 208.754 124.282 208.608 124.82C208.484 125.359 208.401 125.856 208.401 126.333C208.401 127.617 208.691 128.487 209.273 128.964C209.855 129.44 210.769 129.689 211.994 129.689C213.386 129.689 214.84 129.419 216.377 128.902H216.398V122.976Z" fill="#333333"/>
<path d="M236.442 89.8499L250.11 89.2905V137.644H236.442V89.8499Z" fill="#333333"/>
<path d="M0 159.397V229.69H70.4777V159.397H0ZM28.7685 206.694L26.3798 216.659H11.6736L26.3798 171.247H45.1573L59.2196 216.659H44.451L42.0623 206.694H28.7685ZM35.3116 181.046L30.5964 197.848H40.1098L35.6439 181.046H35.3116Z" fill="#333333"/>
<path d="M111.688 178.643C114.409 178.995 117.567 179.451 121.202 180.031V211.728C121.202 219.332 118.668 225.215 113.62 229.421C112.976 229.959 111.543 230.394 109.3 230.767C107.056 231.14 104.543 231.327 101.718 231.327C95.5905 231.327 90.7507 230.54 87.178 228.944C87.1157 227.784 87.2196 226.23 87.4481 224.324C87.6766 222.418 87.9466 220.906 88.2166 219.787C92.0593 220.367 95.7982 220.657 99.4748 220.657C101.344 220.657 102.923 220.575 104.231 220.388C105.54 220.202 106.35 219.932 106.662 219.559C107.098 219.124 107.409 217.55 107.617 214.774C107.68 214.028 107.7 212.951 107.7 211.501V209.512C106.371 211.48 104.668 212.889 102.59 213.738C100.513 214.587 98.6439 215.022 97.003 215.022C92.5371 215.022 89.1513 213.551 86.8665 210.63C84.5816 207.709 83.4392 203.442 83.4392 197.807C83.4392 194.098 83.9585 190.597 84.997 187.324C86.0356 184.05 87.4688 181.792 89.276 180.508C90.4392 179.721 92.3501 179.12 94.9881 178.705C97.6261 178.312 100.596 178.105 103.899 178.105C106.392 178.105 109.009 178.27 111.73 178.623H111.688V178.643ZM107.534 204.105V187.448C106.953 187.344 106.059 187.241 104.896 187.137C104.356 187.075 103.567 187.054 102.507 187.054C100.866 187.054 99.8279 187.22 99.3917 187.531C98.8101 187.966 98.3323 189.147 98 191.073C97.6469 193.021 97.4807 195.051 97.4807 197.164C97.4807 200.085 97.8131 202.136 98.4777 203.297C99.1424 204.457 100.389 205.058 102.196 205.058C104.169 205.058 105.955 204.747 107.555 204.105H107.534Z" fill="#333333"/>
<path d="M157.365 205.451C157.843 205.451 158.715 205.389 160.003 205.285L161.208 213.489C157.116 215.395 151.777 216.348 145.234 216.348C139.107 216.348 134.412 214.815 131.131 211.728C127.849 208.642 126.208 204.001 126.208 197.786C126.208 194.595 126.623 191.529 127.454 188.546C128.285 185.563 129.22 183.491 130.3 182.331C131.421 181.171 133.499 180.156 136.531 179.306C139.564 178.457 142.576 178.022 145.567 178.022C150.365 178.022 153.958 178.871 156.347 180.57C158.736 182.269 160.315 184.61 161.062 187.614C161.81 190.618 162.184 194.637 162.184 199.692C158.57 199.899 155.018 200.003 151.57 200.003H140.228C140.228 201.701 140.582 202.986 141.309 203.835C142.036 204.685 143.053 205.223 144.383 205.472C145.712 205.72 147.582 205.824 149.97 205.824C151.3 205.824 153.771 205.7 157.407 205.43H157.365V205.451ZM140.27 189.603C140.104 190.825 140 192.213 139.958 193.746H144.113C146.605 193.746 148.433 193.725 149.555 193.663C149.555 191.115 149.202 189.313 148.475 188.256C147.748 187.199 146.522 186.661 144.757 186.661C143.323 186.661 142.056 186.951 140.997 187.531C140.685 187.697 140.436 188.38 140.27 189.603Z" fill="#333333"/>
<path d="M203.582 185.438C203.81 187.779 203.935 191.343 203.935 196.108V215.395H190.267V193C190.267 191.301 190.142 190.245 189.872 189.81C189.436 189.271 188.46 189.022 186.923 189.022C186.175 189.022 185.614 189.043 185.24 189.105C183.745 189.168 182.208 189.499 180.608 190.141V215.395H166.941V178.747H178.033L179.549 184.879C183.392 180.259 187.961 177.939 193.279 177.939C195.19 177.939 196.997 178.208 198.68 178.726C200.362 179.265 201.629 180.031 202.481 181.026C202.958 181.606 203.312 183.077 203.561 185.418H203.582V185.438Z" fill="#333333"/>
<path d="M241.157 214.277C236.837 215.706 232.018 216.431 226.7 216.431C220.739 216.431 216.273 214.94 213.323 211.936C210.374 208.932 208.899 204.25 208.899 197.869C208.899 194.74 209.315 191.633 210.166 188.587C211.018 185.542 211.932 183.47 212.887 182.414C214.009 181.191 216.211 180.156 219.472 179.306C222.754 178.457 226.139 178.022 229.65 178.022C233.16 178.022 237.024 178.332 240.763 178.975C240.659 180.301 240.472 181.854 240.243 183.636C239.994 185.418 239.745 186.992 239.475 188.38C236.172 188.173 233.056 188.07 230.128 188.07C227.199 188.07 225.412 188.235 224.623 188.546C224.187 188.712 223.813 189.789 223.46 191.819C223.107 193.85 222.941 195.714 222.941 197.475C222.941 199.816 223.273 201.598 223.938 202.861C224.602 204.105 225.662 204.975 227.095 205.451C228.528 205.928 230.481 206.176 232.932 206.176C233.991 206.176 236.338 206.073 239.953 205.865L241.157 214.318V214.277Z" fill="#333333"/>
<path d="M283.739 178.747L274.163 209.408C272.294 215.312 270.611 219.601 269.137 222.273C267.641 224.946 266.145 226.831 264.671 227.888C263.819 228.468 262.469 228.924 260.641 229.234C258.813 229.545 256.819 229.711 254.68 229.711C251.481 229.711 248.926 229.421 247.015 228.841C246.953 227.556 247.015 226.023 247.181 224.179C247.347 222.356 247.555 220.802 247.825 219.518C250.068 219.622 252.249 219.684 254.368 219.684C255.967 219.684 257.172 219.663 257.961 219.601C258.751 218.068 259.499 216.431 260.205 214.732L254.7 214.422L242.404 178.726H256.861L263.258 204.374L263.341 205.886H263.591L269.344 178.726H283.801H283.739V178.747Z" fill="#333333"/>
<path d="M331.139 159.563L309.662 138.141L296.638 151.152L276.635 86.4109L341.546 106.361L328.522 119.372L350 140.793L331.16 159.604V159.563H331.139Z" fill="#333333"/>
</svg>
