<svg width="23" height="24" viewBox="0 0 23 24" fill="none" xmlns="http://www.w3.org/2000/svg">
<path fill-rule="evenodd" clip-rule="evenodd" d="M15.6399 17.4945C13.9888 18.8457 11.8781 19.6563 9.57816 19.6563C4.28829 19.6563 0 15.368 0 10.0782C0 4.78829 4.28829 0.5 9.57816 0.5C14.868 0.5 19.1563 4.78829 19.1563 10.0782C19.1563 12.3781 18.3457 14.4888 16.9945 16.1399L22.7195 21.8649C23.0935 22.239 23.0935 22.8454 22.7195 23.2195C22.3454 23.5935 21.739 23.5935 21.3649 23.2195L15.6399 17.4945ZM17.2407 10.0782C17.2407 14.3101 13.8101 17.7407 9.57816 17.7407C5.34626 17.7407 1.91563 14.3101 1.91563 10.0782C1.91563 5.84626 5.34626 2.41563 9.57816 2.41563C13.8101 2.41563 17.2407 5.84626 17.2407 10.0782Z" fill="#333333" fill-opacity="0.41"/>
</svg>
