<svg width="20" height="21" viewBox="0 0 20 21" fill="none" xmlns="http://www.w3.org/2000/svg">
<path d="M10 0.461548C4.47724 0.461548 0 4.93856 0 10.4615C0 15.9841 4.47724 20.4615 10 20.4615C15.5228 20.4615 20 15.9841 20 10.4615C20 4.93856 15.5228 0.461548 10 0.461548ZM10.7968 15.8779V17.6834H9.06207V16.0018C7.87609 15.9487 6.72552 15.6303 6.05287 15.2406L6.58414 13.1696C7.32736 13.5767 8.37172 13.9487 9.5223 13.9487C10.5313 13.9487 11.2216 13.5592 11.2216 12.8512C11.2216 12.1786 10.6552 11.754 9.34529 11.3114C7.45149 10.6744 6.15931 9.78913 6.15931 8.07212C6.15931 6.51465 7.25678 5.29327 9.1508 4.92155V3.24017H10.8855V4.79764C12.0713 4.85074 12.8678 5.09879 13.452 5.38178L12.9389 7.38178C12.4786 7.18707 11.6644 6.78017 10.3899 6.78017C9.23931 6.78017 8.86782 7.2758 8.86782 7.77143C8.86782 8.35557 9.48713 8.72707 10.9917 9.29373C13.0979 10.037 13.9476 11.0107 13.9476 12.6034C13.9474 14.1783 12.8322 15.5236 10.7968 15.8779Z" fill="#333333"/>
</svg>
