<svg width="68" height="51" viewBox="0 0 68 51" fill="none" xmlns="http://www.w3.org/2000/svg">
<path d="M2.9513 40.4112V2.46275C2.9513 0.331429 2.98405 0.30957 5.09151 0.30957H63.1504C64.9193 0.30957 65.0395 0.440728 65.0395 2.24415C65.0395 14.5184 65.0613 26.7926 65.0613 39.0668C65.0613 39.8866 64.963 40.6298 66.1532 40.7937C66.5136 40.8375 67.0268 41.5916 67.0486 42.0397C67.136 43.4278 67.1797 44.8596 66.9504 46.2259C66.5573 48.6304 64.5481 50.2371 62.124 50.2809C60.082 50.3246 58.0401 50.2809 55.9981 50.2809H6.82772C2.79843 50.2809 0.898438 48.3463 0.898438 44.2804V42.9579C0.909357 41.1544 1.09498 40.903 2.94037 40.4112H2.9513ZM33.9626 40.5642H61.6107C62.6481 40.5642 63.1613 40.0287 63.1613 38.9685V3.70875C63.1613 2.67042 62.6372 2.14578 61.578 2.14578C43.1459 2.14578 24.7138 2.14579 6.28174 2.113C5.0806 2.113 4.82945 2.50647 4.82945 3.62132C4.86221 15.4583 4.86221 27.2844 4.82945 39.1215C4.82945 40.3019 5.17887 40.597 6.32542 40.5861C15.5415 40.5424 24.7575 40.5642 33.9735 40.5642H33.9626ZM34.0391 48.4119H60.8573C61.4142 48.4119 61.982 48.4119 62.5389 48.3244C63.9803 48.1058 65.0831 46.9363 65.2032 45.4826C65.2578 44.805 65.2033 44.1164 65.2469 43.4388C65.2906 42.7174 65.0176 42.4442 64.2751 42.4551C58.3021 42.4769 52.3292 42.4879 46.3562 42.4551C45.5919 42.4551 45.3189 42.7065 45.2534 43.4825C45.0568 45.8761 43.5499 47.2642 41.1367 47.2861C36.4086 47.3189 31.6804 47.3189 26.9414 47.2861C24.55 47.2861 22.9885 45.9089 22.7592 43.5262C22.6719 42.5644 22.2569 42.4442 21.4707 42.4551C18.8282 42.4879 16.1748 42.4551 13.5323 42.4551C10.3219 42.4551 7.12253 42.4332 3.91221 42.4551C3.53003 42.4551 2.87486 42.7174 2.79842 42.9906C1.89211 46.0401 3.69382 48.3791 6.86047 48.3791H34.0391V48.4119ZM34.0609 42.4879C31.3856 42.4879 28.6994 42.4879 26.0242 42.4879C25.5765 42.4879 24.7684 42.6409 24.7575 42.7939C24.7029 43.3513 24.7247 44.0946 25.0632 44.4552C25.5 44.9252 26.2535 45.3515 26.8759 45.3624C31.6368 45.4389 36.3977 45.428 41.1586 45.3624C41.7591 45.3624 42.5016 44.9908 42.9166 44.5536C43.266 44.182 43.3643 43.4497 43.3097 42.8923C43.2988 42.7174 42.4471 42.5097 41.9884 42.4988C39.3459 42.466 36.7034 42.4769 34.0718 42.4988H34.0609V42.4879Z" fill="#333333"/>
<path d="M34.039 4.49561H58.9245C60.4423 4.49561 60.6607 4.70327 60.6607 6.23345V36.4436C60.6607 38.0612 60.4751 38.2361 58.859 38.247H8.96792C7.61391 38.247 7.35184 38.0065 7.35184 36.6294V6.1788C7.35184 4.7142 7.58114 4.50654 9.02252 4.50654H34.039V4.49561ZM34.1046 6.37554C26.2971 6.37554 18.4788 6.38647 10.6714 6.35368C9.63401 6.35368 9.19723 6.56135 9.20815 7.74177C9.26275 16.8026 9.25183 25.8635 9.20815 34.9243C9.20815 36.1047 9.59033 36.3889 10.726 36.3889C26.2644 36.3561 41.8137 36.3561 57.3521 36.3889C58.4222 36.3889 58.7935 36.1375 58.7935 34.9899C58.7498 25.929 58.7498 16.8682 58.7935 7.80735C58.7935 6.63786 58.4332 6.34275 57.2975 6.34275C49.5665 6.38647 41.8356 6.36461 34.1046 6.37554Z" fill="#333333"/>
<path d="M37.7298 32.9351V29.361C37.7298 28.6943 37.7844 27.962 38.6689 27.973C39.5315 27.973 39.608 28.7052 39.6189 29.372C39.6407 30.2901 39.6517 31.2191 39.6298 32.1372C39.608 33.1318 40.3287 32.9242 40.8965 32.9242C41.4643 32.9242 42.1741 33.11 42.1631 32.1263C42.1413 29.9185 42.2396 27.7106 42.0976 25.5137C41.9666 23.5354 40.7982 22.202 38.8873 21.579C38.7017 21.5134 38.4396 21.5353 38.3195 21.415C37.9701 21.0653 37.3913 20.6281 37.4132 20.2674C37.4787 19.5242 38.1557 19.4805 38.8109 19.6007C41.6172 20.0925 43.9212 22.6392 44.0195 25.5793C44.1068 28.2243 44.0195 30.8694 44.0522 33.5253C44.0522 34.6402 43.408 34.8478 42.4907 34.8478H28.3063C27.3454 34.8478 26.3845 34.826 25.4236 34.8478C24.4845 34.8697 24.004 34.4871 24.015 33.5035C24.0368 30.8584 23.9713 28.2025 24.0477 25.5574C24.1351 22.6392 26.3081 20.1909 29.1362 19.6335C29.8241 19.5023 30.4902 19.4586 30.6649 20.3111C30.8287 21.0981 30.2172 21.3057 29.5948 21.4806C27.127 22.1583 25.8931 23.7212 25.8604 26.2679C25.8385 28.1478 25.904 30.0387 25.8385 31.9186C25.8058 32.957 26.3845 32.9679 27.1379 32.957C27.8586 32.957 28.5247 33.0007 28.4374 31.9296C28.3718 31.1317 28.4264 30.3229 28.4374 29.525C28.4374 28.8364 28.3937 28.0057 29.3437 27.9948C30.3701 27.9948 30.3155 28.8583 30.3264 29.5906C30.3264 30.4322 30.2827 31.2847 30.3592 32.1154C30.3919 32.4105 30.6977 32.7384 30.9707 32.9132C31.1672 33.0444 31.5166 32.946 31.8006 32.946H37.7517H37.7298V32.9351Z" fill="#333333"/>
<path d="M34.0609 18.2893C31.3529 18.3111 29.1362 16.147 29.1144 13.4583C29.0925 10.7258 31.2109 8.52892 33.9189 8.47427C36.6816 8.43055 38.9528 10.6384 38.931 13.3708C38.9091 16.1033 36.7689 18.2674 34.0609 18.2893ZM31.0034 13.3708C30.9816 15.0322 32.3902 16.4421 34.0609 16.4203C35.6551 16.3984 37.0419 14.9994 37.0419 13.4036C37.0419 11.8079 35.7097 10.4089 34.0937 10.3542C32.4339 10.2996 31.0253 11.6767 31.0034 13.3708Z" fill="#333333"/>
</svg>
