<svg width="18" height="19" viewBox="0 0 18 19" fill="none" xmlns="http://www.w3.org/2000/svg">
<path d="M0.0499286 6.07994C-0.233289 3.95782 0.663532 1.36287 3.37831 1.25976C3.64345 1.20354 3.89757 1.16886 4.1438 1.30017C5.86659 2.17989 6.98263 5.44912 5.93661 7.02675C5.80861 7.19217 5.63428 7.27412 5.42067 7.31662C4.20884 7.54074 4.0665 8.88377 4.68219 9.69984C5.61038 11.1471 6.71229 12.4707 7.99934 13.6647C8.71268 14.4188 10.0679 14.2132 10.6023 13.3748C10.7361 13.1707 10.961 13.1023 11.197 13.0661C12.9321 12.9289 14.5591 13.9094 15.6385 15.0889C16.0227 15.5514 16.4437 16.1617 16.1802 16.7582C15.8991 17.3764 15.5087 17.9183 14.9254 18.3313C13.1488 19.515 10.7418 18.8237 8.97782 17.9573C4.31606 15.5036 0.764518 10.9998 0.0499286 6.07994Z" fill="#333333"/>
<path d="M17.9589 9.51822C17.8993 9.89309 17.8506 10.271 17.7499 10.6388C17.5408 11.4435 16.2062 11.2996 16.2257 10.4643C17.045 7.47042 15.4679 4.17737 12.3922 2.85016C11.9218 2.63557 11.4272 2.4791 10.9159 2.36685C10.2707 2.26565 10.0631 1.43224 10.6141 1.09796C10.819 0.957121 11.0505 0.933108 11.2971 0.990092C15.4399 1.84809 18.3867 5.6519 17.9589 9.51822Z" fill="#333333"/>
<path d="M14.7386 9.62303C14.7286 9.9556 14.6725 10.2826 14.5852 10.6047C14.3124 11.5193 12.8454 11.1561 13.0894 10.2396C13.6095 8.10334 12.2054 6.014 9.88961 5.47961C8.84297 5.25263 9.22468 3.85624 10.237 4.09751C12.9516 4.67307 14.9133 7.0721 14.7386 9.62303Z" fill="#333333"/>
<path d="M11.8146 9.88624C11.9229 11.258 10.1001 11.2672 10.2389 10.0601C10.5197 8.15615 8.52322 8.81117 8.53527 7.69075C8.55231 7.36981 8.82057 7.08927 9.17485 7.03381C10.7466 7.09137 11.9112 8.48071 11.8146 9.88624Z" fill="#333333"/>
</svg>
