<svg width="18" height="18" viewBox="0 0 18 18" fill="none" xmlns="http://www.w3.org/2000/svg">
<path d="M0.0498066 5.11842C-0.233411 2.9963 0.66341 0.401351 3.37818 0.298247C3.64332 0.242026 3.89745 0.20734 4.14368 0.33865C5.86647 1.21837 6.9825 4.4876 5.93649 6.06523C5.80849 6.23065 5.63416 6.3126 5.42055 6.3551C4.20872 6.57923 4.06638 7.92225 4.68206 8.73832C5.61026 10.1856 6.71217 11.5092 7.99922 12.7032C8.71256 13.4573 10.0678 13.2517 10.6022 12.4133C10.736 12.2092 10.9608 12.1408 11.1969 12.1046C12.9319 11.9673 14.5589 12.9479 15.6384 14.1274C16.0226 14.5899 16.4436 15.2002 16.1801 15.7967C15.899 16.4149 15.5085 16.9567 14.9253 17.3697C13.1487 18.5534 10.7416 17.8622 8.9777 16.9958C4.31594 14.5421 0.764396 10.0383 0.0498066 5.11842Z" fill="#00384D"/>
<path d="M17.9588 8.5567C17.8991 8.93157 17.8505 9.30949 17.7497 9.67731C17.5407 10.4819 16.2061 10.3381 16.2256 9.50274C17.0449 6.5089 15.4678 3.21585 12.3921 1.88865C11.9216 1.67405 11.4271 1.51758 10.9157 1.40533C10.2705 1.30413 10.063 0.470722 10.614 0.136443C10.8189 -0.00439633 11.0504 -0.0284096 11.297 0.0285742C15.4397 0.88657 18.3866 4.69038 17.9588 8.5567Z" fill="#00384D"/>
<path d="M14.7385 8.66151C14.7285 8.99408 14.6724 9.32111 14.5851 9.6432C14.3123 10.5578 12.8453 10.1945 13.0892 9.27804C13.6093 7.14182 12.2053 5.05248 9.88948 4.51809C8.84285 4.29111 9.22456 2.89472 10.2369 3.136C12.9515 3.71155 14.9132 6.11059 14.7385 8.66151Z" fill="#00384D"/>
<path d="M11.8145 8.92472C11.9227 10.2965 10.1 10.3057 10.2388 9.09853C10.5195 7.19463 8.5231 7.84966 8.53515 6.72923C8.55219 6.40829 8.82045 6.12776 9.17473 6.0723C10.7464 6.12985 11.9111 7.51919 11.8145 8.92472Z" fill="#00384D"/>
</svg>
