<svg width="15" height="21" viewBox="0 0 15 21" fill="none" xmlns="http://www.w3.org/2000/svg">
<path d="M13.8572 4.1272C13.1356 2.93165 12.0999 1.9397 10.8865 1.30287C9.62542 0.642354 8.18901 0.353528 6.7822 0.497941C5.40042 0.639987 4.071 1.16792 2.96695 2.0486C1.8629 2.92692 1.0138 4.09406 0.503886 5.43876C-0.00147481 6.77398 -0.117571 8.23705 0.114622 9.64567C0.335433 10.988 0.861281 12.2711 1.50323 13.4501C2.14517 14.6291 2.9237 15.7276 3.76369 16.7598C4.44661 17.6002 5.17733 18.3957 5.94448 19.1532C6.34968 19.5533 6.76626 19.944 7.19878 20.3133C7.21699 20.3299 7.23748 20.3464 7.25569 20.363C7.41276 20.4932 7.58121 20.4956 7.73828 20.363C7.98414 20.157 8.22316 19.9369 8.45763 19.7167C9.05632 19.158 9.63225 18.5709 10.1831 17.9648C10.9366 17.1362 11.6446 16.265 12.2934 15.3464C12.9854 14.3663 13.6068 13.327 14.0872 12.2167C14.5675 11.104 14.9135 9.92503 14.9863 8.70107C14.9954 8.55665 14.9977 8.41224 15 8.26783V8.26546C14.9954 6.8095 14.6039 5.36063 13.8572 4.1272ZM9.75973 8.26783C9.75973 8.27493 9.75973 8.27967 9.75973 8.28677C9.74152 9.36868 8.99713 10.3535 7.96365 10.569C7.02577 10.7631 6.0583 10.3346 5.55977 9.47995C5.05896 8.62057 5.16368 7.52209 5.7692 6.75031C6.35196 6.00694 7.39455 5.71338 8.25958 6.04955C9.15193 6.3952 9.75062 7.26641 9.762 8.25836V8.26783H9.75973Z" fill="#333333"/>
</svg>
