<svg width="60" height="58" viewBox="0 0 60 58" fill="none" xmlns="http://www.w3.org/2000/svg">
<path d="M33.8844 42.7004C33.8844 45.575 33.8626 48.4605 33.9281 51.335C33.9281 51.6083 34.485 52.0673 34.8017 52.0892C36.2431 52.1766 37.6844 52.111 39.1258 52.1329C40.9494 52.1547 41.9321 53.0729 41.943 54.6905C41.943 56.2972 40.9603 57.2699 39.1586 57.2699C29.8661 57.2918 20.5627 57.2918 11.2702 57.2699C9.4685 57.2699 8.4639 56.319 8.45298 54.7014C8.45298 53.0947 9.43574 52.1657 11.2484 52.122C12.6897 52.0892 14.1311 52.0892 15.5725 52.122C16.2277 52.122 16.5116 51.8924 16.5116 51.2148C16.4897 46.9631 16.5443 42.7114 16.4461 38.4596C16.4242 37.7164 15.911 36.853 15.365 36.2846C11.1501 31.8361 6.86965 27.4424 2.61106 23.0267C2.27255 22.6769 1.94497 22.3272 1.66107 21.9446C0.459923 20.3379 0.612792 18.5455 2.03232 17.3213C3.37542 16.1737 5.25358 16.2393 6.59668 17.5836C9.08632 20.0866 11.565 22.5895 14.0001 25.1471C17.7345 29.0818 17.7127 29.1037 23.1506 29.1037H29.5167C32.0827 29.1037 34.1028 30.1857 35.5005 32.3171C38.2086 36.4376 40.8729 40.58 43.5263 44.7443C44.662 46.5259 44.247 48.6135 42.6528 49.63C40.9603 50.712 38.9402 50.2202 37.7718 48.3949C36.5488 46.4822 35.3695 44.5366 34.1684 42.6021C34.0701 42.6348 33.9827 42.6676 33.8844 42.7004ZM18.4115 44.6678C18.4115 46.7554 18.4552 48.843 18.3897 50.9197C18.357 51.9034 18.7173 52.1438 19.6455 52.1329C23.2052 52.0892 26.7759 52.1329 30.3465 52.111C32.0063 52.111 32.0172 52.111 32.0172 50.3841C32.0172 46.6898 31.9954 43.0065 32.05 39.3122C32.05 38.8313 32.4431 38.3613 32.6506 37.8913C33.1201 38.1755 33.6988 38.3722 34.0155 38.7657C34.5942 39.4761 35.0092 40.3177 35.4896 41.1047C36.789 43.2251 38.0885 45.3455 39.4097 47.444C39.9339 48.2747 40.72 48.526 41.5827 48.0123C42.4344 47.4986 42.4126 46.7008 42.0304 45.9029C41.8448 45.5094 41.5718 45.1487 41.3315 44.7771C38.9839 41.1375 36.6143 37.5197 34.2994 33.8582C33.0764 31.9236 31.4276 30.9399 29.1236 30.9727C26.2408 31.0164 23.3581 30.9508 20.4753 30.9946C18.1276 31.0273 16.2058 30.1748 14.5897 28.4807C11.7397 25.4968 8.83517 22.5567 5.95243 19.6056C4.72945 18.3487 3.95417 18.1301 3.22256 18.8296C2.49096 19.5291 2.6875 20.3598 3.87772 21.5949C8.19091 26.0652 12.4932 30.5464 16.8173 34.9949C17.8874 36.0879 18.4334 37.3339 18.4006 38.875C18.357 40.7986 18.4006 42.7223 18.4006 44.6459V44.6678H18.4115ZM25.3345 54.0128C20.7265 54.0128 16.1185 54.0128 11.5104 54.0565C11.1283 54.0565 10.757 54.5047 10.3857 54.7561C10.757 54.9637 11.1173 55.1932 11.4995 55.3791C11.6305 55.4446 11.8162 55.3791 11.98 55.3791H38.5471C38.8637 55.3791 39.2241 55.4337 39.4971 55.3135C39.7373 55.2042 39.9775 54.8981 40.0103 54.6468C40.0321 54.4719 39.7373 54.1549 39.5189 54.0893C39.1913 53.98 38.8091 54.0238 38.4488 54.0238H25.3454V54.0019L25.3345 54.0128Z" fill="#333333"/>
<path d="M45.3281 29.2237C41.3861 29.2565 41.3752 29.2565 41.3971 25.3546C41.3971 24.5676 41.5936 23.7807 41.681 22.9937C41.8448 21.4635 41.0586 20.305 40.1195 19.2339C38.4379 17.2993 37.7172 15.1024 38.285 12.5557C38.962 9.52814 41.3534 7.33124 44.4108 6.88312C47.3263 6.45685 50.2855 7.94331 51.7815 10.5883C53.2556 13.1896 52.9717 16.414 51.0499 18.8076C50.5803 19.3978 50.078 19.988 49.7068 20.6329C49.1826 21.551 49.0516 22.48 49.27 23.6167C49.543 24.9611 49.4229 26.4038 49.3574 27.8029C49.3246 28.6772 48.6913 29.1582 47.8286 29.2019C46.9878 29.2456 46.147 29.2019 45.3062 29.2019L45.3281 29.2237ZM45.4264 22.3816C46.016 22.1521 46.8459 22.8735 47.3263 21.7477C47.916 20.3378 48.6476 18.9278 49.5867 17.7255C51.6395 15.0696 51.0826 11.2551 48.2545 9.53907C46.0488 8.20563 43.2861 8.56632 41.539 10.4135C39.6718 12.3918 39.508 15.1461 41.0476 17.3539C41.8448 18.4906 42.7948 19.6164 43.2315 20.8952C43.6465 22.1303 44.1269 22.6877 45.4264 22.3816ZM45.3827 27.3438C47.5884 27.3438 47.5666 27.3438 47.5338 25.2016C47.5338 24.6004 47.3591 24.3053 46.7258 24.3272C45.8522 24.36 44.9677 24.3053 44.0942 24.36C43.8321 24.3709 43.4499 24.5567 43.3626 24.7644C42.7183 26.2945 43.4172 27.3438 45.0223 27.3438C45.1424 27.3438 45.2626 27.3438 45.3827 27.3438Z" fill="#333333"/>
<path d="M31.8534 21.2887C31.8207 24.9721 28.8506 27.9341 25.1816 27.945C21.5564 27.945 18.5535 24.9065 18.5535 21.245C18.5535 17.5835 21.5891 14.5887 25.2362 14.5996C28.8833 14.6106 31.8862 17.6491 31.8534 21.2996V21.2887ZM29.9534 21.2887C29.9534 18.6437 27.8678 16.5014 25.269 16.4686C22.6046 16.4359 20.4535 18.589 20.4644 21.2778C20.4644 23.9009 22.5828 26.0104 25.2035 26.0213C27.8132 26.0323 29.9425 23.9119 29.9534 21.2778V21.2887Z" fill="#333333"/>
<path d="M34.354 14.9603C33.7534 14.9603 33.131 15.0587 32.5632 14.9275C32.2247 14.851 31.7005 14.3592 31.7333 14.1406C31.7988 13.769 32.2247 13.2006 32.5413 13.1787C33.7643 13.0694 35.0201 13.0913 36.243 13.1787C36.5379 13.2006 36.9856 13.7362 36.9965 14.0313C36.9965 14.3373 36.5706 14.8291 36.254 14.9057C35.6534 15.0477 34.9873 14.9494 34.354 14.9494V14.9603Z" fill="#333333"/>
<path d="M56.3677 14.9712C55.8108 14.9712 55.2211 15.0805 54.7079 14.9384C54.3366 14.8291 54.0636 14.37 53.7579 14.064C54.0636 13.747 54.3366 13.2005 54.6642 13.1677C55.8108 13.0585 56.9792 13.0366 58.1257 13.1677C58.497 13.2005 58.8027 13.7689 59.1521 14.0968C58.8245 14.3919 58.5406 14.8509 58.1694 14.9493C57.6125 15.0914 56.9791 14.9821 56.3786 14.9821H56.3677V14.9712Z" fill="#333333"/>
<path d="M41.9212 5.9978C41.5608 6.38035 41.3534 6.78475 41.0913 6.82847C40.7637 6.88312 40.2177 6.76289 40.0649 6.52244C39.3769 5.49503 38.7545 4.41298 38.2086 3.30906C38.0775 3.04674 38.2522 2.50025 38.4706 2.25979C38.6453 2.07399 39.3114 2.01934 39.4097 2.16143C40.2833 3.38557 41.0695 4.66436 41.9212 5.9978Z" fill="#333333"/>
<path d="M49.8051 7.09084C49.5976 6.66458 49.1062 6.10716 49.2263 5.83391C49.7723 4.60977 50.4711 3.44027 51.2027 2.3145C51.3338 2.10683 51.9562 2.04125 52.251 2.16148C52.4913 2.25985 52.797 2.83913 52.7096 3.00308C52.0326 4.2928 51.2683 5.53881 50.5148 6.79574C50.4493 6.90504 50.2309 6.91597 49.816 7.09084H49.8051Z" fill="#333333"/>
<path d="M37.2913 10.479C36.0247 9.69203 34.7908 8.95973 33.6224 8.14C33.4477 8.01977 33.4258 7.37491 33.5787 7.17817C33.7752 6.92678 34.3322 6.6754 34.5615 6.79562C35.7408 7.37491 36.8873 8.04163 37.9792 8.763C38.1976 8.90509 38.2632 9.50623 38.1758 9.82319C38.0994 10.0746 37.6735 10.2276 37.3022 10.4899L37.2913 10.479Z" fill="#333333"/>
<path d="M57.405 7.82315C57.2631 7.9871 57.0665 8.34779 56.7608 8.54453C55.8872 9.10195 55.0137 9.68123 54.0637 10.0747C53.6815 10.2277 53.1027 9.93262 52.6223 9.83425C52.7861 9.39705 52.8188 8.77405 53.1355 8.54453C53.9981 7.91059 54.9591 7.39689 55.9091 6.90505C56.6843 6.51157 57.3832 6.88319 57.4159 7.82315H57.405Z" fill="#333333"/>
<path d="M46.2999 2.92658C46.2999 3.56051 46.3982 4.2163 46.2671 4.82837C46.2016 5.15626 45.6884 5.64811 45.47 5.60439C45.1206 5.52788 44.5965 5.10162 44.5746 4.78465C44.4763 3.60423 44.4763 2.39101 44.5746 1.21059C44.6074 0.882692 45.1424 0.598516 45.4373 0.29248C45.7212 0.609446 46.1689 0.882693 46.2671 1.25431C46.4091 1.76801 46.2999 2.35822 46.2999 2.91564V2.92658Z" fill="#333333"/>
</svg>
