<svg width="28" height="28" viewBox="0 0 28 28" fill="none" xmlns="http://www.w3.org/2000/svg">
<path d="M14 25.25C20.0877 25.25 25.0461 20.4146 25.2439 14.375H25.25V14C25.25 13.3787 25.7537 12.875 26.375 12.875C26.9963 12.875 27.5 13.3787 27.5 14V14.375C27.5 14.4262 27.4966 14.4767 27.4899 14.5261C27.2136 21.7381 21.2797 27.5 14 27.5C6.54416 27.5 0.5 21.4558 0.5 14C0.5 6.54416 6.54416 0.5 14 0.5C17.4417 0.5 20.5825 1.7879 22.967 3.90804L25.25 1.625V8.375H18.5L21.3727 5.50234C19.3982 3.7878 16.8203 2.75 14 2.75C7.7868 2.75 2.75 7.7868 2.75 14C2.75 20.2132 7.7868 25.25 14 25.25Z" fill="#333333" fill-opacity="0.41"/>
</svg>
