<svg width="18" height="17" viewBox="0 0 18 17" fill="none" xmlns="http://www.w3.org/2000/svg">
<path d="M14.0031 9.033C14.0031 11.7822 11.7638 13.9983 8.98583 13.9983C6.20787 13.9983 3.9685 11.7822 3.9685 9.033C3.9685 6.28383 6.20787 4.06766 8.98583 4.06766C11.7638 4.06766 14.0031 6.28383 14.0031 9.033ZM10.4032 1.40264C10.4032 2.16007 9.77953 2.80528 8.98583 2.80528C8.19213 2.80528 7.5685 2.18812 7.5685 1.40264C7.5685 0.617162 8.19213 0 8.98583 0C9.77953 0 10.4032 0.617162 10.4032 1.40264ZM16.1575 3.89934C16.1575 4.65677 15.5339 5.30198 14.7402 5.30198C13.9465 5.30198 13.3228 4.68482 13.3228 3.89934C13.3228 3.11386 13.9465 2.4967 14.7402 2.4967C15.5339 2.4967 16.1575 3.11386 16.1575 3.89934ZM18 10.2673C18 11.0248 17.3764 11.67 16.5827 11.67C15.789 11.67 15.1654 11.0528 15.1654 10.2673C15.1654 9.48185 15.789 8.86469 16.5827 8.86469C17.3764 8.86469 18 9.48185 18 10.2673ZM14.1165 15.6254C14.1165 16.3828 13.4929 17.0281 12.6992 17.0281C11.9055 17.0281 11.2819 16.4109 11.2819 15.6254C11.2819 14.8399 11.9055 14.2228 12.6992 14.2228C13.4929 14.2228 14.1165 14.8399 14.1165 15.6254ZM3.25984 2.4967C4.0252 2.4967 4.67717 3.11386 4.67717 3.89934C4.67717 4.68482 4.05354 5.30198 3.25984 5.30198C2.46614 5.30198 1.84252 4.68482 1.84252 3.89934C1.84252 3.11386 2.46614 2.4967 3.25984 2.4967ZM1.41732 8.86469C2.18268 8.86469 2.83465 9.48185 2.83465 10.2673C2.83465 11.0528 2.21102 11.67 1.41732 11.67C0.623622 11.67 0 11.0248 0 10.2673C0 9.5099 0.623622 8.86469 1.41732 8.86469ZM5.27244 14.2228C6.0378 14.2228 6.68976 14.8399 6.68976 15.6254C6.68976 16.4109 6.06614 17.0281 5.27244 17.0281C4.47874 17.0281 3.85512 16.4109 3.85512 15.6254C3.85512 14.8399 4.47874 14.2228 5.27244 14.2228Z" fill="#999999"/>
</svg>
