<svg width="65" height="54" viewBox="0 0 65 54" fill="none" xmlns="http://www.w3.org/2000/svg">
<path d="M14.7812 2.18921C17.4346 2.24386 20.0334 2.81221 22.403 4.2003C22.9817 4.53912 23.353 4.46262 23.8989 4.12379C28.8673 1.04157 34.065 0.779255 39.4046 3.06359C40.2236 3.41335 40.7368 3.34777 41.4356 2.82314C47.0155 -1.31928 55.6965 -0.838363 60.7959 3.85054C64.2683 7.04206 64.8361 11.6545 62.3028 15.6329C62.0298 16.0592 61.9533 16.7696 62.0953 17.2505C62.7068 19.2835 63.4711 21.2727 64.0935 23.3057C64.2464 23.8085 64.0717 24.4096 64.039 24.967C63.4602 24.8577 62.7832 24.9124 62.3028 24.6282C60.3482 23.4478 58.47 22.1471 56.5154 20.9558C56.0568 20.6825 55.3798 20.5076 54.8775 20.6279C50.9137 21.5241 47.0919 21.3055 43.3684 19.5895C43.008 19.4256 42.3419 19.5021 41.9925 19.7316C36.4563 23.4696 30.7454 23.6664 24.8052 20.77C24.4012 20.5732 23.6915 20.606 23.3202 20.8465C19.411 23.3385 15.1961 23.9068 10.7519 22.8794C9.7582 22.6499 9.01568 22.792 8.19672 23.3603C6.38409 24.6063 4.52778 25.7977 2.63871 26.9453C2.22377 27.1967 1.6341 27.1421 1.12089 27.2186C1.06629 26.6721 0.847914 26.0709 1.00079 25.5791C1.63412 23.5133 2.40941 21.4804 3.05365 19.4147C3.18469 18.9884 3.14102 18.3654 2.92263 17.9938C-0.00379446 13.0972 1.03353 8.17877 5.76166 4.87795C8.44786 2.99802 11.4726 2.222 14.7921 2.20014H14.7812V2.18921ZM3.61056 23.7101C3.69791 23.7757 3.78527 23.8412 3.88355 23.9068C5.22664 23.0434 6.60248 22.2346 7.89098 21.3055C8.75362 20.6825 9.56165 20.606 10.5772 20.8902C14.4973 21.9722 18.2863 21.6334 21.8351 19.5567C27.2075 16.4199 27.5897 10.3647 22.676 6.58301C18.4829 3.34777 11.2105 3.27126 6.82086 6.3972C3.15191 8.99851 1.65597 13.4251 4.86629 17.4473C5.18296 17.8517 5.24848 18.6496 5.10652 19.1851C4.7025 20.7153 4.12375 22.2018 3.62146 23.7101H3.61056ZM61.2326 21.7209C61.32 21.6553 61.4183 21.5897 61.5056 21.5132C61.0143 20.0486 60.5447 18.5731 59.9987 17.1194C59.7148 16.3652 59.7694 15.7969 60.2608 15.1192C62.9907 11.414 62.401 7.39182 58.7867 4.57191C54.1896 0.997852 46.7643 0.986922 42.1781 4.55005C37.8649 7.89459 37.9414 13.4797 42.3529 16.6713C46.1747 19.4474 50.3787 19.8518 54.812 18.6058C55.6309 18.3763 56.2534 18.4528 56.9413 18.9228C58.3499 19.8846 59.8022 20.7809 61.2436 21.7099H61.2326V21.7209ZM40.7586 18.1577C39.9069 17.0757 39.1207 16.0811 38.3127 15.0864C37.8213 14.4853 37.1988 13.9607 36.8494 13.2939C36.5328 12.6928 36.2161 11.8403 36.4018 11.261C37.0788 9.12966 37.9632 7.05299 38.7822 4.94353C35.3972 2.6264 27.7208 3.09638 24.9691 5.87257C25.5806 6.70324 26.203 7.52298 26.8035 8.36457C27.3932 9.19524 28.0593 10.0041 28.496 10.9112C28.7581 11.4577 28.8782 12.2665 28.6598 12.8021C27.8081 14.9225 26.8144 16.9773 25.8535 19.0649C29.5225 21.7646 37.3845 21.3165 40.7477 18.1687H40.7586V18.1577Z" fill="#333333"/>
<path d="M22.0972 48.4553C24.3466 44.3894 27.6334 42.0614 32.1978 42.0395C36.7839 42.0176 40.0707 44.3238 42.3638 48.4225C42.7132 47.8979 42.9971 47.4826 43.2592 47.0672C45.8362 43.1325 50.5971 41.2088 55.085 42.3127C59.7476 43.4604 63.1435 47.3623 63.5803 52.095C63.6022 52.3682 63.7114 52.707 63.5913 52.9256C63.3729 53.33 63.0234 53.647 62.7286 54.0077C62.4119 53.6689 61.9315 53.3847 61.8114 52.9912C61.4838 51.931 61.462 50.7615 61.0579 49.7341C59.5292 45.7556 55.3361 43.3511 51.2522 43.9959C46.9063 44.6845 43.685 48.1383 43.3465 52.4556C43.3138 52.8491 43.3247 53.3082 43.1281 53.6033C42.9753 53.8328 42.3638 54.0623 42.2437 53.964C41.8942 53.6689 41.5011 53.2098 41.4684 52.7945C41.3046 50.685 40.6058 48.8269 39.2627 47.1875C36.9368 44.3566 33.0822 43.209 29.4788 44.3238C25.9845 45.395 23.353 48.6848 23.08 52.2917C23.0472 52.6524 23.1236 53.0677 22.9599 53.3519C22.7851 53.647 22.3921 53.9858 22.0863 53.9858C21.7806 53.9858 21.3984 53.6361 21.2346 53.33C21.0708 53.0459 21.1363 52.6305 21.1036 52.2698C20.6231 47.5263 16.6812 43.9085 11.964 43.8866C7.24674 43.8648 3.29389 47.4716 2.78067 52.2152C2.70424 52.9475 2.92264 54.0842 1.69965 53.953C0.542189 53.8328 0.84791 52.7617 0.924346 52.0184C1.36113 47.2968 4.81169 43.3729 9.46339 42.2909C14.0605 41.2088 18.9306 43.2746 21.3984 47.3295C21.5949 47.6574 21.8024 47.9853 22.0972 48.4553Z" fill="#333333"/>
<path d="M37.5483 35.8421C37.5265 38.7386 35.146 41.1213 32.2524 41.1213C29.3587 41.1213 26.9018 38.7058 26.9236 35.7547C26.9455 32.8146 29.3915 30.4319 32.3397 30.4865C35.2225 30.5302 37.5592 32.9348 37.5374 35.8531H37.5483V35.8421ZM32.2742 32.3774C30.3633 32.3774 28.8346 33.8966 28.8346 35.7984C28.8346 37.7002 30.3305 39.1867 32.1541 39.2195C34.0541 39.2523 35.6374 37.733 35.6483 35.8531C35.6593 33.9185 34.1633 32.3883 32.2633 32.3774H32.2742Z" fill="#333333"/>
<path d="M52.5517 30.4866C55.4999 30.4866 57.8804 32.8911 57.8586 35.8641C57.8367 38.7386 55.4453 41.0885 52.5298 41.1213C49.6253 41.1432 47.1902 38.684 47.2121 35.7329C47.2339 32.8583 49.6362 30.4975 52.5408 30.4866H52.5517ZM52.5626 39.2305C54.4517 39.1977 55.9913 37.6347 55.9695 35.7438C55.9476 33.8639 54.3643 32.3446 52.4534 32.3774C50.6189 32.4102 49.112 33.9513 49.112 35.7985C49.112 37.6456 50.6844 39.2523 52.5517 39.2305H52.5626Z" fill="#333333"/>
<path d="M17.2599 35.7767C17.2927 38.6512 14.934 41.0667 12.0295 41.1214C9.09212 41.176 6.668 38.7933 6.63524 35.8204C6.6134 32.924 8.96108 30.5194 11.8547 30.4757C14.803 30.432 17.2162 32.8038 17.249 35.7767H17.2599ZM15.3708 35.7657C15.3599 33.8749 13.7875 32.3556 11.8766 32.3775C10.0639 32.3993 8.53522 33.9405 8.50246 35.7767C8.48062 37.6347 10.0858 39.2524 11.9421 39.2305C13.853 39.2086 15.3817 37.6675 15.3708 35.7657Z" fill="#333333"/>
<path d="M9.37605 14.3323C8.41514 14.3542 7.59616 13.5454 7.618 12.5945C7.62892 11.6764 8.39327 10.9222 9.3105 10.9004C10.2277 10.8785 11.0139 11.6217 11.0576 12.5398C11.1013 13.5345 10.3697 14.3214 9.37605 14.3433V14.3323Z" fill="#333333"/>
<path d="M19.9898 14.3432C19.0507 14.3432 18.2754 13.5016 18.2972 12.5507C18.3191 11.6545 19.0834 10.9222 20.0116 10.9003C20.9507 10.8785 21.7696 11.6873 21.7696 12.6382C21.7696 13.5891 20.9507 14.3651 19.9898 14.3542V14.3432Z" fill="#333333"/>
<path d="M14.5956 10.8894C15.5783 10.8567 16.3863 11.6217 16.3863 12.5945C16.3863 13.5673 15.7421 14.2668 14.7593 14.3214C13.7548 14.3651 12.9795 13.6438 12.9576 12.6382C12.9358 11.731 13.6892 10.9222 14.5956 10.9004V10.8894Z" fill="#333333"/>
<path d="M46.8189 10.3866C46.8408 11.3375 46.0546 12.1463 45.0827 12.1463C44.1764 12.1463 43.4011 11.414 43.3465 10.5069C43.3029 9.5669 44.0891 8.70344 45.0172 8.67065C45.9563 8.63786 46.7862 9.43574 46.808 10.3866H46.8189Z" fill="#333333"/>
<path d="M57.4873 10.3976C57.4982 11.3703 56.7229 12.1682 55.7729 12.1573C54.8775 12.1573 54.1131 11.4031 54.0804 10.4959C54.0476 9.52318 54.7902 8.70344 55.7402 8.67065C56.6792 8.63786 57.4873 9.43574 57.4982 10.3976H57.4873Z" fill="#333333"/>
<path d="M50.4224 12.1572C49.5161 12.1681 48.7408 11.403 48.7189 10.474C48.6971 9.51217 49.4942 8.67057 50.4442 8.6815C51.3396 8.6815 52.1258 9.46845 52.1586 10.3756C52.1913 11.3375 51.4051 12.1463 50.4333 12.1572H50.4224Z" fill="#333333"/>
<path d="M32.6345 10.2335C33.5518 10.2554 34.2724 11.0314 34.2615 11.9714C34.2615 12.9769 33.4863 13.7311 32.5035 13.6874C31.5535 13.6546 30.8656 12.9223 30.8656 11.9605C30.8656 10.9986 31.6736 10.2007 32.6345 10.2226V10.2335Z" fill="#333333"/>
</svg>
