<svg width="66" height="44" viewBox="0 0 66 44" fill="none" xmlns="http://www.w3.org/2000/svg">
<g clip-path="url(#clip0_6_81)">
<path d="M0 0V13.3702H13.2005V0H0ZM10.3565 4.44098H7.94829V11.1832H5.25606V4.44098H2.84785V2.54559H10.3565V4.44098Z" fill="#333333"/>
<path d="M21.4561 9.52427C21.5456 9.52427 21.709 9.51245 21.9502 9.49275L22.1759 11.0532C21.4094 11.4157 20.4096 11.597 19.1841 11.597C18.0364 11.597 17.1571 11.3054 16.5424 10.7183C15.9277 10.1311 15.6204 9.24844 15.6204 8.06628C15.6204 7.45943 15.6982 6.87624 15.8538 6.3088C16.0094 5.74136 16.1845 5.34731 16.3868 5.12664C16.5969 4.90597 16.9859 4.71288 17.5539 4.55132C18.122 4.38976 18.6861 4.30701 19.2463 4.30701C20.145 4.30701 20.8181 4.46857 21.2655 4.79169C21.7129 5.11482 22.0086 5.5601 22.1486 6.13147C22.2887 6.70285 22.3587 7.46731 22.3587 8.42881C21.6818 8.46821 21.0165 8.48791 20.3707 8.48791H18.2464C18.2464 8.81104 18.3126 9.05535 18.4488 9.21691C18.5849 9.37847 18.7756 9.48093 19.0245 9.52821C19.2735 9.5755 19.6237 9.5952 20.0711 9.5952C20.3201 9.5952 20.7831 9.57156 21.4639 9.52033L21.4561 9.52427ZM18.2542 6.50977C18.2231 6.74226 18.2037 7.00627 18.1959 7.29787H18.974C19.4408 7.29787 19.7832 7.29393 19.9933 7.28211C19.9933 6.79742 19.9271 6.4546 19.791 6.25363C19.6548 6.05266 19.4253 5.95021 19.0946 5.95021C18.8261 5.95021 18.5888 6.00538 18.3904 6.11571C18.332 6.14724 18.2854 6.27727 18.2542 6.50977Z" fill="#333333"/>
<path d="M27.3541 11.4197L27.1129 10.4661C26.6538 11.2226 26.0158 11.6009 25.1987 11.6009C24.5296 11.6009 23.9849 11.4118 23.5608 11.0335C23.1368 10.6552 22.9267 10.1232 22.9267 9.43365C22.9267 9.00807 23.0473 8.63766 23.2924 8.31848C23.5375 7.99929 23.8721 7.77468 24.3039 7.64465C24.8642 7.48308 25.724 7.39245 26.8911 7.37275C26.8911 6.7068 26.86 6.35215 26.8016 6.31275C26.7511 6.27334 26.5915 6.25364 26.3231 6.25364C26.1519 6.25364 25.9185 6.26546 25.6189 6.28516C25.1404 6.30486 24.4907 6.36003 23.6737 6.45066C23.592 5.90687 23.5336 5.31973 23.4947 4.69319C24.0238 4.58285 24.5763 4.48828 25.156 4.41341C25.7356 4.33854 26.2531 4.29913 26.7122 4.29913C27.5097 4.29913 28.1088 4.43311 28.5057 4.70107C28.9025 4.96902 29.1632 5.31973 29.2838 5.75319C29.4044 6.18665 29.4588 6.73832 29.4472 7.40427L29.4316 9.63067L29.4744 11.4197H27.3502H27.3541ZM26.8911 9.75283V8.62978H26.7705C26.0313 8.62978 25.6228 8.66918 25.545 8.75193C25.4944 8.80316 25.4594 8.87803 25.4322 8.98049C25.4088 9.08294 25.3933 9.17751 25.3933 9.26815C25.3933 9.51246 25.4477 9.67796 25.5567 9.76859C25.6656 9.85923 25.8368 9.90651 26.0663 9.90651C26.327 9.90651 26.5993 9.85528 26.8872 9.75677L26.8911 9.75283Z" fill="#333333"/>
<path d="M36.3878 11.2068C35.5786 11.4787 34.676 11.6167 33.68 11.6167C32.5635 11.6167 31.727 11.3329 31.1746 10.7616C30.6221 10.1902 30.3459 9.29963 30.3459 8.08594C30.3459 7.49092 30.4237 6.89984 30.5832 6.32059C30.7427 5.74133 30.9139 5.34727 31.0929 5.14631C31.3029 4.91381 31.7153 4.71679 32.3261 4.55523C32.9408 4.39366 33.575 4.31091 34.2325 4.31091C34.89 4.31091 35.6136 4.37002 36.3139 4.49218C36.2945 4.74437 36.2594 5.03991 36.2166 5.3788C36.17 5.71768 36.1233 6.01716 36.0727 6.28118C35.4541 6.24177 34.8705 6.22207 34.322 6.22207C33.7734 6.22207 33.4388 6.2536 33.291 6.3127C33.2093 6.34423 33.1393 6.54914 33.0731 6.93531C33.007 7.32148 32.9759 7.67613 32.9759 8.01107C32.9759 8.45635 33.0381 8.79524 33.1626 9.03561C33.2871 9.27204 33.4855 9.43755 33.754 9.52818C34.0224 9.61881 34.3881 9.6661 34.8472 9.6661C35.0456 9.6661 35.4852 9.64639 36.1622 9.60699L36.3878 11.2147V11.2068Z" fill="#333333"/>
<path d="M44.0988 5.72164C44.1416 6.16692 44.1649 6.84469 44.1649 7.75102V11.4197H41.605V7.18358C41.605 6.82499 41.5816 6.60432 41.5311 6.52551C41.4999 6.4861 41.4299 6.45458 41.3132 6.43488C41.1965 6.41517 41.0642 6.40335 40.9164 6.40335L40.6635 6.41912C40.3834 6.43094 40.0955 6.49399 39.7959 6.61614V11.4197H37.236V2.3249L39.7959 2.21851V3.99175C39.7959 4.72074 39.7726 5.20543 39.722 5.4458L39.7376 5.46157C40.4145 4.68528 41.2276 4.29517 42.1769 4.29517C42.5348 4.29517 42.8733 4.34639 43.1884 4.44491C43.5036 4.54736 43.7409 4.69316 43.9004 4.88231C43.9899 4.99264 44.056 5.27242 44.1027 5.7177L44.0988 5.72164Z" fill="#333333"/>
<path d="M50.915 9.52427C51.0045 9.52427 51.1679 9.51245 51.4091 9.49275L51.6347 11.0532C50.8683 11.4157 49.8684 11.597 48.6429 11.597C47.4952 11.597 46.616 11.3054 46.0013 10.7183C45.3866 10.1311 45.0792 9.24844 45.0792 8.06628C45.0792 7.45943 45.157 6.87624 45.3127 6.3088C45.4683 5.74136 45.6433 5.34731 45.8456 5.12664C46.0557 4.90597 46.4448 4.71288 47.0128 4.55132C47.5808 4.38976 48.1449 4.30701 48.7052 4.30701C49.6039 4.30701 50.2769 4.46857 50.7243 4.79169C51.1717 5.11482 51.4674 5.5601 51.6075 6.13147C51.7475 6.70285 51.8176 7.46731 51.8176 8.42881C51.1406 8.46821 50.4753 8.48791 49.8295 8.48791H47.7053C47.7053 8.81104 47.7714 9.05535 47.9076 9.21691C48.0438 9.37847 48.2344 9.48093 48.4834 9.52821C48.7324 9.5755 49.0825 9.5952 49.53 9.5952C49.7789 9.5952 50.2419 9.57156 50.9228 9.52033L50.915 9.52427ZM47.7131 6.50977C47.682 6.74226 47.6625 7.00627 47.6547 7.29787H48.4328C48.8997 7.29787 49.2421 7.29393 49.4521 7.28211C49.4521 6.79742 49.386 6.4546 49.2498 6.25363C49.1137 6.05266 48.8841 5.95021 48.5534 5.95021C48.285 5.95021 48.0477 6.00538 47.8493 6.11571C47.7909 6.14724 47.7442 6.27727 47.7131 6.50977Z" fill="#333333"/>
<path d="M57.3849 4.34248C57.5288 4.374 57.6378 4.40947 57.7078 4.44887C57.7078 4.66954 57.6844 5.03601 57.6339 5.54828C57.5833 6.05661 57.5405 6.41914 57.4977 6.63193C57.3965 6.62011 57.2137 6.61617 56.9452 6.61617C56.315 6.61617 55.7586 6.65163 55.2684 6.72256V11.4197H52.7085V4.44887H54.8483L55.1478 5.57193H55.1634C55.4513 5.18969 55.7625 4.87839 56.0893 4.6459C56.42 4.41341 56.7118 4.29913 56.9725 4.29913C57.1009 4.29913 57.2409 4.3149 57.3849 4.34642V4.34248Z" fill="#333333"/>
<path d="M6.0536 20.8612C5.94467 20.9439 5.85519 21.1725 5.79294 21.5508C5.7268 21.9291 5.69568 22.3271 5.69568 22.7408C5.69568 23.3555 5.78905 23.7654 5.9719 23.9663C6.15476 24.1673 6.41542 24.2697 6.74222 24.2697C7.01067 24.2697 7.29078 24.2225 7.57868 24.1318V20.8454C7.29078 20.806 6.97176 20.7863 6.62162 20.7863C6.32205 20.7863 6.13141 20.81 6.0536 20.8612Z" fill="#333333"/>
<path d="M0 15.1592V28.5295H13.2005V15.1592H0ZM10.1386 26.1809H8.02999L7.8199 25.0145C7.62149 25.4086 7.32581 25.7199 6.93676 25.9524C6.54771 26.1849 6.10808 26.2991 5.62177 26.2991C4.84367 26.2991 4.22119 26.0154 3.75822 25.4519C3.29525 24.8845 3.06182 24.0373 3.06182 22.9063C3.06182 22.0473 3.16298 21.3419 3.36139 20.7863C3.55981 20.2307 3.79324 19.8327 4.06557 19.5884C4.23675 19.4387 4.58301 19.3126 5.10433 19.2101C5.62955 19.1077 6.09252 19.0604 6.50491 19.0604C6.86284 19.0604 7.23244 19.0958 7.61371 19.1668C7.58258 18.6821 7.56702 18.4141 7.56702 18.3629V17.0901L10.1386 16.9837V26.1809Z" fill="#333333"/>
<path d="M15.6243 19.2101H18.1842V26.1809H15.6243V19.2101ZM16.0367 17.9964C15.7916 17.7639 15.671 17.4881 15.671 17.1649C15.671 16.8418 15.7916 16.566 16.0367 16.3296C16.2818 16.0971 16.5735 15.9828 16.912 15.9828C17.2505 15.9828 17.5423 16.0971 17.7796 16.3296C18.0208 16.562 18.1375 16.8379 18.1375 17.1649C18.1375 17.492 18.0169 17.7678 17.7796 17.9964C17.5423 18.2289 17.2505 18.3432 16.912 18.3432C16.5735 18.3432 16.2818 18.2289 16.0367 17.9964Z" fill="#333333"/>
<path d="M24.5102 19.1864C25.0198 19.2534 25.6112 19.3401 26.292 19.4505V25.4795C26.292 26.9256 25.8174 28.0448 24.872 28.8447C24.7514 28.9471 24.483 29.0299 24.0628 29.1008C23.6426 29.1718 23.1719 29.2072 22.6428 29.2072C21.4951 29.2072 20.5886 29.0575 19.9194 28.7541C19.9077 28.5334 19.9272 28.2378 19.97 27.8753C20.0128 27.5128 20.0634 27.2251 20.1139 27.0123C20.8337 27.1227 21.534 27.1778 22.2226 27.1778C22.5727 27.1778 22.8684 27.1621 23.1135 27.1266C23.3586 27.0911 23.5103 27.0399 23.5687 26.969C23.6504 26.8862 23.7088 26.5868 23.7477 26.0587C23.7593 25.9169 23.7632 25.712 23.7632 25.4361V25.0578C23.5142 25.4322 23.1952 25.7001 22.8062 25.8617C22.4171 26.0233 22.067 26.106 21.7596 26.106C20.9232 26.106 20.289 25.8262 19.861 25.2706C19.4331 24.715 19.2191 23.9033 19.2191 22.8314C19.2191 22.1261 19.3164 21.4601 19.5109 20.8375C19.7054 20.2149 19.9739 19.7854 20.3123 19.5411C20.5302 19.3913 20.8881 19.2771 21.3822 19.1983C21.8763 19.1234 22.4327 19.084 23.0513 19.084C23.5181 19.084 24.0083 19.1155 24.518 19.1825L24.5102 19.1864ZM23.7321 24.0294V20.8612C23.6232 20.8415 23.4559 20.8218 23.238 20.8021C23.1368 20.7902 22.989 20.7863 22.7906 20.7863C22.4832 20.7863 22.2887 20.8178 22.207 20.8769C22.0981 20.9597 22.0086 21.1843 21.9464 21.5508C21.8802 21.9212 21.8491 22.3073 21.8491 22.7093C21.8491 23.2649 21.9113 23.655 22.0358 23.8757C22.1603 24.0963 22.3938 24.2106 22.7322 24.2106C23.1018 24.2106 23.4364 24.1515 23.736 24.0294H23.7321Z" fill="#333333"/>
<path d="M27.5447 19.2101H30.1047V26.1809H27.5447V19.2101ZM27.9571 17.9964C27.712 17.7639 27.5914 17.4881 27.5914 17.1649C27.5914 16.8418 27.712 16.566 27.9571 16.3296C28.2022 16.0971 28.494 15.9828 28.8325 15.9828C29.171 15.9828 29.4628 16.0971 29.7001 16.3296C29.9413 16.562 30.058 16.8379 30.058 17.1649C30.058 17.492 29.9374 17.7678 29.7001 17.9964C29.4628 18.2289 29.171 18.3432 28.8325 18.3432C28.494 18.3432 28.2022 18.2289 27.9571 17.9964Z" fill="#333333"/>
<path d="M34.5477 23.3161C34.5477 23.4974 34.5516 23.6865 34.5632 23.8836C34.5749 24.0806 34.6021 24.2028 34.6527 24.254C34.7228 24.3249 34.9679 24.3604 35.3841 24.3604L35.8938 24.3446C35.9833 24.8293 36.03 25.3889 36.03 26.0272C35.8393 26.0982 35.5631 26.1651 35.2013 26.2243C34.8356 26.2834 34.4893 26.3149 34.1625 26.3149C33.4739 26.3149 32.9448 26.1612 32.5674 25.8538C32.1939 25.5465 32.0072 25.0697 32.0072 24.4234V20.6957H30.8867V19.3165L32.0072 19.2101L32.6802 17.5433L34.5516 17.4369V19.2101H36.1389V20.6957H34.5516V23.3161H34.5477Z" fill="#333333"/>
<path d="M40.9942 26.1809L40.753 25.2273C40.2939 25.9838 39.6559 26.3621 38.8389 26.3621C38.1697 26.3621 37.6251 26.173 37.201 25.7947C36.7769 25.4164 36.5668 24.8844 36.5668 24.1948C36.5668 23.7693 36.6874 23.3989 36.9325 23.0797C37.1776 22.7605 37.5122 22.5359 37.9441 22.4058C38.5043 22.2443 39.3641 22.1537 40.5313 22.1339C40.5313 21.468 40.5001 21.1134 40.4418 21.0739C40.3912 21.0345 40.2317 21.0148 39.9632 21.0148C39.7921 21.0148 39.5586 21.0267 39.2591 21.0464C38.7805 21.0661 38.1308 21.1212 37.3138 21.2119C37.2321 20.6681 37.1738 20.0809 37.1348 19.4544C37.664 19.3441 38.2164 19.2495 38.7961 19.1746C39.3758 19.0997 39.8932 19.0603 40.3523 19.0603C41.1498 19.0603 41.749 19.1943 42.1458 19.4623C42.5426 19.7302 42.8033 20.0809 42.9239 20.5144C43.0445 20.9478 43.099 21.4995 43.0873 22.1655L43.0717 24.3919L43.1145 26.1809H40.9903H40.9942ZM40.5313 24.514V23.391H40.4106C39.6715 23.391 39.263 23.4304 39.1851 23.5131C39.1346 23.5644 39.0995 23.6392 39.0723 23.7417C39.049 23.8441 39.0334 23.9387 39.0334 24.0293C39.0334 24.2737 39.0879 24.4392 39.1968 24.5298C39.3057 24.6204 39.4769 24.6677 39.7065 24.6677C39.9671 24.6677 40.2395 24.6165 40.5274 24.518L40.5313 24.514Z" fill="#333333"/>
<path d="M44.2856 17.0901L46.8455 16.9837V26.1809H44.2856V17.0901Z" fill="#333333"/>
<path d="M0 30.3185V43.6887H13.2005V30.3185H0ZM7.87048 39.3147H5.38834L4.94093 41.2101H2.18646L4.94093 32.5725H8.45794L11.0918 41.2101H8.32567L7.87826 39.3147H7.87048ZM6.61385 34.4363L5.7307 37.6321H7.51255L6.6761 34.4363H6.61774H6.61385Z" fill="#333333"/>
<path d="M20.9192 33.9792C21.4288 34.0462 22.0202 34.1329 22.701 34.2432V40.2723C22.701 41.7184 22.2264 42.8375 21.281 43.6375C21.1604 43.7399 20.892 43.8227 20.4718 43.8936C20.0516 43.9645 19.5809 44 19.0518 44C17.9041 44 16.9976 43.8503 16.3284 43.5468C16.3167 43.3262 16.3362 43.0306 16.379 42.6681C16.4218 42.3056 16.4724 42.0179 16.5229 41.8051C17.2427 41.9155 17.943 41.9706 18.6316 41.9706C18.9817 41.9706 19.2774 41.9549 19.5225 41.9194C19.7676 41.8839 19.9193 41.8327 19.9777 41.7618C20.0594 41.679 20.1178 41.3795 20.1567 40.8515C20.1683 40.7097 20.1722 40.5047 20.1722 40.2289V39.8506C19.9232 40.225 19.6042 40.4929 19.2152 40.6545C18.8261 40.816 18.476 40.8988 18.1686 40.8988C17.3322 40.8988 16.698 40.619 16.27 40.0634C15.8421 39.5078 15.6281 38.696 15.6281 37.6242C15.6281 36.9189 15.7254 36.2529 15.9199 35.6303C16.1144 35.0077 16.3829 34.5782 16.7213 34.3339C16.9392 34.1841 17.2971 34.0699 17.7912 33.991C18.2853 33.9162 18.8417 33.8768 19.4603 33.8768C19.9271 33.8768 20.4173 33.9083 20.927 33.9753L20.9192 33.9792ZM20.1411 38.8221V35.654C20.0322 35.6342 19.8649 35.6145 19.647 35.5948C19.5458 35.583 19.398 35.5791 19.1996 35.5791C18.8922 35.5791 18.6977 35.6106 18.616 35.6697C18.5071 35.7525 18.4176 35.9771 18.3554 36.3435C18.2892 36.714 18.2581 37.1001 18.2581 37.5021C18.2581 38.0577 18.3203 38.4478 18.4448 38.6685C18.5693 38.8891 18.8028 39.0034 19.1412 39.0034C19.5108 39.0034 19.8454 38.9443 20.145 38.8221H20.1411Z" fill="#333333"/>
<path d="M29.4744 39.0783C29.5639 39.0783 29.7273 39.0664 29.9685 39.0467L30.1942 40.6072C29.4277 40.9697 28.4279 41.151 27.2024 41.151C26.0547 41.151 25.1754 40.8594 24.5607 40.2722C23.946 39.6851 23.6387 38.8024 23.6387 37.6203C23.6387 37.0134 23.7165 36.4302 23.8721 35.8628C24.0277 35.2953 24.2028 34.9013 24.4051 34.6806C24.6152 34.46 25.0042 34.2669 25.5723 34.1053C26.1403 33.9437 26.7044 33.861 27.2646 33.861C28.1633 33.861 28.8364 34.0226 29.2838 34.3457C29.7312 34.6688 30.0269 35.1141 30.1669 35.6855C30.307 36.2568 30.377 37.0213 30.377 37.9828C29.7001 38.0222 29.0348 38.0419 28.389 38.0419H26.2648C26.2648 38.365 26.3309 38.6093 26.4671 38.7709C26.6032 38.9325 26.7939 39.0349 27.0429 39.0822C27.2919 39.1295 27.642 39.1492 28.0894 39.1492C28.3384 39.1492 28.8014 39.1255 29.4822 39.0743L29.4744 39.0783ZM26.2725 36.0637C26.2414 36.2962 26.222 36.5603 26.2142 36.8519H26.9923C27.4591 36.8519 27.8015 36.8479 28.0116 36.8361C28.0116 36.3514 27.9455 36.0086 27.8093 35.8076C27.6731 35.6067 27.4436 35.5042 27.1129 35.5042C26.8444 35.5042 26.6071 35.5594 26.4087 35.6697C26.3503 35.7012 26.3037 35.8313 26.2725 36.0637Z" fill="#333333"/>
<path d="M38.1308 35.2717C38.1736 35.717 38.1969 36.3948 38.1969 37.3011V40.9697H35.637V36.71C35.637 36.3869 35.6136 36.1859 35.5631 36.1032C35.4814 36.0007 35.2985 35.9534 35.0106 35.9534C34.8705 35.9534 34.7655 35.9574 34.6955 35.9692C34.4154 35.981 34.1275 36.0441 33.8279 36.1662V40.9697H31.2679V33.9989H33.3455L33.6295 35.1653C34.3492 34.2866 35.2051 33.8452 36.2011 33.8452C36.559 33.8452 36.8975 33.8965 37.2126 33.995C37.5278 34.0974 37.7651 34.2432 37.9246 34.4324C38.0141 34.5427 38.0802 34.8225 38.1269 35.2678L38.1308 35.2717Z" fill="#333333"/>
<path d="M45.1687 40.7569C44.3594 41.0288 43.4568 41.1667 42.4609 41.1667C41.3443 41.1667 40.5078 40.883 39.9554 40.3116C39.4029 39.7403 39.1267 38.8497 39.1267 37.636C39.1267 37.041 39.2045 36.4499 39.364 35.8707C39.5235 35.2914 39.6947 34.8974 39.8737 34.6964C40.0838 34.4639 40.4962 34.2669 41.107 34.1053C41.7217 33.9437 42.3558 33.861 43.0133 33.861C43.6708 33.861 44.3944 33.9201 45.0947 34.0423C45.0753 34.2945 45.0403 34.59 44.9975 34.9289C44.9508 35.2678 44.9041 35.5672 44.8535 35.8313C44.2349 35.7919 43.6514 35.7722 43.1028 35.7722C42.5542 35.7722 42.2197 35.8037 42.0718 35.8628C41.9901 35.8943 41.9201 36.0992 41.8539 36.4854C41.7878 36.8716 41.7567 37.2262 41.7567 37.5612C41.7567 38.0064 41.8189 38.3453 41.9434 38.5857C42.0679 38.8221 42.2663 38.9876 42.5348 39.0783C42.8032 39.1689 43.1689 39.2162 43.628 39.2162C43.8264 39.2162 44.2661 39.1965 44.943 39.1571L45.1687 40.7648V40.7569Z" fill="#333333"/>
<path d="M53.1442 33.9989L51.3507 39.8309C51.0005 40.954 50.6854 41.7697 50.4092 42.278C50.1291 42.7863 49.8489 43.1449 49.5727 43.3459C49.4132 43.4562 49.1603 43.5429 48.818 43.602C48.4756 43.6611 48.1021 43.6926 47.7014 43.6926C47.1022 43.6926 46.6237 43.6375 46.2658 43.5271C46.2541 43.2828 46.2658 42.9912 46.2969 42.6405C46.328 42.2938 46.3669 41.9982 46.4175 41.7539C46.8377 41.7736 47.2462 41.7854 47.643 41.7854C47.9426 41.7854 48.1682 41.7815 48.3161 41.7697C48.4639 41.4781 48.604 41.1668 48.7363 40.8436L47.7053 40.7845L45.4021 33.995H48.1099L49.3082 38.8734L49.3237 39.161H49.3704L50.4481 33.995H53.1559L53.1442 33.9989Z" fill="#333333"/>
<path d="M62.0223 30.35L57.9996 26.2755L55.5602 28.7501L51.8137 16.436L63.9715 20.2307L61.5321 22.7054L65.5549 26.7799L62.0262 30.3579L62.0223 30.35Z" fill="#333333"/>
</g>
<defs>
<clipPath id="clip0_6_81">
<rect width="65.551" height="44" fill="white"/>
</clipPath>
</defs>
</svg>
