<svg width="2664" height="2227" viewBox="0 0 2664 2227" fill="none" xmlns="http://www.w3.org/2000/svg">
<path d="M1136.17 1961.91L1165.26 1973.76L1154.87 1999.32L1125.77 1987.44L1118.58 2005.1L1073.41 1951.24L1143.36 1944.25L1136.17 1961.91ZM1083.53 1867.82L1054.44 1855.97L1044.04 1881.51L1073.13 1893.35L1065.94 1911.01L1135.89 1904.03L1090.72 1850.16L1083.53 1867.82ZM1069.46 1768.8L999.513 1775.78L1044.68 1829.65L1051.87 1811.99L1080.96 1823.84L1091.36 1798.31L1062.27 1786.46L1069.46 1768.8ZM1009.63 1692.37L980.541 1680.52L970.143 1706.05L999.233 1717.9L992.041 1735.56L1061.99 1728.58L1016.82 1674.71L1009.63 1692.37ZM995.561 1593.35L925.613 1600.33L970.779 1654.2L977.971 1636.54L1007.06 1648.38L1017.46 1622.85L988.37 1611.01L995.561 1593.35ZM935.731 1516.91L906.641 1505.07L896.243 1530.6L925.333 1542.45L918.141 1560.1L988.089 1553.12L942.923 1499.26L935.731 1516.91ZM921.661 1417.89L851.713 1424.88L896.88 1478.74L904.071 1461.08L933.161 1472.93L943.559 1447.4L914.47 1435.55L921.661 1417.89ZM861.831 1341.46L832.741 1329.61L822.343 1355.15L851.433 1366.99L844.241 1384.65L914.189 1377.67L869.023 1323.8L861.831 1341.46ZM847.775 1242.47L777.827 1249.45L822.993 1303.32L830.185 1285.66L859.274 1297.51L869.673 1271.98L840.583 1260.13L847.775 1242.47ZM787.945 1166.04L758.855 1154.19L748.456 1179.72L777.546 1191.57L770.355 1209.23L840.303 1202.25L795.136 1148.38L787.945 1166.04ZM773.875 1067.02L703.927 1074L749.093 1127.87L756.285 1110.21L785.375 1122.05L795.773 1096.52L766.683 1084.68L773.875 1067.02ZM714.045 990.585L684.955 978.738L674.556 1004.27L703.646 1016.12L696.455 1033.78L766.403 1026.79L721.236 972.927L714.045 990.585ZM699.975 891.563L630.027 898.547L675.193 952.412L682.385 934.753L711.475 946.6L721.873 921.069L692.783 909.222L699.975 891.563ZM640.145 815.132L611.055 803.284L600.657 828.816L629.746 840.663L622.555 858.322L692.503 851.338L647.337 797.473L640.145 815.132ZM626.075 716.11L556.127 723.093L601.293 776.958L608.485 759.3L637.575 771.147L647.973 745.615L618.883 733.768L626.075 716.11ZM566.245 639.678L537.155 627.831L526.757 653.362L555.847 665.209L548.655 682.868L618.603 675.885L573.437 622.019L566.245 639.678ZM676.821 591.446L606.873 598.429L652.039 652.294L659.231 634.636L688.321 646.483L698.719 620.951L669.629 609.104L676.821 591.446ZM1208.18 1918.61L1179.09 1906.76L1168.69 1932.3L1197.78 1944.14L1190.59 1961.8L1260.54 1954.82L1215.37 1900.95L1208.18 1918.61ZM1194.11 1819.59L1124.16 1826.57L1169.33 1880.44L1176.52 1862.78L1205.61 1874.63L1216.01 1849.1L1186.92 1837.25L1194.11 1819.59ZM1134.28 1743.16L1105.19 1731.31L1094.79 1756.84L1123.88 1768.69L1116.69 1786.35L1186.64 1779.36L1141.47 1725.5L1134.28 1743.16ZM1120.21 1644.14L1050.26 1651.12L1095.43 1704.98L1102.62 1687.33L1131.71 1699.17L1142.11 1673.64L1113.02 1661.79L1120.21 1644.14ZM1060.38 1567.7L1031.29 1555.86L1020.89 1581.39L1049.98 1593.24L1042.79 1610.89L1112.74 1603.91L1067.57 1550.05L1060.38 1567.7ZM1046.31 1468.68L976.359 1475.67L1021.53 1529.53L1028.72 1511.87L1057.81 1523.72L1068.21 1498.19L1039.12 1486.34L1046.31 1468.68ZM986.477 1392.25L957.388 1380.4L946.989 1405.94L976.079 1417.78L968.887 1435.44L1038.84 1428.46L993.669 1374.59L986.477 1392.25ZM972.408 1293.23L902.46 1300.21L947.626 1354.08L954.818 1336.42L983.907 1348.27L994.306 1322.73L965.216 1310.89L972.408 1293.23ZM912.591 1216.83L883.501 1204.98L873.103 1230.51L902.192 1242.36L895.001 1260.02L964.949 1253.04L919.782 1199.17L912.591 1216.83ZM898.521 1117.81L828.573 1124.79L873.739 1178.66L880.931 1161L910.021 1172.84L920.419 1147.31L891.329 1135.47L898.521 1117.81ZM838.691 1041.37L809.601 1029.53L799.203 1055.06L828.292 1066.91L821.101 1084.56L891.049 1077.58L845.883 1023.72L838.691 1041.37ZM824.621 942.353L754.673 949.336L799.839 1003.2L807.031 985.543L836.121 997.39L846.519 971.859L817.429 960.012L824.621 942.353ZM764.791 865.921L735.701 854.074L725.303 879.606L754.393 891.453L747.201 909.111L817.149 902.128L771.983 848.263L764.791 865.921ZM750.721 766.899L680.773 773.883L725.939 827.748L733.131 810.089L762.221 821.937L772.619 796.405L743.529 784.558L750.721 766.899ZM690.891 690.468L661.801 678.62L651.403 704.152L680.493 715.999L673.301 733.658L743.249 726.674L698.083 672.809L690.891 690.468ZM967.969 2018.13L898.021 2025.11L943.187 2078.98L950.379 2061.32L979.469 2073.17L989.867 2047.63L960.777 2035.79L967.969 2018.13ZM908.139 1941.7L879.049 1929.85L868.651 1955.38L897.741 1967.23L890.549 1984.89L960.497 1977.9L915.331 1924.04L908.139 1941.7ZM894.069 1842.67L824.121 1849.66L869.287 1903.52L876.479 1885.86L905.569 1897.71L915.967 1872.18L886.877 1860.33L894.069 1842.67ZM834.239 1766.24L805.149 1754.4L794.751 1779.93L823.841 1791.77L816.649 1809.43L886.597 1802.45L841.431 1748.58L834.239 1766.24ZM820.169 1667.22L750.221 1674.2L795.387 1728.07L802.579 1710.41L831.669 1722.26L842.067 1696.73L812.977 1684.88L820.169 1667.22ZM760.339 1590.79L731.249 1578.94L720.851 1604.47L749.941 1616.32L742.749 1633.98L812.697 1627L767.531 1573.13L760.339 1590.79ZM746.269 1491.77L676.321 1498.75L721.487 1552.62L728.679 1534.96L757.769 1546.8L768.167 1521.27L739.077 1509.43L746.269 1491.77ZM686.439 1415.34L657.349 1403.49L646.951 1429.02L676.041 1440.87L668.849 1458.53L738.797 1451.54L693.631 1397.68L686.439 1415.34ZM672.382 1316.34L602.434 1323.33L647.601 1377.19L654.792 1359.53L683.882 1371.38L694.28 1345.85L665.191 1334L672.382 1316.34ZM612.552 1239.91L583.462 1228.07L573.064 1253.6L602.154 1265.44L594.962 1283.1L664.91 1276.12L619.744 1222.25L612.552 1239.91ZM598.482 1140.89L528.534 1147.87L573.701 1201.74L580.892 1184.08L609.982 1195.93L620.38 1170.4L591.291 1158.55L598.482 1140.89ZM538.652 1064.46L509.562 1052.61L499.164 1078.14L528.254 1089.99L521.062 1107.65L591.01 1100.67L545.844 1046.8L538.652 1064.46ZM524.582 965.437L454.634 972.421L499.801 1026.29L506.992 1008.63L536.082 1020.47L546.481 994.943L517.391 983.096L524.582 965.437ZM464.752 889.006L435.663 877.158L425.264 902.69L454.354 914.537L447.162 932.196L517.11 925.212L471.944 871.347L464.752 889.006ZM450.683 789.984L380.735 796.967L425.901 850.832L433.092 833.174L462.182 845.021L472.581 819.489L443.491 807.642L450.683 789.984ZM390.853 713.552L361.763 701.705L351.364 727.236L380.454 739.083L373.262 756.742L443.21 749.759L398.044 695.893L390.853 713.552ZM501.429 665.32L431.481 672.303L476.647 726.168L483.839 708.51L512.929 720.357L523.327 694.826L494.237 682.978L501.429 665.32ZM1032.79 1992.49L1003.7 1980.64L993.297 2006.17L1022.39 2018.02L1015.19 2035.68L1085.14 2028.69L1039.98 1974.83L1032.79 1992.49ZM1018.72 1893.46L948.767 1900.45L993.933 1954.31L1001.13 1936.65L1030.21 1948.5L1040.61 1922.97L1011.52 1911.12L1018.72 1893.46ZM958.885 1817.03L929.795 1805.19L919.397 1830.72L948.487 1842.56L941.295 1860.22L1011.24 1853.24L966.077 1799.37L958.885 1817.03ZM944.815 1718.01L874.867 1724.99L920.033 1778.86L927.225 1761.2L956.315 1773.05L966.713 1747.52L937.623 1735.67L944.815 1718.01ZM884.985 1641.58L855.895 1629.73L845.497 1655.26L874.587 1667.11L867.395 1684.77L937.343 1677.79L892.177 1623.92L884.985 1641.58ZM870.915 1542.56L800.967 1549.54L846.133 1603.41L853.325 1585.75L882.415 1597.59L892.813 1572.06L863.723 1560.22L870.915 1542.56ZM811.085 1466.13L781.995 1454.28L771.597 1479.81L800.687 1491.66L793.495 1509.32L863.443 1502.33L818.277 1448.47L811.085 1466.13ZM797.015 1367.1L727.067 1374.09L772.233 1427.95L779.425 1410.29L808.515 1422.14L818.913 1396.61L789.823 1384.76L797.015 1367.1ZM737.198 1290.7L708.109 1278.86L697.71 1304.39L726.8 1316.23L719.608 1333.89L789.556 1326.91L744.39 1273.04L737.198 1290.7ZM723.129 1191.68L653.18 1198.66L698.347 1252.53L705.538 1234.87L734.628 1246.72L745.027 1221.19L715.937 1209.34L723.129 1191.68ZM663.298 1115.25L634.209 1103.4L623.81 1128.93L652.9 1140.78L645.708 1158.44L715.656 1151.46L670.49 1097.59L663.298 1115.25ZM649.229 1016.23L579.281 1023.21L624.447 1077.08L631.639 1059.42L660.728 1071.26L671.127 1045.73L642.037 1033.89L649.229 1016.23ZM589.399 939.795L560.309 927.948L549.91 953.48L579 965.327L571.808 982.985L641.757 976.002L596.59 922.137L589.399 939.795ZM575.329 840.773L505.381 847.757L550.547 901.622L557.739 883.963L586.829 895.811L597.227 870.279L568.137 858.432L575.329 840.773ZM515.499 764.342L486.409 752.495L476.01 778.026L505.1 789.873L497.909 807.532L567.857 800.548L522.69 746.683L515.499 764.342ZM792.577 2092L722.629 2098.99L767.795 2152.85L774.987 2135.19L804.077 2147.04L814.475 2121.51L785.385 2109.66L792.577 2092ZM732.747 2015.57L703.657 2003.72L693.258 2029.25L722.348 2041.1L715.157 2058.76L785.105 2051.78L739.938 1997.91L732.747 2015.57ZM718.677 1916.55L648.729 1923.53L693.895 1977.4L701.087 1959.74L730.177 1971.59L740.575 1946.05L711.485 1934.21L718.677 1916.55ZM658.847 1840.12L629.757 1828.27L619.359 1853.8L648.448 1865.65L641.257 1883.31L711.205 1876.32L666.039 1822.46L658.847 1840.12ZM644.777 1741.09L574.829 1748.08L619.995 1801.94L627.187 1784.28L656.277 1796.13L666.675 1770.6L637.585 1758.75L644.777 1741.09ZM584.947 1664.66L555.857 1652.82L545.459 1678.35L574.549 1690.19L567.357 1707.85L637.305 1700.87L592.139 1647L584.947 1664.66ZM570.877 1565.64L500.929 1572.62L546.095 1626.49L553.287 1608.83L582.377 1620.68L592.775 1595.15L563.685 1583.3L570.877 1565.64ZM511.047 1489.21L481.957 1477.36L471.559 1502.89L500.649 1514.74L493.457 1532.4L563.405 1525.42L518.239 1471.55L511.047 1489.21ZM496.99 1390.22L427.042 1397.2L472.208 1451.07L479.4 1433.41L508.49 1445.26L518.888 1419.72L489.798 1407.88L496.99 1390.22ZM437.16 1313.79L408.07 1301.94L397.672 1327.47L426.762 1339.32L419.57 1356.98L489.518 1349.99L444.352 1296.13L437.16 1313.79ZM423.09 1214.77L353.142 1221.75L398.308 1275.61L405.5 1257.96L434.59 1269.8L444.988 1244.27L415.898 1232.42L423.09 1214.77ZM363.26 1138.33L334.17 1126.49L323.772 1152.02L352.862 1163.86L345.67 1181.52L415.618 1174.54L370.452 1120.67L363.26 1138.33ZM349.19 1039.31L279.242 1046.29L324.408 1100.16L331.6 1082.5L360.69 1094.35L371.088 1068.82L341.998 1056.97L349.19 1039.31ZM289.36 962.88L260.27 951.032L249.872 976.564L278.962 988.411L271.77 1006.07L341.718 999.086L296.552 945.221L289.36 962.88ZM275.29 863.858L205.342 870.841L250.508 924.706L257.7 907.048L286.79 918.895L297.188 893.364L268.098 881.516L275.29 863.858ZM215.46 787.426L186.37 775.579L175.972 801.11L205.062 812.958L197.87 830.616L267.818 823.633L222.652 769.768L215.46 787.426ZM326.036 739.194L256.088 746.177L301.255 800.042L308.446 782.384L337.536 794.231L347.935 768.7L318.845 756.852L326.036 739.194ZM857.393 2066.36L828.303 2054.51L817.905 2080.04L846.995 2091.89L839.803 2109.55L909.751 2102.57L864.585 2048.7L857.393 2066.36ZM843.323 1967.34L773.375 1974.32L818.541 2028.19L825.733 2010.53L854.823 2022.38L865.221 1996.84L836.131 1985L843.323 1967.34ZM783.493 1890.91L754.403 1879.06L744.005 1904.59L773.095 1916.44L765.903 1934.1L835.851 1927.11L790.685 1873.25L783.493 1890.91ZM769.423 1791.88L699.475 1798.87L744.641 1852.73L751.833 1835.07L780.923 1846.92L791.321 1821.39L762.231 1809.54L769.423 1791.88ZM709.593 1715.45L680.503 1703.61L670.105 1729.14L699.195 1740.98L692.003 1758.64L761.951 1751.66L716.785 1697.79L709.593 1715.45ZM695.523 1616.43L625.575 1623.41L670.741 1677.28L677.933 1659.62L707.023 1671.47L717.421 1645.94L688.331 1634.09L695.523 1616.43ZM635.693 1540L606.603 1528.15L596.205 1553.68L625.295 1565.53L618.103 1583.19L688.051 1576.21L642.885 1522.34L635.693 1540ZM621.623 1440.98L551.675 1447.96L596.841 1501.83L604.033 1484.17L633.123 1496.01L643.521 1470.48L614.431 1458.64L621.623 1440.98ZM561.806 1364.58L532.716 1352.73L522.318 1378.26L551.408 1390.11L544.216 1407.77L614.164 1400.78L568.998 1346.92L561.806 1364.58ZM547.736 1265.55L477.788 1272.54L522.954 1326.4L530.146 1308.74L559.236 1320.59L569.634 1295.06L540.544 1283.21L547.736 1265.55ZM487.906 1189.12L458.816 1177.28L448.418 1202.81L477.508 1214.65L470.316 1232.31L540.264 1225.33L495.098 1171.46L487.906 1189.12ZM473.836 1090.1L403.888 1097.08L449.054 1150.95L456.246 1133.29L485.336 1145.14L495.734 1119.61L466.645 1107.76L473.836 1090.1ZM414.006 1013.67L384.916 1001.82L374.518 1027.35L403.608 1039.2L396.416 1056.86L466.364 1049.88L421.198 996.011L414.006 1013.67ZM399.936 914.648L329.988 921.631L375.155 975.496L382.346 957.837L411.436 969.685L421.834 944.153L392.745 932.306L399.936 914.648ZM340.106 838.216L311.016 826.369L300.618 851.9L329.708 863.747L322.516 881.406L392.464 874.423L347.298 820.557L340.106 838.216ZM617.184 2165.88L547.236 2172.86L592.403 2226.72L599.594 2209.07L628.684 2220.91L639.082 2195.38L609.993 2183.53L617.184 2165.88ZM557.354 2089.44L528.264 2077.6L517.866 2103.13L546.956 2114.98L539.764 2132.63L609.712 2125.65L564.546 2071.79L557.354 2089.44ZM543.284 1990.42L473.336 1997.41L518.503 2051.27L525.694 2033.61L554.784 2045.46L565.183 2019.93L536.093 2008.08L543.284 1990.42ZM483.454 1913.99L454.364 1902.14L443.966 1927.67L473.056 1939.52L465.864 1957.18L535.812 1950.2L490.646 1896.33L483.454 1913.99ZM469.385 1814.97L399.437 1821.95L444.603 1875.82L451.794 1858.16L480.884 1870.01L491.283 1844.47L462.193 1832.63L469.385 1814.97ZM409.554 1738.54L380.465 1726.69L370.066 1752.22L399.156 1764.07L391.964 1781.73L461.912 1774.74L416.746 1720.88L409.554 1738.54ZM395.485 1639.52L325.537 1646.5L370.703 1700.36L377.895 1682.71L406.984 1694.55L417.383 1669.02L388.293 1657.17L395.485 1639.52ZM335.655 1563.08L306.565 1551.24L296.166 1576.77L325.256 1588.61L318.065 1606.27L388.013 1599.29L342.846 1545.42L335.655 1563.08ZM321.598 1464.09L251.65 1471.08L296.816 1524.94L304.008 1507.28L333.098 1519.13L343.496 1493.6L314.406 1481.75L321.598 1464.09ZM261.768 1387.66L232.678 1375.81L222.28 1401.35L251.37 1413.19L244.178 1430.85L314.126 1423.87L268.96 1370L261.768 1387.66ZM247.698 1288.64L177.75 1295.62L222.916 1349.49L230.108 1331.83L259.198 1343.68L269.596 1318.14L240.506 1306.3L247.698 1288.64ZM187.868 1212.21L158.778 1200.36L148.38 1225.89L177.47 1237.74L170.278 1255.4L240.226 1248.41L195.06 1194.55L187.868 1212.21ZM173.798 1113.19L103.85 1120.17L149.016 1174.03L156.208 1156.38L185.298 1168.22L195.696 1142.69L166.606 1130.84L173.798 1113.19ZM113.968 1036.75L84.878 1024.91L74.4798 1050.44L103.57 1062.29L96.3779 1079.94L166.326 1072.96L121.16 1019.1L113.968 1036.75ZM99.898 937.732L29.95 944.715L75.1161 998.58L82.308 980.922L111.398 992.769L121.796 967.238L92.7062 955.39L99.898 937.732ZM40.068 861.3L10.9781 849.453L0.579819 874.984L29.6697 886.832L22.4779 904.49L92.426 897.507L47.2598 843.642L40.068 861.3ZM150.644 813.068L80.6961 820.051L125.862 873.916L133.054 856.258L162.144 868.105L172.542 842.574L143.452 830.726L150.644 813.068ZM682 2140.23L652.911 2128.39L642.512 2153.92L671.602 2165.77L664.41 2183.42L734.358 2176.44L689.192 2122.58L682 2140.23ZM667.931 2041.21L597.983 2048.2L643.149 2102.06L650.341 2084.4L679.43 2096.25L689.829 2070.72L660.739 2058.87L667.931 2041.21ZM608.101 1964.78L579.011 1952.93L568.612 1978.46L597.702 1990.31L590.511 2007.97L660.458 2000.99L615.292 1947.12L608.101 1964.78ZM594.031 1865.76L524.083 1872.74L569.249 1926.61L576.441 1908.95L605.531 1920.8L615.929 1895.26L586.839 1883.42L594.031 1865.76ZM534.201 1789.33L505.111 1777.48L494.712 1803.01L523.802 1814.86L516.611 1832.52L586.559 1825.53L541.392 1771.67L534.201 1789.33ZM520.131 1690.3L450.183 1697.29L495.349 1751.15L502.541 1733.49L531.631 1745.34L542.029 1719.81L512.939 1707.96L520.131 1690.3ZM460.301 1613.87L431.211 1602.03L420.813 1627.56L449.902 1639.4L442.711 1657.06L512.659 1650.08L467.492 1596.21L460.301 1613.87ZM446.231 1514.85L376.283 1521.83L421.449 1575.7L428.641 1558.04L457.731 1569.89L468.129 1544.36L439.039 1532.51L446.231 1514.85ZM386.414 1438.45L357.324 1426.6L346.926 1452.14L376.016 1463.98L368.824 1481.64L438.772 1474.66L393.606 1420.79L386.414 1438.45ZM372.344 1339.43L302.396 1346.41L347.562 1400.28L354.754 1382.62L383.844 1394.47L394.242 1368.93L365.152 1357.09L372.344 1339.43ZM312.514 1263L283.424 1251.15L273.026 1276.68L302.116 1288.53L294.924 1306.19L364.872 1299.2L319.706 1245.34L312.514 1263ZM298.444 1163.98L228.496 1170.96L273.662 1224.82L280.854 1207.17L309.944 1219.01L320.342 1193.48L291.252 1181.63L298.444 1163.98ZM238.614 1087.54L209.524 1075.7L199.126 1101.23L228.216 1113.08L221.024 1130.73L290.972 1123.75L245.806 1069.89L238.614 1087.54ZM224.544 988.522L154.596 995.505L199.762 1049.37L206.954 1031.71L236.044 1043.56L246.442 1018.03L217.352 1006.18L224.544 988.522ZM164.714 912.09L135.624 900.243L125.226 925.774L154.316 937.621L147.124 955.28L217.072 948.297L171.906 894.431L164.714 912.09ZM1844.9 1648.77L1774.95 1655.75L1820.12 1709.62L1827.31 1691.96L1856.4 1703.81L1866.8 1678.28L1837.71 1666.43L1844.9 1648.77ZM1785.07 1572.34L1755.98 1560.49L1745.58 1586.02L1774.67 1597.87L1767.48 1615.53L1837.43 1608.55L1792.26 1554.68L1785.07 1572.34ZM1771 1473.32L1701.05 1480.3L1746.22 1534.17L1753.41 1516.51L1782.5 1528.35L1792.9 1502.82L1763.81 1490.98L1771 1473.32ZM1711.17 1396.89L1682.08 1385.04L1671.68 1410.57L1700.77 1422.42L1693.58 1440.08L1763.53 1433.09L1718.36 1379.23L1711.17 1396.89ZM1697.1 1297.86L1627.15 1304.85L1672.32 1358.71L1679.51 1341.05L1708.6 1352.9L1719 1327.37L1689.91 1315.52L1697.1 1297.86ZM1637.27 1221.43L1608.18 1209.58L1597.78 1235.12L1626.87 1246.96L1619.68 1264.62L1689.63 1257.64L1644.46 1203.77L1637.27 1221.43ZM1623.2 1122.41L1553.25 1129.39L1598.42 1183.26L1605.61 1165.6L1634.7 1177.45L1645.1 1151.92L1616.01 1140.07L1623.2 1122.41ZM1563.37 1045.98L1534.28 1034.13L1523.88 1059.66L1552.97 1071.51L1545.78 1089.17L1615.73 1082.18L1570.56 1028.32L1563.37 1045.98ZM1549.31 946.987L1479.36 953.971L1524.53 1007.84L1531.72 990.177L1560.81 1002.02L1571.21 976.493L1542.12 964.646L1549.31 946.987ZM1489.48 870.556L1460.39 858.708L1449.99 884.24L1479.08 896.087L1471.89 913.746L1541.84 906.762L1496.67 852.897L1489.48 870.556ZM1475.41 771.534L1405.46 778.517L1450.63 832.382L1457.82 814.724L1486.91 826.571L1497.31 801.039L1468.22 789.192L1475.41 771.534ZM1415.58 695.102L1386.49 683.255L1376.09 708.786L1405.18 720.634L1397.99 738.292L1467.94 731.309L1422.77 677.444L1415.58 695.102ZM1401.51 596.08L1331.56 603.063L1376.73 656.929L1383.92 639.27L1413.01 651.117L1423.41 625.586L1394.32 613.739L1401.51 596.08ZM1341.68 519.648L1312.59 507.801L1302.19 533.333L1331.28 545.18L1324.09 562.838L1394.04 555.855L1348.87 501.99L1341.68 519.648ZM1327.61 420.626L1257.66 427.61L1302.83 481.475L1310.02 463.816L1339.11 475.664L1349.51 450.132L1320.42 438.285L1327.61 420.626ZM1267.78 344.195L1238.69 332.347L1228.29 357.879L1257.38 369.726L1250.19 387.385L1320.14 380.401L1274.97 326.536L1267.78 344.195ZM1378.36 295.963L1308.41 302.946L1353.58 356.811L1360.77 339.153L1389.86 351L1400.26 325.468L1371.17 313.621L1378.36 295.963ZM1909.72 1623.13L1880.63 1611.28L1870.23 1636.81L1899.32 1648.66L1892.12 1666.32L1962.07 1659.34L1916.91 1605.47L1909.72 1623.13ZM1895.65 1524.11L1825.7 1531.09L1870.86 1584.96L1878.06 1567.3L1907.14 1579.14L1917.54 1553.61L1888.45 1541.77L1895.65 1524.11ZM1835.82 1447.68L1806.73 1435.83L1796.33 1461.36L1825.42 1473.21L1818.23 1490.87L1888.17 1483.88L1843.01 1430.02L1835.82 1447.68ZM1821.75 1348.65L1751.8 1355.64L1796.96 1409.5L1804.16 1391.84L1833.25 1403.69L1843.64 1378.16L1814.55 1366.31L1821.75 1348.65ZM1761.92 1272.22L1732.83 1260.37L1722.43 1285.91L1751.52 1297.75L1744.33 1315.41L1814.27 1308.43L1769.11 1254.56L1761.92 1272.22ZM1747.85 1173.2L1677.9 1180.18L1723.06 1234.05L1730.26 1216.39L1759.35 1228.24L1769.74 1202.71L1740.65 1190.86L1747.85 1173.2ZM1688.02 1096.77L1658.93 1084.92L1648.53 1110.45L1677.62 1122.3L1670.43 1139.96L1740.37 1132.97L1695.21 1079.11L1688.02 1096.77ZM1673.95 997.746L1604 1004.73L1649.16 1058.59L1656.36 1040.94L1685.45 1052.78L1695.84 1027.25L1666.75 1015.4L1673.95 997.746ZM1614.13 921.345L1585.04 909.498L1574.64 935.03L1603.73 946.877L1596.54 964.535L1666.49 957.552L1621.32 903.687L1614.13 921.345ZM1600.06 822.323L1530.11 829.307L1575.28 883.172L1582.47 865.513L1611.56 877.361L1621.96 851.829L1592.87 839.982L1600.06 822.323ZM1540.23 745.892L1511.14 734.045L1500.74 759.576L1529.83 771.423L1522.64 789.082L1592.59 782.098L1547.42 728.233L1540.23 745.892ZM1526.16 646.87L1456.21 653.853L1501.38 707.718L1508.57 690.06L1537.66 701.907L1548.06 676.376L1518.97 664.528L1526.16 646.87ZM1466.33 570.438L1437.24 558.591L1426.84 584.122L1455.93 595.97L1448.74 613.628L1518.69 606.645L1473.52 552.78L1466.33 570.438ZM1452.26 471.416L1382.31 478.399L1427.48 532.265L1434.67 514.606L1463.76 526.453L1474.16 500.922L1445.07 489.075L1452.26 471.416ZM1392.43 394.985L1363.34 383.137L1352.94 408.669L1382.03 420.516L1374.84 438.175L1444.79 431.191L1399.62 377.326L1392.43 394.985ZM1669.51 1722.64L1599.56 1729.63L1644.72 1783.49L1651.92 1765.83L1681.01 1777.68L1691.4 1752.15L1662.31 1740.3L1669.51 1722.64ZM1609.68 1646.21L1580.59 1634.37L1570.19 1659.9L1599.28 1671.74L1592.09 1689.4L1662.03 1682.42L1616.87 1628.55L1609.68 1646.21ZM1595.61 1547.19L1525.66 1554.17L1570.82 1608.04L1578.02 1590.38L1607.11 1602.23L1617.5 1576.7L1588.41 1564.85L1595.61 1547.19ZM1535.78 1470.76L1506.69 1458.91L1496.29 1484.44L1525.38 1496.29L1518.19 1513.95L1588.13 1506.97L1542.97 1453.1L1535.78 1470.76ZM1521.71 1371.74L1451.76 1378.72L1496.92 1432.59L1504.12 1414.93L1533.21 1426.77L1543.6 1401.24L1514.52 1389.4L1521.71 1371.74ZM1461.88 1295.31L1432.79 1283.46L1422.39 1308.99L1451.48 1320.84L1444.29 1338.5L1514.23 1331.51L1469.07 1277.65L1461.88 1295.31ZM1447.81 1196.28L1377.86 1203.27L1423.02 1257.13L1430.22 1239.47L1459.31 1251.32L1469.7 1225.79L1440.62 1213.94L1447.81 1196.28ZM1387.98 1119.85L1358.89 1108L1348.49 1133.54L1377.58 1145.38L1370.39 1163.04L1440.33 1156.06L1395.17 1102.19L1387.98 1119.85ZM1373.92 1020.86L1303.97 1027.84L1349.14 1081.71L1356.33 1064.05L1385.42 1075.9L1395.82 1050.37L1366.73 1038.52L1373.92 1020.86ZM1314.09 944.43L1285 932.583L1274.6 958.114L1303.69 969.961L1296.5 987.62L1366.45 980.636L1321.28 926.771L1314.09 944.43ZM1300.02 845.408L1230.07 852.391L1275.24 906.256L1282.43 888.598L1311.52 900.445L1321.92 874.914L1292.83 863.066L1300.02 845.408ZM1240.19 768.976L1211.1 757.129L1200.7 782.66L1229.79 794.508L1222.6 812.166L1292.55 805.183L1247.38 751.318L1240.19 768.976ZM1226.12 669.954L1156.17 676.937L1201.34 730.803L1208.53 713.144L1237.62 724.991L1248.02 699.46L1218.93 687.613L1226.12 669.954ZM1166.29 593.522L1137.2 581.675L1126.8 607.207L1155.89 619.054L1148.7 636.712L1218.65 629.729L1173.48 575.864L1166.29 593.522ZM1152.22 494.5L1082.27 501.484L1127.44 555.349L1134.63 537.69L1163.72 549.538L1174.12 524.006L1145.03 512.159L1152.22 494.5ZM1092.39 418.069L1063.3 406.222L1052.9 431.753L1081.99 443.6L1074.8 461.259L1144.75 454.276L1099.58 400.41L1092.39 418.069ZM1202.97 369.837L1133.02 376.82L1178.18 430.685L1185.38 413.027L1214.47 424.874L1224.86 399.342L1195.77 387.495L1202.97 369.837ZM1734.32 1697L1705.23 1685.16L1694.83 1710.69L1723.92 1722.53L1716.73 1740.19L1786.68 1733.21L1741.51 1679.34L1734.32 1697ZM1720.25 1597.98L1650.3 1604.96L1695.47 1658.83L1702.66 1641.17L1731.75 1653.02L1742.15 1627.49L1713.06 1615.64L1720.25 1597.98ZM1660.42 1521.55L1631.33 1509.7L1620.93 1535.23L1650.02 1547.08L1642.83 1564.74L1712.78 1557.76L1667.61 1503.89L1660.42 1521.55ZM1646.35 1422.53L1576.4 1429.51L1621.57 1483.38L1628.76 1465.72L1657.85 1477.56L1668.25 1452.03L1639.16 1440.19L1646.35 1422.53ZM1586.52 1346.1L1557.43 1334.25L1547.03 1359.78L1576.12 1371.63L1568.93 1389.29L1638.88 1382.3L1593.71 1328.44L1586.52 1346.1ZM1572.45 1247.07L1502.5 1254.06L1547.67 1307.92L1554.86 1290.26L1583.95 1302.11L1594.35 1276.58L1565.26 1264.73L1572.45 1247.07ZM1512.62 1170.64L1483.53 1158.79L1473.13 1184.33L1502.22 1196.17L1495.03 1213.83L1564.98 1206.85L1519.81 1152.98L1512.62 1170.64ZM1498.55 1071.62L1428.61 1078.6L1473.77 1132.47L1480.96 1114.81L1510.05 1126.66L1520.45 1101.13L1491.36 1089.28L1498.55 1071.62ZM1438.74 995.22L1409.65 983.372L1399.25 1008.9L1428.34 1020.75L1421.15 1038.41L1491.09 1031.43L1445.93 977.561L1438.74 995.22ZM1424.67 896.198L1354.72 903.181L1399.88 957.046L1407.08 939.388L1436.17 951.235L1446.56 925.703L1417.47 913.856L1424.67 896.198ZM1364.84 819.766L1335.75 807.919L1325.35 833.45L1354.44 845.297L1347.25 862.956L1417.19 855.973L1372.03 802.107L1364.84 819.766ZM1350.77 720.744L1280.82 727.727L1325.98 781.592L1333.18 763.934L1362.27 775.781L1372.66 750.25L1343.57 738.402L1350.77 720.744ZM1290.94 644.312L1261.85 632.465L1251.45 657.996L1280.54 669.844L1273.35 687.502L1343.29 680.519L1298.13 626.654L1290.94 644.312ZM1276.87 545.29L1206.92 552.274L1252.08 606.139L1259.28 588.48L1288.37 600.328L1298.76 574.796L1269.67 562.949L1276.87 545.29ZM1217.04 468.859L1187.95 457.011L1177.55 482.543L1206.64 494.39L1199.45 512.049L1269.39 505.065L1224.23 451.2L1217.04 468.859ZM1494.11 1796.52L1424.17 1803.5L1469.33 1857.37L1476.52 1839.71L1505.61 1851.56L1516.01 1826.02L1486.92 1814.18L1494.11 1796.52ZM1434.28 1720.09L1405.19 1708.24L1394.8 1733.77L1423.89 1745.62L1416.69 1763.28L1486.64 1756.29L1441.48 1702.43L1434.28 1720.09ZM1420.21 1621.07L1350.27 1628.05L1395.43 1681.91L1402.62 1664.26L1431.71 1676.1L1442.11 1650.57L1413.02 1638.72L1420.21 1621.07ZM1360.38 1544.63L1331.29 1532.79L1320.9 1558.32L1349.99 1570.17L1342.79 1587.82L1412.74 1580.84L1367.58 1526.98L1360.38 1544.63ZM1346.31 1445.61L1276.37 1452.59L1321.53 1506.46L1328.72 1488.8L1357.81 1500.65L1368.21 1475.12L1339.12 1463.27L1346.31 1445.61ZM1286.48 1369.18L1257.39 1357.33L1247 1382.86L1276.09 1394.71L1268.89 1412.37L1338.84 1405.39L1293.68 1351.52L1286.48 1369.18ZM1272.41 1270.16L1202.47 1277.14L1247.63 1331.01L1254.82 1313.35L1283.91 1325.2L1294.31 1299.66L1265.22 1287.82L1272.41 1270.16ZM1212.58 1193.73L1183.49 1181.88L1173.1 1207.41L1202.19 1219.26L1194.99 1236.92L1264.94 1229.93L1219.78 1176.07L1212.58 1193.73ZM1198.53 1094.74L1128.58 1101.72L1173.75 1155.58L1180.94 1137.93L1210.03 1149.77L1220.43 1124.24L1191.34 1112.39L1198.53 1094.74ZM1138.7 1018.3L1109.61 1006.46L1099.21 1031.99L1128.3 1043.84L1121.11 1061.49L1191.06 1054.51L1145.89 1000.65L1138.7 1018.3ZM1124.63 919.282L1054.68 926.265L1099.85 980.13L1107.04 962.472L1136.13 974.319L1146.53 948.788L1117.44 936.94L1124.63 919.282ZM1064.8 842.85L1035.71 831.003L1025.31 856.534L1054.4 868.382L1047.21 886.04L1117.16 879.057L1071.99 825.192L1064.8 842.85ZM1050.73 743.828L980.78 750.812L1025.95 804.677L1033.14 787.018L1062.23 798.865L1072.63 773.334L1043.54 761.487L1050.73 743.828ZM990.898 667.397L961.808 655.549L951.41 681.081L980.5 692.928L973.308 710.587L1043.26 703.603L998.09 649.738L990.898 667.397ZM976.828 568.375L906.88 575.358L952.046 629.223L959.238 611.565L988.328 623.412L998.726 597.88L969.636 586.033L976.828 568.375ZM916.998 491.943L887.908 480.096L877.51 505.627L906.6 517.474L899.408 535.133L969.356 528.15L924.19 474.284L916.998 491.943ZM1027.57 443.711L957.626 450.694L1002.79 504.559L1009.98 486.901L1039.07 498.748L1049.47 473.216L1020.38 461.369L1027.57 443.711ZM1558.93 1770.88L1529.84 1759.03L1519.44 1784.56L1548.53 1796.41L1541.34 1814.07L1611.29 1807.08L1566.12 1753.22L1558.93 1770.88ZM1544.86 1671.86L1474.91 1678.84L1520.08 1732.7L1527.27 1715.04L1556.36 1726.89L1566.76 1701.36L1537.67 1689.51L1544.86 1671.86ZM1485.03 1595.42L1455.94 1583.58L1445.54 1609.11L1474.63 1620.95L1467.44 1638.61L1537.39 1631.63L1492.22 1577.76L1485.03 1595.42ZM1470.96 1496.4L1401.01 1503.38L1446.18 1557.25L1453.37 1539.59L1482.46 1551.44L1492.86 1525.91L1463.77 1514.06L1470.96 1496.4ZM1411.13 1419.97L1382.04 1408.12L1371.64 1433.65L1400.73 1445.5L1393.54 1463.16L1463.49 1456.18L1418.32 1402.31L1411.13 1419.97ZM1397.06 1320.95L1327.11 1327.93L1372.28 1381.8L1379.47 1364.14L1408.56 1375.98L1418.96 1350.45L1389.87 1338.61L1397.06 1320.95ZM1337.23 1244.52L1308.14 1232.67L1297.74 1258.2L1326.83 1270.05L1319.64 1287.71L1389.59 1280.72L1344.42 1226.86L1337.23 1244.52ZM1323.16 1145.49L1253.21 1152.48L1298.38 1206.34L1305.57 1188.68L1334.66 1200.53L1345.06 1175L1315.97 1163.15L1323.16 1145.49ZM1263.34 1069.09L1234.25 1057.25L1223.86 1082.78L1252.95 1094.63L1245.75 1112.28L1315.7 1105.3L1270.54 1051.44L1263.34 1069.09ZM1249.27 970.072L1179.33 977.055L1224.49 1030.92L1231.68 1013.26L1260.77 1025.11L1271.17 999.577L1242.08 987.73L1249.27 970.072ZM1189.44 893.64L1160.35 881.793L1149.96 907.324L1179.05 919.171L1171.85 936.83L1241.8 929.847L1196.64 875.982L1189.44 893.64ZM1175.37 794.618L1105.43 801.601L1150.59 855.466L1157.78 837.808L1186.87 849.655L1197.27 824.124L1168.18 812.277L1175.37 794.618ZM1115.54 718.186L1086.45 706.339L1076.06 731.871L1105.15 743.718L1097.95 761.376L1167.9 754.393L1122.74 700.528L1115.54 718.186ZM1101.47 619.164L1031.53 626.148L1076.69 680.013L1083.88 662.354L1112.97 674.202L1123.37 648.67L1094.28 636.823L1101.47 619.164ZM1041.64 542.733L1012.55 530.885L1002.16 556.417L1031.25 568.264L1024.05 585.923L1094 578.939L1048.84 525.074L1041.64 542.733ZM1318.72 1870.39L1248.77 1877.38L1293.94 1931.24L1301.13 1913.58L1330.22 1925.43L1340.62 1899.9L1311.53 1888.05L1318.72 1870.39ZM1258.89 1793.96L1229.8 1782.11L1219.4 1807.65L1248.49 1819.49L1241.3 1837.15L1311.25 1830.17L1266.08 1776.3L1258.89 1793.96ZM1244.82 1694.94L1174.87 1701.92L1220.04 1755.79L1227.23 1738.13L1256.32 1749.98L1266.72 1724.45L1237.63 1712.6L1244.82 1694.94ZM1184.99 1618.51L1155.9 1606.66L1145.5 1632.19L1174.59 1644.04L1167.4 1661.7L1237.35 1654.71L1192.18 1600.85L1184.99 1618.51ZM1170.92 1519.49L1100.97 1526.47L1146.14 1580.33L1153.33 1562.68L1182.42 1574.52L1192.82 1548.99L1163.73 1537.14L1170.92 1519.49ZM1111.09 1443.05L1082 1431.21L1071.6 1456.74L1100.69 1468.59L1093.5 1486.24L1163.45 1479.26L1118.28 1425.4L1111.09 1443.05ZM1097.02 1344.03L1027.07 1351.02L1072.24 1404.88L1079.43 1387.22L1108.52 1399.07L1118.92 1373.54L1089.83 1361.69L1097.02 1344.03ZM1037.19 1267.6L1008.1 1255.75L997.704 1281.28L1026.79 1293.13L1019.6 1310.79L1089.55 1303.81L1044.38 1249.94L1037.19 1267.6ZM1023.14 1168.61L953.188 1175.59L998.354 1229.46L1005.55 1211.8L1034.64 1223.65L1045.03 1198.12L1015.94 1186.27L1023.14 1168.61ZM963.306 1092.18L934.216 1080.33L923.817 1105.86L952.907 1117.71L945.716 1135.37L1015.66 1128.38L970.497 1074.52L963.306 1092.18ZM949.236 993.156L879.288 1000.14L924.454 1054L931.646 1036.35L960.735 1048.19L971.134 1022.66L942.044 1010.81L949.236 993.156ZM889.406 916.724L860.316 904.877L849.917 930.409L879.007 942.256L871.816 959.914L941.764 952.931L896.597 899.066L889.406 916.724ZM875.336 817.702L805.388 824.686L850.554 878.551L857.746 860.892L886.836 872.74L897.234 847.208L868.144 835.361L875.336 817.702ZM815.506 741.271L786.416 729.423L776.018 754.955L805.107 766.802L797.916 784.461L867.864 777.477L822.697 723.612L815.506 741.271ZM801.436 642.249L731.488 649.232L776.654 703.097L783.846 685.439L812.936 697.286L823.334 671.754L794.244 659.907L801.436 642.249ZM741.606 565.817L712.516 553.97L702.118 579.501L731.208 591.348L724.016 609.007L793.964 602.024L748.798 548.159L741.606 565.817ZM852.182 517.585L782.234 524.568L827.4 578.433L834.592 560.775L863.682 572.622L874.08 547.091L844.99 535.243L852.182 517.585ZM1383.54 1844.75L1354.45 1832.9L1344.05 1858.44L1373.14 1870.28L1365.95 1887.94L1435.9 1880.96L1390.73 1827.09L1383.54 1844.75ZM1369.47 1745.73L1299.52 1752.71L1344.69 1806.58L1351.88 1788.92L1380.97 1800.77L1391.37 1775.23L1362.28 1763.39L1369.47 1745.73ZM1309.64 1669.3L1280.55 1657.45L1270.15 1682.98L1299.24 1694.83L1292.05 1712.49L1362 1705.5L1316.83 1651.64L1309.64 1669.3ZM1295.57 1570.28L1225.62 1577.26L1270.79 1631.12L1277.98 1613.47L1307.07 1625.31L1317.47 1599.78L1288.38 1587.93L1295.57 1570.28ZM1235.74 1493.84L1206.65 1482L1196.25 1507.53L1225.34 1519.38L1218.15 1537.03L1288.1 1530.05L1242.93 1476.19L1235.74 1493.84ZM1221.67 1394.82L1151.72 1401.81L1196.89 1455.67L1204.08 1438.01L1233.17 1449.86L1243.57 1424.33L1214.48 1412.48L1221.67 1394.82ZM1161.84 1318.39L1132.75 1306.54L1122.35 1332.07L1151.44 1343.92L1144.25 1361.58L1214.2 1354.6L1169.03 1300.73L1161.84 1318.39ZM1147.77 1219.37L1077.82 1226.35L1122.99 1280.22L1130.18 1262.56L1159.27 1274.41L1169.67 1248.87L1140.58 1237.03L1147.77 1219.37ZM1087.95 1142.97L1058.86 1131.12L1048.46 1156.65L1077.55 1168.5L1070.36 1186.16L1140.31 1179.17L1095.14 1125.31L1087.95 1142.97ZM1073.88 1043.95L1003.93 1050.93L1049.1 1104.79L1056.29 1087.14L1085.38 1098.98L1095.78 1073.45L1066.69 1061.6L1073.88 1043.95ZM1014.05 967.514L984.962 955.667L974.564 981.198L1003.65 993.046L996.462 1010.7L1066.41 1003.72L1021.24 949.856L1014.05 967.514ZM999.982 868.492L930.034 875.475L975.2 929.341L982.392 911.682L1011.48 923.529L1021.88 897.998L992.79 886.151L999.982 868.492ZM940.152 792.06L911.062 780.213L900.664 805.745L929.754 817.592L922.562 835.25L992.51 828.267L947.344 774.402L940.152 792.06ZM926.082 693.038L856.134 700.022L901.3 753.887L908.492 736.228L937.582 748.076L947.98 722.544L918.89 710.697L926.082 693.038ZM866.252 616.607L837.162 604.76L826.764 630.291L855.854 642.138L848.662 659.797L918.61 652.813L873.444 598.948L866.252 616.607ZM2546.44 1353.29L2476.49 1360.27L2521.65 1414.14L2528.85 1396.48L2557.94 1408.32L2568.33 1382.79L2539.24 1370.95L2546.44 1353.29ZM2486.61 1276.86L2457.52 1265.01L2447.12 1290.54L2476.21 1302.39L2469.02 1320.05L2538.96 1313.06L2493.8 1259.2L2486.61 1276.86ZM2472.54 1177.83L2402.59 1184.82L2447.76 1238.68L2454.95 1221.02L2484.04 1232.87L2494.43 1207.34L2465.34 1195.49L2472.54 1177.83ZM2412.71 1101.4L2383.62 1089.55L2373.22 1115.09L2402.31 1126.93L2395.12 1144.59L2465.06 1137.61L2419.9 1083.74L2412.71 1101.4ZM2398.64 1002.38L2328.69 1009.36L2373.86 1063.23L2381.05 1045.57L2410.14 1057.42L2420.54 1031.89L2391.45 1020.04L2398.64 1002.38ZM2338.81 925.949L2309.72 914.101L2299.32 939.633L2328.41 951.48L2321.22 969.138L2391.16 962.155L2346 908.29L2338.81 925.949ZM2324.74 826.927L2254.79 833.91L2299.96 887.775L2307.15 870.117L2336.24 881.964L2346.64 856.432L2317.55 844.585L2324.74 826.927ZM2264.91 750.495L2235.82 738.648L2225.42 764.179L2254.51 776.026L2247.32 793.685L2317.26 786.702L2272.1 732.836L2264.91 750.495ZM2250.85 651.504L2180.9 658.488L2226.07 712.353L2233.26 694.694L2262.35 706.541L2272.75 681.01L2243.66 669.163L2250.85 651.504ZM2191.02 575.073L2161.93 563.225L2151.53 588.757L2180.62 600.604L2173.43 618.263L2243.38 611.279L2198.21 557.414L2191.02 575.073ZM2176.95 476.051L2107 483.034L2152.17 536.899L2159.36 519.241L2188.45 531.088L2198.85 505.556L2169.76 493.709L2176.95 476.051ZM2117.12 399.619L2088.03 387.772L2077.63 413.303L2106.72 425.15L2099.53 442.809L2169.48 435.826L2124.31 381.96L2117.12 399.619ZM2103.05 300.597L2033.1 307.58L2078.27 361.445L2085.46 343.787L2114.55 355.634L2124.95 330.103L2095.86 318.255L2103.05 300.597ZM2043.22 224.165L2014.13 212.318L2003.73 237.849L2032.82 249.697L2025.63 267.355L2095.58 260.372L2050.41 206.507L2043.22 224.165ZM2029.15 125.143L1959.2 132.127L2004.37 185.992L2011.56 168.333L2040.65 180.18L2051.05 154.649L2021.96 142.802L2029.15 125.143ZM1969.32 48.7116L1940.23 36.8644L1929.83 62.3958L1958.92 74.243L1951.73 91.9016L2021.68 84.9182L1976.51 31.0531L1969.32 48.7116ZM2062.31 43.6693L2091.4 55.5166L2101.79 29.9852L2072.7 18.1379L2079.9 0.47942L2009.95 7.46268L2055.11 61.3279L2062.31 43.6693ZM2611.25 1327.65L2582.16 1315.8L2571.76 1341.33L2600.85 1353.18L2593.66 1370.84L2663.61 1363.85L2618.44 1309.99L2611.25 1327.65ZM2597.18 1228.62L2527.23 1235.61L2572.4 1289.47L2579.59 1271.81L2608.68 1283.66L2619.08 1258.13L2589.99 1246.28L2597.18 1228.62ZM2537.35 1152.19L2508.26 1140.34L2497.86 1165.88L2526.95 1177.72L2519.76 1195.38L2589.71 1188.4L2544.54 1134.53L2537.35 1152.19ZM2523.28 1053.17L2453.33 1060.15L2498.5 1114.02L2505.69 1096.36L2534.78 1108.21L2545.18 1082.68L2516.09 1070.83L2523.28 1053.17ZM2463.45 976.738L2434.36 964.891L2423.96 990.423L2453.05 1002.27L2445.86 1019.93L2515.81 1012.95L2470.64 959.08L2463.45 976.738ZM2449.38 877.716L2379.44 884.7L2424.6 938.565L2431.79 920.906L2460.88 932.754L2471.28 907.222L2442.19 895.375L2449.38 877.716ZM2389.55 801.285L2360.46 789.437L2350.06 814.969L2379.15 826.816L2371.96 844.475L2441.91 837.491L2396.74 783.626L2389.55 801.285ZM2375.48 702.263L2305.54 709.246L2350.7 763.111L2357.89 745.453L2386.98 757.3L2397.38 731.768L2368.29 719.921L2375.48 702.263ZM2315.67 625.862L2286.58 614.015L2276.18 639.547L2305.27 651.394L2298.08 669.052L2368.02 662.069L2322.86 608.204L2315.67 625.862ZM2301.6 526.84L2231.65 533.824L2276.81 587.689L2284.01 570.03L2313.1 581.878L2323.49 556.346L2294.4 544.499L2301.6 526.84ZM2241.77 450.409L2212.68 438.561L2202.28 464.093L2231.37 475.94L2224.18 493.599L2294.12 486.615L2248.96 432.75L2241.77 450.409ZM2227.7 351.387L2157.75 358.37L2202.91 412.235L2210.11 394.577L2239.2 406.424L2249.59 380.892L2220.5 369.045L2227.7 351.387ZM2167.87 274.955L2138.78 263.108L2128.38 288.639L2157.47 300.486L2150.28 318.145L2220.22 311.162L2175.06 257.297L2167.87 274.955ZM2153.8 175.933L2083.85 182.916L2129.01 236.782L2136.21 219.123L2165.3 230.97L2175.69 205.439L2146.6 193.592L2153.8 175.933ZM2093.97 99.5014L2064.88 87.6541L2054.48 113.186L2083.57 125.033L2076.38 142.691L2146.32 135.708L2101.16 81.8429L2093.97 99.5014ZM2371.08 1427.15L2301.13 1434.13L2346.29 1488L2353.49 1470.34L2382.58 1482.19L2392.97 1456.65L2363.88 1444.81L2371.08 1427.15ZM2311.25 1350.72L2282.16 1338.87L2271.76 1364.4L2300.85 1376.25L2293.66 1393.91L2363.6 1386.92L2318.44 1333.06L2311.25 1350.72ZM2297.18 1251.69L2227.23 1258.68L2272.39 1312.54L2279.59 1294.88L2308.68 1306.73L2319.07 1281.2L2289.98 1269.35L2297.18 1251.69ZM2237.35 1175.26L2208.26 1163.42L2197.86 1188.95L2226.95 1200.79L2219.76 1218.45L2289.7 1211.47L2244.54 1157.6L2237.35 1175.26ZM2223.28 1076.24L2153.33 1083.22L2198.49 1137.09L2205.69 1119.43L2234.78 1131.28L2245.17 1105.75L2216.08 1093.9L2223.28 1076.24ZM2163.45 999.809L2134.36 987.962L2123.96 1013.49L2153.05 1025.34L2145.86 1043L2215.8 1036.02L2170.64 982.151L2163.45 999.809ZM2149.38 900.787L2079.43 907.771L2124.59 961.636L2131.79 943.977L2160.88 955.825L2171.27 930.293L2142.18 918.446L2149.38 900.787ZM2089.55 824.356L2060.46 812.509L2050.06 838.04L2079.15 849.887L2071.96 867.546L2141.9 860.562L2096.74 806.697L2089.55 824.356ZM2075.49 725.365L2005.54 732.348L2050.71 786.214L2057.9 768.555L2086.99 780.402L2097.39 754.871L2068.3 743.024L2075.49 725.365ZM2015.66 648.933L1986.57 637.086L1976.17 662.618L2005.26 674.465L1998.07 692.123L2068.02 685.14L2022.85 631.275L2015.66 648.933ZM2001.59 549.911L1931.64 556.895L1976.81 610.76L1984 593.101L2013.09 604.949L2023.49 579.417L1994.4 567.57L2001.59 549.911ZM1941.76 473.48L1912.67 461.633L1902.27 487.164L1931.36 499.011L1924.17 516.67L1994.12 509.686L1948.95 455.821L1941.76 473.48ZM1927.69 374.458L1857.74 381.441L1902.91 435.306L1910.1 417.648L1939.19 429.495L1949.59 403.964L1920.5 392.116L1927.69 374.458ZM1867.86 298.026L1838.77 286.179L1828.37 311.71L1857.46 323.558L1850.27 341.216L1920.22 334.233L1875.05 280.368L1867.86 298.026ZM1853.79 199.004L1783.84 205.987L1829.01 259.853L1836.2 242.194L1865.29 254.041L1875.69 228.51L1846.6 216.663L1853.79 199.004ZM1793.96 122.573L1764.87 110.725L1754.47 136.257L1783.56 148.104L1776.37 165.762L1846.32 158.779L1801.15 104.914L1793.96 122.573ZM1904.54 74.3403L1834.59 81.3236L1879.75 135.189L1886.95 117.53L1916.04 129.377L1926.43 103.846L1897.34 91.9988L1904.54 74.3403ZM2435.89 1401.51L2406.8 1389.66L2396.4 1415.19L2425.49 1427.04L2418.3 1444.7L2488.25 1437.71L2443.08 1383.85L2435.89 1401.51ZM2421.82 1302.48L2351.87 1309.47L2397.04 1363.33L2404.23 1345.67L2433.32 1357.52L2443.72 1331.99L2414.63 1320.14L2421.82 1302.48ZM2361.99 1226.05L2332.9 1214.21L2322.5 1239.74L2351.59 1251.58L2344.4 1269.24L2414.35 1262.26L2369.18 1208.39L2361.99 1226.05ZM2347.92 1127.03L2277.97 1134.01L2323.14 1187.88L2330.33 1170.22L2359.42 1182.07L2369.82 1156.54L2340.73 1144.69L2347.92 1127.03ZM2288.09 1050.6L2259 1038.75L2248.6 1064.28L2277.69 1076.13L2270.5 1093.79L2340.45 1086.81L2295.28 1032.94L2288.09 1050.6ZM2274.02 951.577L2204.07 958.561L2249.24 1012.43L2256.43 994.767L2285.52 1006.61L2295.92 981.083L2266.83 969.236L2274.02 951.577ZM2214.19 875.146L2185.1 863.298L2174.7 888.83L2203.79 900.677L2196.6 918.336L2266.55 911.352L2221.38 857.487L2214.19 875.146ZM2200.12 776.124L2130.17 783.107L2175.34 836.972L2182.53 819.314L2211.62 831.161L2222.02 805.629L2192.93 793.782L2200.12 776.124ZM2140.31 699.723L2111.22 687.876L2100.82 713.407L2129.91 725.255L2122.72 742.913L2192.66 735.93L2147.5 682.065L2140.31 699.723ZM2126.24 600.701L2056.29 607.685L2101.45 661.55L2108.65 643.891L2137.74 655.738L2148.13 630.207L2119.04 618.36L2126.24 600.701ZM2066.41 524.27L2037.32 512.422L2026.92 537.954L2056.01 549.801L2048.82 567.46L2118.76 560.476L2073.6 506.611L2066.41 524.27ZM2052.34 425.248L1982.39 432.231L2027.55 486.096L2034.75 468.438L2063.84 480.285L2074.23 454.753L2045.14 442.906L2052.34 425.248ZM1992.51 348.816L1963.42 336.969L1953.02 362.5L1982.11 374.347L1974.92 392.006L2044.86 385.023L1999.7 331.157L1992.51 348.816ZM1978.44 249.794L1908.49 256.777L1953.65 310.642L1960.85 292.984L1989.94 304.831L2000.33 279.3L1971.24 267.452L1978.44 249.794ZM1918.61 173.362L1889.52 161.515L1879.12 187.046L1908.21 198.894L1901.02 216.552L1970.96 209.569L1925.8 155.704L1918.61 173.362ZM2195.68 1501.02L2125.74 1508.01L2170.9 1561.87L2178.09 1544.21L2207.18 1556.06L2217.58 1530.53L2188.49 1518.68L2195.68 1501.02ZM2135.85 1424.59L2106.76 1412.74L2096.37 1438.28L2125.46 1450.12L2118.26 1467.78L2188.21 1460.8L2143.05 1406.93L2135.85 1424.59ZM2121.78 1325.57L2051.84 1332.55L2097 1386.42L2104.19 1368.76L2133.28 1380.61L2143.68 1355.07L2114.59 1343.23L2121.78 1325.57ZM2061.95 1249.14L2032.86 1237.29L2022.47 1262.82L2051.56 1274.67L2044.36 1292.33L2114.31 1285.34L2069.15 1231.48L2061.95 1249.14ZM2047.88 1150.12L1977.94 1157.1L2023.1 1210.96L2030.29 1193.31L2059.38 1205.15L2069.78 1179.62L2040.69 1167.77L2047.88 1150.12ZM1988.05 1073.68L1958.96 1061.84L1948.57 1087.37L1977.66 1099.21L1970.46 1116.87L2040.41 1109.89L1995.25 1056.03L1988.05 1073.68ZM1973.98 974.662L1904.04 981.645L1949.2 1035.51L1956.39 1017.85L1985.48 1029.7L1995.88 1004.17L1966.79 992.32L1973.98 974.662ZM1914.15 898.23L1885.06 886.383L1874.67 911.914L1903.76 923.761L1896.56 941.42L1966.51 934.437L1921.35 880.571L1914.15 898.23ZM1900.1 799.239L1830.15 806.223L1875.32 860.088L1882.51 842.429L1911.6 854.276L1922 828.745L1892.91 816.898L1900.1 799.239ZM1840.27 722.808L1811.18 710.96L1800.78 736.492L1829.87 748.339L1822.68 765.997L1892.62 759.014L1847.46 705.149L1840.27 722.808ZM1826.2 623.786L1756.25 630.769L1801.42 684.634L1808.61 666.976L1837.7 678.823L1848.1 653.291L1819.01 641.444L1826.2 623.786ZM1766.37 547.354L1737.28 535.507L1726.88 561.038L1755.97 572.885L1748.78 590.544L1818.72 583.561L1773.56 529.695L1766.37 547.354ZM1752.3 448.332L1682.35 455.315L1727.52 509.18L1734.71 491.522L1763.8 503.369L1774.2 477.838L1745.11 465.99L1752.3 448.332ZM1692.47 371.9L1663.38 360.053L1652.98 385.584L1682.07 397.432L1674.88 415.09L1744.83 408.107L1699.66 354.242L1692.47 371.9ZM1678.4 272.878L1608.45 279.862L1653.62 333.727L1660.81 316.068L1689.9 327.915L1700.3 302.384L1671.21 290.537L1678.4 272.878ZM1618.57 196.447L1589.48 184.599L1579.08 210.131L1608.17 221.978L1600.98 239.637L1670.93 232.653L1625.76 178.788L1618.57 196.447ZM1729.14 148.214L1659.2 155.198L1704.36 209.063L1711.55 191.404L1740.64 203.252L1751.04 177.72L1721.95 165.873L1729.14 148.214ZM2260.5 1475.38L2231.41 1463.53L2221.01 1489.06L2250.1 1500.91L2242.91 1518.57L2312.86 1511.59L2267.69 1457.72L2260.5 1475.38ZM2246.43 1376.36L2176.48 1383.34L2221.65 1437.21L2228.84 1419.55L2257.93 1431.4L2268.33 1405.86L2239.24 1394.02L2246.43 1376.36ZM2186.6 1299.93L2157.51 1288.08L2147.11 1313.61L2176.2 1325.46L2169.01 1343.12L2238.96 1336.13L2193.79 1282.27L2186.6 1299.93ZM2172.53 1200.91L2102.58 1207.89L2147.75 1261.75L2154.94 1244.09L2184.03 1255.94L2194.43 1230.41L2165.34 1218.56L2172.53 1200.91ZM2112.7 1124.47L2083.61 1112.63L2073.21 1138.16L2102.3 1150L2095.11 1167.66L2165.06 1160.68L2119.89 1106.81L2112.7 1124.47ZM2098.63 1025.45L2028.68 1032.43L2073.85 1086.3L2081.04 1068.64L2110.13 1080.49L2120.53 1054.96L2091.44 1043.11L2098.63 1025.45ZM2038.8 949.02L2009.71 937.172L1999.31 962.704L2028.4 974.551L2021.21 992.21L2091.16 985.226L2045.99 931.361L2038.8 949.02ZM2024.73 849.998L1954.78 856.981L1999.95 910.846L2007.14 893.188L2036.23 905.035L2046.63 879.503L2017.54 867.656L2024.73 849.998ZM1964.91 773.597L1935.82 761.75L1925.42 787.282L1954.51 799.129L1947.32 816.787L2017.27 809.804L1972.1 755.939L1964.91 773.597ZM1950.84 674.575L1880.9 681.559L1926.06 735.424L1933.25 717.765L1962.34 729.613L1972.74 704.081L1943.65 692.234L1950.84 674.575ZM1891.01 598.144L1861.92 586.296L1851.52 611.828L1880.61 623.675L1873.42 641.334L1943.37 634.35L1898.2 580.485L1891.01 598.144ZM1876.94 499.122L1807 506.105L1852.16 559.97L1859.35 542.312L1888.44 554.159L1898.84 528.627L1869.75 516.78L1876.94 499.122ZM1817.11 422.69L1788.02 410.843L1777.62 436.374L1806.71 448.221L1799.52 465.88L1869.47 458.897L1824.3 405.032L1817.11 422.69ZM1803.04 323.668L1733.1 330.651L1778.26 384.517L1785.45 366.858L1814.54 378.705L1824.94 353.174L1795.85 341.327L1803.04 323.668ZM1743.21 247.236L1714.12 235.389L1703.73 260.921L1732.81 272.768L1725.62 290.426L1795.57 283.443L1750.4 229.578L1743.21 247.236ZM2020.29 1574.9L1950.34 1581.88L1995.51 1635.75L2002.7 1618.09L2031.79 1629.93L2042.19 1604.4L2013.1 1592.56L2020.29 1574.9ZM1960.46 1498.46L1931.37 1486.62L1920.97 1512.15L1950.06 1524L1942.87 1541.65L2012.82 1534.67L1967.65 1480.81L1960.46 1498.46ZM1946.39 1399.44L1876.44 1406.43L1921.61 1460.29L1928.8 1442.63L1957.89 1454.48L1968.29 1428.95L1939.2 1417.1L1946.39 1399.44ZM1886.56 1323.01L1857.47 1311.16L1847.07 1336.7L1876.16 1348.54L1868.97 1366.2L1938.92 1359.22L1893.75 1305.35L1886.56 1323.01ZM1872.49 1223.99L1802.54 1230.97L1847.71 1284.84L1854.9 1267.18L1883.99 1279.03L1894.39 1253.5L1865.3 1241.65L1872.49 1223.99ZM1812.66 1147.56L1783.57 1135.71L1773.17 1161.24L1802.26 1173.09L1795.07 1190.75L1865.02 1183.76L1819.85 1129.9L1812.66 1147.56ZM1798.59 1048.54L1728.64 1055.52L1773.81 1109.38L1781 1091.73L1810.09 1103.57L1820.49 1078.04L1791.4 1066.19L1798.59 1048.54ZM1738.76 972.104L1709.67 960.257L1699.27 985.788L1728.36 997.635L1721.17 1015.29L1791.12 1008.31L1745.95 954.445L1738.76 972.104ZM1724.7 873.113L1654.76 880.097L1699.92 933.962L1707.11 916.303L1736.2 928.15L1746.6 902.619L1717.51 890.772L1724.7 873.113ZM1664.87 796.682L1635.78 784.834L1625.39 810.366L1654.48 822.213L1647.28 839.872L1717.23 832.888L1672.07 779.023L1664.87 796.682ZM1650.8 697.66L1580.86 704.643L1626.02 758.508L1633.21 740.85L1662.3 752.697L1672.7 727.165L1643.61 715.318L1650.8 697.66ZM1590.97 621.228L1561.88 609.381L1551.49 634.912L1580.58 646.759L1573.38 664.418L1643.33 657.435L1598.17 603.569L1590.97 621.228ZM1576.9 522.206L1506.96 529.189L1552.12 583.054L1559.31 565.396L1588.4 577.243L1598.8 551.712L1569.71 539.864L1576.9 522.206ZM1517.07 445.774L1487.98 433.927L1477.59 459.459L1506.68 471.306L1499.48 488.964L1569.43 481.981L1524.27 428.116L1517.07 445.774ZM1503 346.752L1433.06 353.736L1478.22 407.601L1485.41 389.942L1514.5 401.79L1524.9 376.258L1495.81 364.411L1503 346.752ZM1443.17 270.321L1414.08 258.473L1403.69 284.005L1432.78 295.852L1425.58 313.511L1495.53 306.527L1450.37 252.662L1443.17 270.321ZM1553.75 222.088L1483.8 229.072L1528.97 282.937L1536.16 265.278L1565.25 277.126L1575.65 251.594L1546.56 239.747L1553.75 222.088ZM2085.11 1549.25L2056.02 1537.41L2045.62 1562.94L2074.71 1574.79L2067.52 1592.44L2137.47 1585.46L2092.3 1531.6L2085.11 1549.25ZM2071.04 1450.23L2001.09 1457.22L2046.26 1511.08L2053.45 1493.42L2082.54 1505.27L2092.94 1479.74L2063.85 1467.89L2071.04 1450.23ZM2011.21 1373.8L1982.12 1361.95L1971.72 1387.49L2000.81 1399.33L1993.62 1416.99L2063.57 1410.01L2018.4 1356.14L2011.21 1373.8ZM1997.14 1274.78L1927.19 1281.76L1972.36 1335.63L1979.55 1317.97L2008.64 1329.82L2019.04 1304.28L1989.95 1292.44L1997.14 1274.78ZM1937.31 1198.35L1908.22 1186.5L1897.82 1212.03L1926.91 1223.88L1919.72 1241.54L1989.67 1234.55L1944.5 1180.69L1937.31 1198.35ZM1923.24 1099.33L1853.29 1106.31L1898.46 1160.17L1905.65 1142.52L1934.74 1154.36L1945.14 1128.83L1916.05 1116.98L1923.24 1099.33ZM1863.41 1022.89L1834.32 1011.05L1823.92 1036.58L1853.01 1048.43L1845.82 1066.08L1915.77 1059.1L1870.6 1005.24L1863.41 1022.89ZM1849.34 923.872L1779.39 930.855L1824.56 984.72L1831.75 967.062L1860.84 978.909L1871.24 953.378L1842.15 941.53L1849.34 923.872ZM1789.52 847.471L1760.43 835.624L1750.03 861.156L1779.12 873.003L1771.93 890.661L1841.88 883.678L1796.71 829.813L1789.52 847.471ZM1775.45 748.449L1705.5 755.433L1750.67 809.298L1757.86 791.639L1786.95 803.487L1797.35 777.955L1768.26 766.108L1775.45 748.449ZM1715.62 672.018L1686.53 660.17L1676.13 685.702L1705.22 697.549L1698.03 715.208L1767.98 708.224L1722.81 654.359L1715.62 672.018ZM1701.55 572.996L1631.6 579.979L1676.77 633.844L1683.96 616.186L1713.05 628.033L1723.45 602.502L1694.36 590.654L1701.55 572.996ZM1641.72 496.564L1612.63 484.717L1602.23 510.248L1631.32 522.096L1624.13 539.754L1694.08 532.771L1648.91 478.906L1641.72 496.564ZM1627.65 397.542L1557.7 404.525L1602.87 458.391L1610.06 440.732L1639.15 452.579L1649.55 427.048L1620.46 415.201L1627.65 397.542ZM1567.82 321.11L1538.73 309.263L1528.33 334.795L1557.42 346.642L1550.23 364.3L1620.18 357.317L1575.01 303.452L1567.82 321.11Z" fill="url(#paint0_linear_232_6)"/>
<defs>
<linearGradient id="paint0_linear_232_6" x1="1036.45" y1="417.494" x2="1620.16" y2="1803.35" gradientUnits="userSpaceOnUse">
<stop stop-color="#333333"/>
<stop offset="1" stop-color="#333333" stop-opacity="0"/>
</linearGradient>
</defs>
</svg>
